<mxfile host="app.diagrams.net" modified="2024-01-03T21:43:57.886Z" agent="Mozilla/5.0 (Windows NT 10.0; Win64; x64; rv:121.0) Gecko/20100101 Firefox/121.0" etag="lLg6aTFK9sMUVgLhJsMG" version="22.1.16" type="device">
  <diagram name="Page-1" id="4e9xrjc88txmXnthytcC">
    <mxGraphModel dx="1210" dy="643" grid="0" gridSize="10" guides="1" tooltips="1" connect="1" arrows="1" fold="1" page="1" pageScale="1" pageWidth="850" pageHeight="1100" background="#FFFFFF" math="0" shadow="0">
      <root>
        <mxCell id="0" />
        <mxCell id="1" parent="0" />
        <mxCell id="DtwHGzKxlXm_iz9CqARx-5" value="" style="rounded=0;whiteSpace=wrap;html=1;labelBackgroundColor=none;" parent="1" vertex="1">
          <mxGeometry x="10" y="140" width="290" height="250" as="geometry" />
        </mxCell>
        <mxCell id="WfVGsAc3efYB-Gr4wjyI-3" value="" style="rounded=0;whiteSpace=wrap;html=1;" vertex="1" parent="1">
          <mxGeometry x="18" y="146.51" width="71" height="68" as="geometry" />
        </mxCell>
        <mxCell id="DtwHGzKxlXm_iz9CqARx-6" value="" style="rounded=0;whiteSpace=wrap;html=1;labelBackgroundColor=none;" parent="1" vertex="1">
          <mxGeometry x="540" y="140" width="280" height="250" as="geometry" />
        </mxCell>
        <mxCell id="DtwHGzKxlXm_iz9CqARx-19" value="K8S&lt;br&gt;App + Consul" style="ellipse;shape=cloud;whiteSpace=wrap;html=1;" parent="1" vertex="1">
          <mxGeometry x="85" y="155" width="140" height="85" as="geometry" />
        </mxCell>
        <mxCell id="DtwHGzKxlXm_iz9CqARx-21" value="Mongo" style="rounded=1;whiteSpace=wrap;html=1;" parent="1" vertex="1">
          <mxGeometry x="20" y="500" width="50" height="50" as="geometry" />
        </mxCell>
        <mxCell id="DtwHGzKxlXm_iz9CqARx-67" style="edgeStyle=orthogonalEdgeStyle;rounded=0;orthogonalLoop=1;jettySize=auto;html=1;exitX=0;exitY=0.5;exitDx=0;exitDy=0;entryX=0.5;entryY=0;entryDx=0;entryDy=0;" parent="1" source="DtwHGzKxlXm_iz9CqARx-22" target="DtwHGzKxlXm_iz9CqARx-48" edge="1">
          <mxGeometry relative="1" as="geometry" />
        </mxCell>
        <mxCell id="DtwHGzKxlXm_iz9CqARx-68" style="edgeStyle=orthogonalEdgeStyle;rounded=0;orthogonalLoop=1;jettySize=auto;html=1;exitX=1;exitY=0.5;exitDx=0;exitDy=0;entryX=0.5;entryY=0;entryDx=0;entryDy=0;" parent="1" source="DtwHGzKxlXm_iz9CqARx-22" target="DtwHGzKxlXm_iz9CqARx-47" edge="1">
          <mxGeometry relative="1" as="geometry" />
        </mxCell>
        <mxCell id="DtwHGzKxlXm_iz9CqARx-22" value="" style="rounded=1;whiteSpace=wrap;html=1;" parent="1" vertex="1">
          <mxGeometry x="117.5" y="250" width="75" height="50" as="geometry" />
        </mxCell>
        <mxCell id="DtwHGzKxlXm_iz9CqARx-23" value="K8S&lt;br&gt;App + Consul" style="ellipse;shape=cloud;whiteSpace=wrap;html=1;" parent="1" vertex="1">
          <mxGeometry x="595" y="155" width="170" height="115" as="geometry" />
        </mxCell>
        <mxCell id="DtwHGzKxlXm_iz9CqARx-24" value="" style="rounded=0;whiteSpace=wrap;html=1;" parent="1" vertex="1">
          <mxGeometry x="10" y="440" width="290" height="120" as="geometry" />
        </mxCell>
        <mxCell id="DtwHGzKxlXm_iz9CqARx-25" value="S3&lt;br&gt;backups" style="rounded=1;whiteSpace=wrap;html=1;" parent="1" vertex="1">
          <mxGeometry x="86.25" y="475" width="112.5" height="50" as="geometry" />
        </mxCell>
        <mxCell id="DtwHGzKxlXm_iz9CqARx-72" style="edgeStyle=orthogonalEdgeStyle;rounded=0;orthogonalLoop=1;jettySize=auto;html=1;entryX=0.5;entryY=1;entryDx=0;entryDy=0;exitX=0.5;exitY=1;exitDx=0;exitDy=0;" parent="1" source="DtwHGzKxlXm_iz9CqARx-30" target="DtwHGzKxlXm_iz9CqARx-69" edge="1">
          <mxGeometry relative="1" as="geometry" />
        </mxCell>
        <mxCell id="DtwHGzKxlXm_iz9CqARx-30" value="" style="rounded=1;whiteSpace=wrap;html=1;" parent="1" vertex="1">
          <mxGeometry x="610" y="295" width="140" height="80" as="geometry" />
        </mxCell>
        <mxCell id="DtwHGzKxlXm_iz9CqARx-34" value="" style="shape=image;imageAspect=0;aspect=fixed;verticalLabelPosition=bottom;verticalAlign=top;image=data:image/png,iVBORw0KGgoAAAANSUhEUgAAAOAAAADgCAMAAAAt85rTAAAAkFBMVEX///8XFRUAAAAUEhIJBQUQDQ0MCQkEAADt7e319fXr6+vw8PAVEhLo6Oi/v7/6+vpcW1shHx9rampXVla5uLh4d3dBQECfnp7j4+PLy8tPTk7HxsbX19cuLS1IR0eYl5eOjY04Njaop6coJiaFhIRubW0yMTGvrq58e3tjYmKSkpKJiYnc29tDQkIkIiKkpKQrDOYYAAAKMUlEQVR4nO2d53arOhBGDyMDJrjhGre4xiVOef+3u8Y+jjGgGYEKPndp/8paSRAfqEyT+PPHYrFYLBaLxWKxWCwWi8VisVgsFovF8u/Rbs7G09aF6XjWbFd9P8oIXsY/p84GMkS97c+0GVR9f1IE02VnHoupMScDq8W/2fRO03rV91mKcHqKtdXcrLSMzGg7Dau+32IE+yMDILQlVJ4fRGf9z2gM+z0AP6dTUm/ybf8vaJwdHPCKibvhgTcYV33/OO3+CqDgu3t4jwDz/ROvIKO5+Ljj4cL34jklthcFphXiNS6fcHkcRdBQIe8q0VlUrSdFK5IZenkSvX3VmhK8dtR0zkeJk8+qdf2l/QE11fJiarB9iqE424EOeTHw/QTL4kl977zjwqBiec03ba/vCgxfq9TXL2uViePBujp9B7VrA4fKummou3v+Klw1q9DXjAzpOy8YXgVL4lTn7JnGhb5pfX0jw+8XBoYttx+z+s6AUfN7bWz4VaNwUYG+s8KTKX37SvSdFY7+3/pMKZxWpu+s0MBqMTM+fyZgoN1/CjyD63uewhe9+torLc67ON5Gr5f/XuEAvAIdnfp+Ktd3VvihTx9ngmFxos9XOjbdS/IwfzrTONG4uSKY97H+OR2HoCq45gGsjtvRerHhPE9dw3CQ30HhcP11c98B+RCGC/C2fr1mJ0acBrt69PU5AxBmv3/SXn/JvUYPVot7krDJyQboCdO0Oa2584dk0LhXXqIHw9ZDm5P8DsFAR6a0y3uB6ZjQrGQgn8FkmroUz23xe+r1jXkrRI59ON5lJsCG69X8WwWJX/Pc9B8wcHIuVKBRWRq8twJ5kdm183tr7KIrWk063cH2tFyetofucTKM4GEh8POXN55ABqqTpJwJLRaY+/dh99xPLzUiXvdjP3sJ0zcUvnz2F+/RdQVtwCQ/MrjhPlbF3u8L14dwh5x/GUewOY7G1JOerbs78Hk9jrMyxa9QbUif25AD77z/CWeCC3L7kxvY5QdH4FhcBZ9Xvg2q0zREoweJ5VcexInQG0Zo8RuuKXQrPhEnQm/yh7tOOEqNbt4aX63AmrLVvol5gXoFohEuUJWS2aKtaB2DPAP/2jR3Ai9G6GFxNFiqaSUfNEfAQE3eEE9E+JqcsysfaNuK0hUOGghlkZJGOHRQ14vlm4kFmRGBJiWN8CCizJD2r8pARQp1BpvR+fuMr8BeC/AeqneWofI8DV/etUcn6hh3p69+tUdFPxRkto8+1YbGUPOBerreRLoNsom5AiFcOlTz0jFSKhuo2vFMEXBd+ptA2eAM39NV1AAB5sjEyNoZ7RX+BHXE7x5Z4gqZZDqNeICqrEEM4hFLOvZEQYxeS/sK4tRfbkHOm+mii4QaW5BiiCZ0JN1e3BY08QKpV9iQesi4LcjAzNZGfBRK+fX4KqjXFbyDV45Bi74CF8LfVOGsCPCC38VW4tK4IWpkionZYX1UKj46xK6swhkTA+2j7qq8NxMyNNxkrN4fi446zC8/1SEpCUdhWJIkzNumfr+P8uY+OomyhrktxehQkZhGUUPN/VKogACd7OCn9HXRwa0yu0OBx9bLJ/DQiIHJHTdojZzEjaBhVzOG6BU08iVhbuNj21CJeAxqb7ur0tf9Rmfn8mO7MKhAieQBunH8ad6ghFdqIrUjBO4S6hKotbzikWoEyrgpBcFzFLoEGlwH+YVkGgWa8udj8OCoJoGe9pjvHTxHKSEQWwe5VXgaQE0qiWUCzX02InPu0hdmUjGn9HXRWIhjIGz/lzDCLA53V/rCnJrwm0BDQTUqPCuRBMUD9+aMUXydl5jO8dnZV1RJRUOEZ5elL4yvr4ypk4DTw4dKeaufqLAwNssQt1E+yUwUOZk6f4G6jfIpUDwpYCy0fSIElt/1GuTvb7vBIjOHSqGRE7ksPb4QymWuhCF6qFQtEFFEYiY0igZFJd02qhjOxDzapu5BplwNTes4Zs7PoE4+kSvnJAu5NO/bP79AsphL6vJEFY6BwAy1s10i7BtDFFJJJeeECMgbWEpdnzx6RN32k3yoYkBZpy30qFNRK9wYEsM8ybgCsdQ7ejPZdfJsF+mSX9xjinH1xWbaK/rxynYgqiD1jK8tvNajG5fvP9SugriRiZ66+yOtTyKidoNcKGKFbzoUCrw/FWlmgT56bmejfDlsCp2sq2KGw72xv3iqvfuWL3KuiZLoOj2PxjA4KvR+g67Y2V9KFmHSWLo15iirXVuLHl2q5uicTPgXIPc8IgYbJf20/y16dJuiDF7aKYRDfzbeD3JOOHJh9SM5nwajnfhhLap29r09jPdf63bayz5pF6A7Ld1vwtaxyBcPvDc1+lKBi0SkqeXmjBUfou6+RCjjdX10ix0mpO7U2Idt2My5r3nt3N1hlxNk3kfjF8FXGTSniyMU/k4Mc1XpS3nVrpcIJfPq9S4i55PulnDXptvuZMP5MhOBwuxWKi7CYHufSrCKRNcDsqD6C9Bt+sjFNwrtw3RgBHZ3Ewnbw8gcsp46+C55pJ7a9GSUespuYoZ2+HcoEk+gtrFzcNXu38+EDhJHmfLjNmLutoBXlINq4zcTukjsbeUGhsQSW69lvoajYHfyI9mO5P0GJAOOaeUJlq3j5znko/TAowvZ13Q7tJEb4RedBogtkLmXVl8oF2ZjF3dvM9+lEg0KU+mVLMzREOjKPueELZgX2GC+6KW/ih7aqScxmY2RJNr5yRrJ4hlukbjPQ7t6wunZTposopqtUpNhTbzmueDZ61o6aEy2kz7MZaOzSXk9dJJ55x8nLWFTquBary9znrE7Uy71dPDVuBxF+TboF3EKqWNjUvoO9BVLkgmlZ/fuhc1mU9RN+oUoV3nEk9gQSZJJhqh5mvUCzlJD79bvzDBUkgCtu+LGmu7SlbTjpOQ8oAIC9ddwps85VHEgkLhAXUdsJ0k7uArarGeONObpM1J5NE8rlM6e1QWjFqD1eKVfgvQ3J3xZ51NQYG1l6IuSYSOlkEFHKsYstkzUzG37rs/TLmoNVut00ZP47QgJrO0MftY9jDL1+C7A12A9nTXD8OVz3Bq9TxrCN1QXCPn6BvehnAmGOdaVC0lqNXGBdDoJhoa/6Nomv67IPIUC9VQB4FCnVjLxN8g/h/2mz9gWjSQf+G0VEohaMszkbtokLfQDKAWOQcHdJc9MaXgen2mj5vG5qxEI8yq/if3O76YN8WpgxKNn1Qy/O33g7lBTIVDaCpSn3uG9RHmBZxPQoPXCZQ2cyL1wop4jEKr8SnSSy+dPlAt0oWvUOEMZRzn9VEogg+gJvkWfYJ+tvpIRCJHhDwvTBIt0dVdpgQxgYdi0FqK9aDxILCmQQWNh3rIWI1z791qlAtt+Esa2B/76eeaWHFo9+Gs5FznfuHe1FhoAvcrsTmFeT37s7UKRmPfr9T/8k+aNQqoYH3q9ZaGOFi57vcNzrQsWi8VisVgsFovFYrFYLBaLxWKxWCyWLP8Bd0OMHy9KQeAAAAAASUVORK5CYII=;labelBackgroundColor=none;fillColor=#182E3E;strokeColor=#FFFFFF;fontColor=#FFFFFF;" parent="1" vertex="1">
          <mxGeometry x="179" width="75" height="75" as="geometry" />
        </mxCell>
        <mxCell id="DtwHGzKxlXm_iz9CqARx-38" style="edgeStyle=orthogonalEdgeStyle;rounded=0;orthogonalLoop=1;jettySize=auto;html=1;exitX=1.007;exitY=0.545;exitDx=0;exitDy=0;entryX=0;entryY=0.5;entryDx=0;entryDy=0;exitPerimeter=0;" parent="1" source="DtwHGzKxlXm_iz9CqARx-34" target="DtwHGzKxlXm_iz9CqARx-35" edge="1">
          <mxGeometry relative="1" as="geometry">
            <mxPoint x="277.7843100000001" y="110.02000000000001" as="sourcePoint" />
            <mxPoint x="211.5" y="110.4" as="targetPoint" />
          </mxGeometry>
        </mxCell>
        <mxCell id="DtwHGzKxlXm_iz9CqARx-79" style="edgeStyle=orthogonalEdgeStyle;rounded=0;orthogonalLoop=1;jettySize=auto;html=1;exitX=1;exitY=0.5;exitDx=0;exitDy=0;entryX=0.5;entryY=0;entryDx=0;entryDy=0;" parent="1" source="DtwHGzKxlXm_iz9CqARx-35" target="DtwHGzKxlXm_iz9CqARx-37" edge="1">
          <mxGeometry relative="1" as="geometry">
            <mxPoint x="435" y="40" as="targetPoint" />
          </mxGeometry>
        </mxCell>
        <mxCell id="DtwHGzKxlXm_iz9CqARx-35" value="" style="shape=image;imageAspect=0;aspect=fixed;verticalLabelPosition=bottom;verticalAlign=top;image=data:image/png,iVBORw0KGgoAAAANSUhEUgAAAL8AAAEICAMAAAA5jNVNAAABKVBMVEX////w1rfTODMjHyAzUGEAAAD35M1Jcovc2dhta22BsMTvPToAHR40UmT53r4iHyDYOTQiGxri394fHyDRODMeGhvl4uEWHh8AAAwaFRb1PjsVDxEbGBv/7dUAAA0VHh9FbIMMAAURDxUNHh8gFhPz3cLy8vLCNTEkIyYMChJCP0AuQk8qNj+fnp4ZFhq0My+OLSqqMS7Wv6TPz8+aLywmKS62tbVlY2PmzbCejXqsmYTJs5ozMDG4pI2FhIQsICE4ISIWAAB2aVy6ublzKSdQJCR8e3tJR0dXVVVcUkngz7p+cGKmpaVLQjyNfm1GIyNiJiaCKymtoJDLu6lpYFg7NTGekoSUk5NMJCNyk6NjfIk8P0R8o7VdJiW8rp1UTUhBUlpRX2hRaXVUu24xAAAgAElEQVR4nM1daUMaSRNWxzaw4nA5yGRQwyECIiYSDhU1EYMYjyQbDXsl2ez//xFvV3X3TM/JjGLy1pfNyvVUd91V3TM395RUzbS7uyejXm9MqdcbnUy6w1j1SX9yVpQbTsYGIaRoGLquIem6YRThT+OTYe5X4wui6nCkEWLoig/plDEj3v0/3YjumKLT/LCbRHm4uP6/Y6EdJ8R73ZMe+0BIvP2rEUuUOTFc4AulPBV5Uq8T/E+p5dyFxvBXw+Y0vCCGA3yJkO+33z6/X0J6//7z77d3BZIvydKlkcb/wx7sGsQh81qdXH1eWl9fkmid0vtvtzck30pKHMR/tR7skqJTuPOFL0s27DIXS9/O6sQSJYP8UiEaaoSvpImoXvJFz3mgLJC6+QFy8svQxy6Y5GhF0igKuZ+CnrPw+725CeTi16CvxtHkaAYZ77ZzbdiIArkKgZ4J0udLwYGh/AolmKDN0clg0s5lMrlrugHk5r0/+i2JGAvv70iBq3HsZ6O/RrXVybiby8RiueseUVr5373QU7jzXkS5WP98QzgDP9eQtgcE0feGgD6TO6GSRO5couODXOJh/Xe+BT/TDFV7oLYaGQ9zMYq+vTsoKq36Nwf6adgZqf370k9m4BoFn3p/hn4ypsaTfLcvfjjwjC7zP5OB6gUTnQlKTvukN6ZGiHyxoY8AHrbgjDPwM3SgjTaTjNuAPrbbi1/oSqH+ef3B6IGBq42fxcCEoLXYRdEZxntxuvql+631h0mOtQN1xsBT52YjgG8MYPFjsZNePN7Tlfr3B8q9zMAlKrFmPK0jiwP84jiGkh8HGij1u/VHiI5J92hG9cZTwj8B+CSOstPtAfyxLsN/4OIj9UsYVRvxp4PfRfgjhL+L8ONa6XI28OfVI+aJyfVTwc9J8CcMfsO4f7Tomwx84Qw8VSjU0GF7Zfg9vb41A9EHot+zfsd0uPY08EF69IuMBD9eI5bdfyx6oAEmE8WnyWd0+uVGG+Bfc/iD+tX6TIRHfMl78nReYEhAtzI01myziuZ4oLUCZH9q6OlcfcjvvyED+vgJ8NMwQbugeUo3buhY0NQUK9x3Yt2KtCdLmE9e3d1d/f5deyIVrtKVKXa7I82qUmkDH+FfEusZTilAdb+QfKnVKvGkXp+9E0DbbxR5lUo3DPovzRP+FgP/+cvt7bctNdTyr98RewGGzDqMmFg/QNN1fTyajAyFfPOBv770pUXqpVKeHIRgYInmYHb4SnEyU/QZzSxRGeSCputUD2JEMZj5sYk5wv+9XhcLeTudgaX1e61Vz+c3SgVzjZRZwm+b5UHDOGnnMPbM5C407X7dufwoPLI0kH4I+SHk7vBo//jgkpTEx2aYCWQEHJ2cxNB/ZaA3dEGTRk/4PJ/VWpQK+aOp+Lfm7/dV2CZV7d/ykpAxQx+m89VnORfloHvS69G8i+J/75AedKKAQKuT+7urq7t7MhW+jdQ+S4Y1bWbwR9zm0IQXcy4KHr3vmOL/7F7+e4C/MTjsq0jR4AMHt2SmLiAnCkzdHCQtIx47CPyO5V+HRFDLHzwAuMnAISZJswqj2fJrxhBkZ2KiF/htP7209Jn+dkHZfzh6YOA2P7sYospDKgqfZowSfMT/3mE712kEWVCmm5wpDNxQQ0pmg7/LpBECt6GMnuF3ui4afyXrj4U/Pw+p2IwUAIpTdDNzLviAv+7Av37XUsjxo4QHCTZgRgrAln8Yi7Ud8Kn91Bp2qFvrJaV193j4VIXrijGaBXxsStC4OZYZOeDHG1rrzIGV5h/5x0sPpT5RtJlUUqApoRiTjJlzWTRQ6s7orE9cf3oYqffabBQYrScYHxf8uKK4YgNViehuffFftWaTRaL6Gl7LH9c9wPZnoLyInyrATEI47M81chkX+niPhp9hwR6Hxn2wz/5xlJ+NAcJSfy/nMj5gPltXIfGrV2EZUA+4+donMwlB0fsao5yH+DS0+mFo/Ddh3/m7yBcIXbZZ4T/JnbjlZ6Dk90Nh2oLsPNxbIX5iCZtan4kBZebzJOeGH68p+XDJ+RKgcosajZMdTG1hBWuDvUoNqPFo+FgvB/PvFp+4poURCl6gIHnXKxS/IzfGugV3KhBBPNoBxFnsaUw8rH9cd3lff/jrd3mXX1MPNuwLwN55VWrhq5eFRxdRxrzoQHN2N/6eXgrhakWB6BtpuV47rNtjjSUuargB6lnrsfgvxESVN36tPt0omsX1da3uKqTs50vy3/h715VCQWUOuLj7GPgNcyDMGHma/zCVBRP/lzpxJWV5W7DH37t1UIcNUG9LNG55BAMMfjKL/stD/in+EDbRrE8vlbRW384AFfGSbJZ4KaxPkiXQDijCPJwBJjzJtT8oA9o491D81g4cbGgl+w5gjOP+Dir5lC31oM7yvofBHyP8bGL1dRnjH4q3MajVBo2xpb8h5Ac52ML5GXWguTjOKwXLBLFqS//odkBh7wNzyED3IfB7RQ7/+V6C/qMWu9A1Niem6Q2+F3oI/ZXpyIYWEV+VFNOuqod39618nuRBbupnAv+DolDmtgD+81XArxSl8UhNv0D8SilEaXa+L0pYKqYk9g3oQ5rO/6Qq1mRoS+mrxxuiEho5j79G+EkKf3l5O6G4SBsA/kHrcip+9ZIol7eHR/3+/vFNy5XwqGclpcCDcDD4jJL5G2qWAD82tLViRDfQ5vC3KfznnzYFaBwCzhdMBi60+vT1J0mlUKrn6Qexs+IsRvfzVFZuRcSM393KtzCspeKWfLMGf9EHkeDzemFiD+CL5S+Qmy+f379//+0SX9UaqMDTDZC9L1Fy7hiNIShTRyzi3L+kfGpnx0zgKP7yq6/IgBGpFMd6sInXFP7y8lqWyeD393wWeP0zLqROlbg2PVenMZqkOfUb9xuoUiii4EWtT9+smyL+1Bv8fRKhG9NDy1k+B/jPwXpSUZKHq9axRwsb0AijAIcDUi8VCoVWqe4RQ2OeZaqAjRj+1Ww2mhFiurv2Dlf/+Qf2adtgHmtW6eDB6tPgg9nZP7i6u7y8uzrse3GrHlAVKHlEskcbSnkvldpOoBKHDeVYqyWrLCOlUPrZ6q8vff7MZlPXb2D2sBfWAzPH5NsJUC/BLrklkdqfxN7CQuoVYtBDThij8CcTC2z590B8Ct8R9RWYnxvcCWiSa2MwQGET4EBK0t90F00B//YCZeC8HF4FRuh3E68Q/vLzl2A8oUe0tP49z8zQmUrT2QIoQENTSmELEIEEKuDKpcH/JlYXgAEuxCHcGLP8m+cM/vLzj9R8tWC8CtvjzIZQnd2C2BbiicJ0BQ5B2G+h0an9jwf1ZHkBabWcRJ8zHT/GONnTZUHAeR561Osbd0cHjIE8dTfCt3sajgcwcLsB3+X4WymZTSF+rgLTW9onTHpW+fKnUqcUP7ZIP5+pkFDUSV5DH8qcWImEi0CnMwDDhy1bcEfzr+wbhn8h9RGDAJIJhh9DVOVPHP7yaiqb5DMa72lCpGj5w/l9ivpWVQeERoqDW0+L+CAaFBzeWb1rZd9x/AsLShZ9TjD+BpMeE/4C4OfWB2JFqDeoR9ShqvP7R0f7849oMbqo39KYbpn4b7S1c4GfS1BwMsMaXab0wMeo/BTuOP6jPAaPdF1CTAREp32wbyUrwFALyuYnc/1THzEQCiwIFW22J8Utl4brvwX+kCXb+yRk3hWN2PRky1JiopRfm/gXVtfABgW1lFB5k5vLFvyF1FeKX1lnIw7H+QILEy9noLUes2Us4SUip9vH8MfEn2KRmH9Lg7V5hedaZp7j05pijmgckYGI08PVYoPIOTOEDEC6siHwC/drMvCBVUL88GOfKPvGEn7BNIw4wI/1iUiUDh4t/+6hp3lWsbKySbobiZSMfy8RFIiypAVTLiE9lOAzJYje4BvNauXjzY43fupgzI4OzSZN8y+rsF8cF4flX/sqSw98ZpM6gPt1nNFQ72bjbOdFTciF/7JglQTU+0L2ow3/wnbABuRsttPi+WsW4zfUtmNllvjdCiwXI+bn80nJfDIw57gBnrkkSv/aR7v0cAUoXa1vsfWZUWvx4LOX9kL9QRuIn3CYH2ZDMZXxikOrtuVftT4Ce5Yk/Odm5LbU0q1bdvq3pRL9JZGHYfS8bYcvNsDDBE3k5bd95F0WN2A2yBntk+/OKkT/Cub2Si0ziaGbkVxzLL+pAW4fIMedqVUZ/6syZjCPnOy30fGGve2t7p8B+gK5siybWtOk6M1ugtxtVYx8sn+4l59+JEllTrt/5Gy/A7+Udqrq0SVpUStHbuTiNE3J1j658IsNcOLHwBPrVbLyMvwvYQPqM8kTOUEdd5+n9Ee3ClT0tPzAyn9VJv4u9RXi7CpJY80hq3gtP/0Iht72MWB1/ugxIVA9mczf3R4cXF1u5OHMTovcS+j7Vxjk8uTXAQbF2ZkHnID2ll96Lb8VeksMqIclMni4SkPVXCmUKEG9s7WRvzuS0RMQrrri8L721bQnYkx7U07bKT7CapD5u3nTtdP9yoccjfeifqlVKGhQktsgpbNjSWvnb/N1iFKoiFnJiw0MlpPtGoxFh+xX7+WntIo9MLpQtyi1RzAdXLp7BP75/cvLm5vvl1cHx/tSDqeqB616EjwwRHJe4r8gNNjWmMfQh2uv10dECU8pEeX7d6Zvpa1I53XU22Nb1OdRkVPnD5Q6L6arJcVT/BdMDZaDIIIVt2W/5YfQtcyq0EqyUMBSTP29VwAfQH0QlL5fDRF29aoOdW1WkKHik/3ggwXzGFmAUHzWzn2XH3dAWVMkIu/XPSMwFy3xliiUqFobpHZ3cHzUN1ef70D/6PCswKpjGlbSIRJyBm8mrToFaCSJj/eeUQYWPiayJnx+amc6filOVg+wxoatmNL9zeXlGdIltcMkXzfvgWA+LK9g6dYbyleHABnTxId97NWbRJbfWkKWliLgFzJynDevDNHA+CDlb9W+2aIp5NGQQuqVVPywcAEya3FYtOKhm9/y4+dSrz4mymsS/ukKsMXepGLgqvYvieP+HGrUriz8JT71rQ40H+uJhAKk3Qv8u2D9y5i2Byw/42BhDxJ6VpAOj/+Y8IIFhDr1gh3/HcefbJEz/qkjFB9fMCyRN/sZOB/JnFcwfPwsmt+816kjT2KFI1IQAbPaP7ghG6WCeX0OFLAJ1Ys6uRPhm/q9ECA+woWZVxWg83ozVXw44eaVbtc9FMAru8H3UNuTNwNOVe0f314qJJ/fqFPKU87Ixv2Z1FuCOpZX7Gnix0KEqGSh9dz8FEJ82IehIq3deOBXrzwY2BLG0zY7A2Zz/+j48IDSMft/yQvTLN6detkwbCatM7Yo/sx6hoDPMwgvBVYPvKbhGIvq7cbGketV754YLL9H6iJjeCcpQM8S/xDiw62XpwLsBxy1U29aoQ7i8ZMXAdq74FAArLqdhhUfHj+1+Klf+y97zfII6pPkxv3x9II79RLTlp8nAcwDVK3gIRR8br1KXgpwW6/54zok1D0pLIINYgBuoQqU/gVuRFgdCNW3jKMCYcRHCBDWRJ0bQGM0/6MXeL+GVsrXYRplX1b1ft/6P0xtNv19F8dwiqVcS323Q4sPJSjEewvQbYn494PVG9b+K5TqGziOAgnYBl5vZ+GHTmoyO3UNmRGpmsHblNjH/uFPqMGeIVBLCyqt34gjqXaSFBsiB1vXwgcCa0tDCAeVh2Q5vPgs8BTU0wKpx0TT/PHTvNMV/9Dc3SptqFd1MCZTV5IpMJ4OQO/7Lrz6LvCEnnf1lpwIS62AmWiIf2jwwAZqNJxI0c4kv4AdpM2X0yUBjSDkMJb5CS3+XPx4DOcQIPW+UA8aiobg4e5eqec3Cvc3Z7e29Hd+HmcvphkfJDRAPR48o/mJgB/rwCUvDabGpK7lg6f6HMmX9MIV6odP3mtfwdMkmydg5hOih9Div8DqwEnvJAa6iAFGKIgvfntLUOhmAmARxNxcl5nPqPhhrEYEoU4Yx+RhBwj74uB4wrtwYgMgDOiuwaOfKOLDHaBPFgmJ7kMYuBeJTTI4+kH8LI3KscphIor3wo9vy1mAEwgc3o0uQjdi+YGBaTvAHUBsLq7D259HsJ7waSZ+PiYIrOhGqFsTpE/wG+zSac7AFBfGg5g2Rs/JZDTxT22zqVI22OTZiL6rK/kIp1DVY3bvQ7q5WOE6EKzEvKsynBtrPHkM731Tn8xKkGcUxxjIK6X7kGfIoS6BX5fuPHu2whkofwzMAHAur9jF8CH74Xn44Cf1ShHzxHBHhl8hCO7T00JlLKp6wOtCleazZxYDmx9WA0ChAtIAYsDDh5D4U3sfpDIcjG36SBC7AyF/M3UL1OMBj+oqi8+QXnAG1pRtf1QM/+5cTWGV81D4U6tWEZFrGvGxQZiwaNCSC5rQUtXj+zwfL06/ePbMzkC27G9HWQC0O4eMfnwexvyA4IsibkVZ5PtM/HfgSIE+AfGdMVPnDwYCvVJb3FlxMhBgRxn+iYl/uvqmXp2WedWp0lmxfqV+/9l1hYvAdwWtghK5O3KnjKp6dJa3LiBWaul0RUiQxIBfLBoVf2r7nRCdSpPvNN8Bjdx9Xl93ZgL9o+PD46PjS0DYIgMp74V/9A/PSnl3LuBiQEn4pJICv5D/KegXzl3oJVPRIvdf3q+vSyWoo+8kn6/XN0TCpZVI6+6WMnRE2YLqW90NHr/9hZMBHzsq5J/bn2BnkXq9tikkx0JPaUf8CsWXv6PRPL+x5ZgU3Ngw74WqoXVHkXUrfXKNnTOomQykBQNfvcAJ/Nz+B/uKD1zw08rKMzs1+a/Ajf/YmtgYfL+7ui153JbvpGShtLFxyt64lsh+PP8ATba0qcUvaumAHRD2/4L534BiqSQ6O89c1GHw27s6IQbeqlZotSCUSZYTifKanQ+rfdGqE+Py4Gj/BgdOEx+3n1PCLmFzcVFsQVPEEm4lNv1vT8Pqm3+t/VVWiE7zhRv+sxcMf3VuLtOdjMYNHR5wAZjWXq1uv/5YTmxa7u7+CmvOG3lyenYI+nwEvYBk4h2f2sGzHskViwEeDCXdGZkZ/2D8WX7uh546LC46aafoIHr6Y/CqfGNnFW7hTiZSz58v0zVdfXma2OS7UDhW948PD3FuV0UPTV/Y3Nx7LuZ9l+mPpRcpmTLEGHC38jj+toj//RZ/bU0svg96Sp003sdqHe+gOSmfRVhGFj6Vefc1f7kv5bxwS1Qy8XHZRI/T+ukd/NIXMgPucqhZAJqw/MsTfeo8aPFfLHJa2UnDbXaTTI6zQL+TzyJwFpah9Yc7QF0Zz98x4F8r7/GBNYpgdXUBBKi5IjOAIuSBn1Wgc+x0vlfFghpNZdN/8VcWLVpZBDNUVCbtDOWhSm2aNQIuWNjmcV9rg9ycXd1eXVHRz4rFNwemwKp0+FfzJWMOyoX/nOe/Q1Z/cL2eev1GtNwrrsV/IaNnHFAh0gzSu47hrXZiEE3mYO+0zLRRa0HhE8y2GBS31JMa6o755bgFsLnuXqRZf+DlZ+fMEo11BPqO0+y40DMhAnOtF8nFiKoUtqPYqq5SWkghBy9F+Jctg2XFtM8xrfkmq9Ssr1/h+N0FUTzVBvUfXn9zvP7VDJNdNv+FB3iJA7oLBhslsn/lKmXhOVUoYCHx7tXeJ7rS0LSyDy1ga11anhXmId2t+JTZACBu/Ui9EWFyOu1YfK+lN3+Mc6Cwgp7jF1dxD5a3P60lqLNapg4ouXa+sL0NdtaUHxRr22+86MBIvPccIs5wQMnR3mxl9XEPxfUUHAcHnbQPfpQhKkSvyqxaA1DXEonEm/NVCT+YRfuvgPi7Agip/hzH9p1tYlJMOZjRbDj0XIo6aR/81BUsb5+XcdKCQaByC3+U5AcMqO13fMTfqv+jAyjLAsYPzNplJxx6xkHNE//y3vkpFf8kTJmmWASTcIg/4q/ZTDPF7xU+nPPy2xw3oDKHDD/UMqYrrScDTWXzpcf6p1b3Pr2h+lt+DQIDUBPouCR08MfOiv27PKy/mIAAZ5lzGSA2H9R8wNKbawb20/2jGEycrzFxTv2RpV46ZV9aN/6adzsJAnrtQhp/kN7CTgxbmVA09Isgs9AQcf/oagp0OJtV6KrjmcxEyul3aFjQtC1X2rMfsGeaHzF+Im8iClfaNPyR8a+kAypKqXIye/r1KwaGCWfZmNp/Hr+ZS6Fk/3Dv5Eup/84U2H3QJx3G5nvj7ygJf/wwj5+lJk7X6LZ/er2dAhIvriXTtm9qerbDePU/J8+fuBTADHui42+mE6t+k4xouRWtqPUuiJZdKyfW/jh/+WpvewHYcIl/xzO4TGHeXOT5BiqAPKwIqkWp8wgF8DKg+NXnCXhsHBnsZnK59gUeOMuubZbLifLm6Zs/lCTNf+VvSnt2U9FCmhdc32tOBWACJDQ4Ov4VHMX3Kim9KyvGuN0dsguM8ZE9IlLRUKps4gPi7zEHx8TfvBvOpQBcgEwNjo6/CQmM2+tsn64pWiODFxgjZdo9Atv/tvL3v/9qbyH2kOUHxN+jBsoHKMUhjLbLA7A3mBocWQGYADnxp/YglzfwCmBY/CqwkYu1a1rtz9+A/vz7LRZQLPw1xeMMycICpIWabuarOD6clfEzJRMaHF2AFtPZN86aQOo1vwcBb9Fl6TJyYGh//8bpLwcDaY/YTUz/WAc52QSWbZ+wZJBuPlgBqAW1dx9SqY9UKCsVmFvj8Nuj9hzdgxxJm/h/+xMYML+Fir/HEDoPfqwnJXXdAoRvUSoPV4C0Xe9Se6ebip7+E/Dh8zMgcCFwkKuaIel/f5MZMD0YXQWP2I1N78lHYNCCJpMyfnZUUpQdoivAYjpZto4ep7ah7/EWYP6oMAmCwFHD09RVov+w8P/WTFsanPaM3VB8bGfAxi4BYgNOIoiLjp9qnkj6UqlXX2nUqVWYktJ8SWvk4ATdgGhVxF/5T15/a/lBfNyxG3e+8oO2mADJmsL620KAHqAAKEBAe58UKAW8/dsSEIVQ70V/lh0DzNnwd9Jm/IbO1y0+7C4I2wkqJkBl+V3bcgwxFb/HBqWVxOtXr2nKAjXc5FsLIpUgTclYRxgzpPKX+eJflbT8FR5nGPj0uf3pEphE2vaKCZCwQNPw77j+AotHwwJ+edDbPyUJr8BFFBmz3BiT8Ves5Qfn6xW7fXAdHxEHeGxJAPpoIUDBCrDSrDTd7xD9Byd8usZU/WIZ67etl39UrOzRJ3ZDyyI5L0aa5tRgLkAvwuBXtKZLxLAqCi0PJ3xU4eLErPdS/P/wF/55K0f/aa8TYMyyuy4SwSlKuwZjDMFjoCkKkKaxqotFqAalOztJ5e1fdvigwlQDcsyDUTtq4v9bsp3Av8cRGH4C2HmXET/+K20XjyE6IfDvAH6PPVqBglBa8q7SBpDrGJV8QjLU+L0VgvVWUl5v8WF1Z48DwOz0u80Hw7lTIUBB8GGlmn5CRqXnHxd+2IBGptqlHmwIW8//rKRlNfIUH5yd9ToBn2FnwOQsAF0At6CBdUO6xk3vTaKLKAcH1gak4T74apIMaPhe5Bv0X0Uu3Ta9xIedhfW8xQV9sG0DUIO5AgQqMMW/44kfQDiVl0sKlQFqQsEIjYr/eijvStJTfLA06PmQy7Z7A9DS1qYrgC9+sKEVD/i//XYKQsB8WI/7tr9tRnjHS3z48ns/3Aw6qbYNYJ6OKcA0/Ite70ETmv7XLf/oA4wRBhFzDWaf/pSVlxUe3NaHSb/3fZptlwnCNJIrQBD+RdYfc+PH7nb67Q8PBqgPM2K4AUUmYZo9c097iA8zPr7PFbpADZACVmzScAUIxl/xxL/IXJhSkaIfQTQKKu5CEFFl5l/2vGzn3LEPt/1+15myy6MkJ8xiiM50A5REIfPWX8ZBxenD/qEmdABhNA3fXNKDZU9X7MMC54BLyDCPlLUGLVBlOv6OD34RRHhx8C/1Yd0YNBDBfHZsph83zi4+EIkHXj8zJ65AKVt8o7marsD++HlrlXNgkyLqw+CRJnMT8gNMv2LfN1tPC7C//nR+Gnz9z5y4gKlsMo4xEEsiA/E3ffHbOXj7Q7JFEERQH9Yr/oWm31l1FtE8TT5fvkskypssFNfjQdc4GjgOYnKOCjBdgQPxMw74WG3l7b+mO6MmVO/lMjpV307aXvWEpkt5FcGvvnyT2MxKYyxG0COah0yFRSLDplQ6j8Rv2wPt7UAoAiSS7SFV3x8Ve9UQtBdiYcycpfkVTkF3qGEUwXi3PMA0BZ6K38ZBmooRbsIPnW7AbvEHtT329Ae19xWMAEizpgacU2LV0gAVZnG02TLAVgxT4Mfhl6UIXNrpf/+ACVX0gf4XlVnX8idPUy+zZQu9TuKZuWobn3ke+GS8a5sNQpNbmabAofAjB0kzqay8Hfw3QCwDh+dFp5H9oJQtoTfImC95GzU0SILQCwsvxhR40Q//Dis8BNhPBweiv42aIGb/lM6KRYv8HZbK6oSMrNtCqnC8MOgiTS5BSXb9GyRhzAB5eacaW7mV2nT8FsCmc7aPKu9Os9nsACnptO01Cr5ntzfsCcQBl/kyG7TGVAA9sJ8BguykA1vgHf8IwBQeUFNgrDnwdzoO0OYOucADTYpTvBi7QbaMkTTOeaR9DSj87s6KLX4WYoCIAWxakCdGf9LI4NrLV6GABF5GLK6vTtkMkJdQYIBfq/FC6SLCpqiTHHBUyDKRCz8ZgVQ98MFCVXF9eIpFEP4GdKXDf61CoTdrD1lmb9IcJiY2vDbZgUQl+CJTpgI0EEphuYhFQB74V1ZMXfQCrumGUSRuKhYN8TxMO6GPAielDdrWFWOxSYPY2EEBCnyyFnvUbDa7KkVA7pk3uuKea6cz1EajN5rsdoftdiaXqzLK5WLt4fXuaDygbKClTlegKcOe+z6qgljTGEAb50SBd0jf6XgGBlRrpzyYJM6evnC64GtAqZtxLTkDXuudXA9j0277phIB+UZzhRWY4Bf/KbsAAAfNSURBVKt4RzeGTx7kxfUG0cnY8V3dqQIkHt6RfWNFcA78OxWmpJUKsqFT5Mb45Lod8olpVXgMKbGmRJqKOVAClQRMbUDUDaK4TGh1ugBRI6SzHYCdrbnwr7xYaTZ3dhaZraxRg3zdjvSMhCo08ST8aIr5RABdXwML7G1CBl7Zbk2b/nDRKkYaTDAr7vW3z4RWIj8jBPBndAs/HoUQVh0e/AXFleuh9yLDmfepDxetWk/s8HQA8nRZxYj6sGfAnxto9vMW4la0sU5zezPmqbYp2RjBoeGpj6bKmQ9O8HZgKy9MFqI/aRLXf6yb+FGBRWpF8QkFrp4IC2z0dm0TA9MfaGAywCJoD/8F8g9cdCI/Khbxxy38EPSbRpEqBk2N8Z8Xg0bjojc62e22rZZTBnCF2HLBQNoXP+eiE+ZqeDf+kcGLG9S3dBRpJoBQ9QywwBmwvGGeLVc1mI9ZDM7AVpqRH5SG+E+M9OILNh64IhvQuYZmSB0+12czODIT5ierA3intwO244/4hBnEPzFszWrTgFIDI6q7XpSLdafGoCZBPsbaqAH4d9JRn1GE+HeLVskf8QtIu0V97I8/E4uFx4+x3BT89MeDqjK++K+LVurL8LfFj/IZA7rY3cnJ6GTSldwjtbzgwcLhR1vVmYo/6oPeEH9Xwo8OWLhBur4atuirDSlsjXer/KM5aFaEUzlWlZ6CfzEd1QEw/ESq/AB+cashjXCEA5ir5jIx8GDtISVgIEfxw7Hxou+Xy4T5cmVaBSgd1QFg/ENl05rWwChQ5LUE2ks+8hFj66+Fex5MNRT+mhbxSZlu/Jg6iNYWOjBv/Bh5UPkPu+Oh8HeiOgDE35bxYy4kvkWnDkxMKWZo+mMmQLj8aH/CPluXiAAosII49dEgU/FjKo1RfTWTqYEDi/lRphvh4epGKPxRDWiVL2PHgb8N6gmRqXHijz+HGWTIX9IEfn/4DzCgbvxNTIEnDGBD0+P++EF8Qhs8KDiGwB/RgCL+jGGdFuH4RxmBv5fLCAL5h/8Tyw/5S2iHD64OAujg8mw6pDmz4c9peFxWiCAaUIFfa3S73etd6nx744vBAB47ORky6YeQIHzAOwiDfyWsO7Tjp99t4scAQrvIxTK52PUARuyxUmQYus4qMkpv0gb4bSgehU9YAX96Kv5axAiU4b/QrM4Rw1/Lta97pGiryhRJY7Q7jOVQgHJDmBXzmYHwIpyLqDSDT/GAA4gUgTL5H+sO/HAIFOtamq7TpTdQpK5jTPhBE9ojzKki/FiPl8k6XlOSJv5mxGe1M/xx3TYuaS04GYzjo5OTEZX02mTYjuUgCOrujhoE61IkwnPVT8RDgNNNfw6o9EZ8VjviHxnSzA/HXyS9a9MXwqMQDSsCZTUdhcSDvtlBQ+sBlAEc7EQ1QIjfTMCgDsZ/ZNemR5r5CGVzd0jEJ+rKz5/05yAd2iFK+DGBwW5HkzfGdMfS5sYGLjyjopUFhKc2kdYgTSMWTw7SUyuSHvghAGXtDvH9Hm6wGhteUzcwollY6PKq/QviRHp6blrZ8eAADGgkAxTjAZyDHvKs3xAcTBRpE+geuKSIGtBoEZAXfiraEdPo8NSOyxy49IAa0MCmoDd+9qxPRUdDr+jjJ0MPVD2R/WK6YxMjakCD2vpuYnEOtOKI0ZvgNYDRH7MckaoTGwfpJjQATAMaLYJg+Guadj0Ev4qyH9GwPIDsHFAWOk3WxFgBAxRF93I8zlTYP8ahCyKPJTsH0HisUSZ26PpHUmAG+0KvZbgn/inrj7RbJM72J1rwSAqc4wEcxw8D/D8L/9xcd0Bcfl0Jn5ICsQCOBocsq4Io5WlsvzdRc2qeHbWcTwTvyANQQ2f4M8UoOcksqNodE2LYeIjifQT+IsMPChwxgp0BtSdjEd2CPEUBUOVqS/j60zA9YgQ7I6rGoLIagzQhTEvHJIGf1RQy0FP8OQbUB074lgL/AFt10o6ZodDPVGAXhetpWuTAn5s21fPUBB4oShubJ2BkyPGP9YgR4IwJq0oRNDDD8Xe5AgP/0VK42RKbCgn//hxzu6JOjj3RaCncjAl7UuEVgHfwirsZyQA9aQIwhSCEiaAAHL+o82NVM2oXcKaUCTEWJRHv4Jl1/naUoviTkBa6KYvEFp1XzBl+Z/Xk5xLG8OElmIWdok+R+fX4I0pABhed9SlywxOoc/9a+UEXHL6PihkM0S6G15P4gLDB+J8aQbsIStXhiwg5VkDRiDnOqv3KAG6ODWaGN4FogGpSJqr90vhtjrngCCFEjA9iMDLI4KnrP1OpEcmC8gQYmy6ExH/x4gPtRspiMzxq0wajbrTu/VMRDKuED4IzPGr7pWG/nQbhy2gsAe5GmMT4CbQbNohk8wMsavilUZudQICM6UGAQI8z0L+gbuJPYIGMwUngMHrOBJ/JxegHfmna6CAcrQZ72DjxHh6v8nANsHdPLqCSGqns8sRUFR0htOkXI/tJjCrGarlMjMU8LOiJMIvxE2gsVxQ1dhKmdtGD7iH0EEfx3sXAIEQ+wvOLozY7DV0tRXjar24I0nXNUXyP1E1/ehrwg0UhSSdRjz48NeWux0SIdjCBjvT+PyIHB4FpKbLGv01gNA0HY9iZCv1iFHUW4KdSFUZecP6rMYDpzlpt0Bj34jAHMPSdro1G/wPFj/5q024wdgAAAABJRU5ErkJggg==;labelBackgroundColor=none;fillColor=#182E3E;strokeColor=#FFFFFF;fontColor=#FFFFFF;" parent="1" vertex="1">
          <mxGeometry x="321.5" width="57.89" height="80" as="geometry" />
        </mxCell>
        <mxCell id="DtwHGzKxlXm_iz9CqARx-36" value="" style="shape=image;imageAspect=0;aspect=fixed;verticalLabelPosition=bottom;verticalAlign=top;image=data:image/png,iVBORw0KGgoAAAANSUhEUgAAAPoAAADJCAMAAAA93N8MAAABL1BMVEX///9ChfT7vAXqQzU0qFP7ugA+g/Q6gfT7uQAqpUwwp1BwofaLsviEyJVmu3szqUo7lqrpNiXqPzDpOirtQCf8wADpPC01f/Tr8v793Inj7P3sWU3pMyDb5/3qQTZPjvX86OacvfmtyPp4pvf6tAb+9dv93Yzv9f6gsi/xiYH97+74wb3+9/b61NHM3fyaZp1VkvX//PP/+ur+8Mf8zlX8wyX1rqnvd2/uZ1zrUEPubmT2tbD4xcHylI23z/v73dvsTTDvbSf2nBT4qA/956z8yEH92Hn+7cDf8eT80mTP3/zzoZvzm5bZzN2cZZntYFTzhHmTYaHtWizygR/1kRj6vVf+5KKTt/jzhx/uYBv3pEBkmfZLsmqb0qnn9euHvMjd5sFywIW338GOzJ7H5s9le8spAAAML0lEQVR4nOWdeVvbSBLGLRtJ5koiaZEB21jGMYwvxmAw+CQJ9zGBnWRhdh2YTTbf/zNsy7LxJcuqPsXM+8dkZpIH+5fqqq7uruoOhfgqb5UK1Zvc4VE8Ho8g1eLxo8PcbbVQsvJFzt+Fm4qlRqsejyQSmmGYuh55ka6bhqElEmat3mqU/mL8RavQujM0zRgmnpSu238m3ipYfxF+q5CLJxKGJ/TIXwAaAfFcwRL9vUllVY8imn/sIfxIvWqJ/vb4Or45Smhg7Bd8LVFvWKIZcJRv1HV87j595L752vy+1IpoJhm3I1OL31iiafyrWDjUDBrcXSHT50qikfyp2LgzqBh8IMM8fAXw+WqN1MPdZGqBh2/E4TOZT3g90PDNI1bgDnzOEk04RceHLMFtGbVqEKe6/G2EcnBzkW4cBW/UF+L0pjMvmWYrL5p1RPkc67E+kBEPkuGbNT4md6Qbt0Hx+GKLxUzuJe3oWDR0V9YdT5M7MvWCaGykAj8vH1biVjR4qJUQAY6k1cU6fL6uCSK38xtLILnFaTJ3lxkRN8uVOORvXtITvwkib4oJcAP947O6KYS84b2pzoNcUoSwV0W6eZf8V0WSlFj6b0j+WbKlqLzZxZP/KklC2BuBIefNXhAe4QbkiF3hF+uakSCR2/BtTuTHtYCRI+1wIbfuxOZwbuRKKskD/VBwiHMhR+ydVfbkLXFrtenkkqRmmJNXg0kuSczTumPRfv55Cjma4tiGuuKd2ODezdunap0lek5siJs62h13X2RIXhC1EeeHnKm752nZ3K4RtGWazr+YvtzIe7Tb7q5es0K/pxDjdFMzIvH722qhWSpZ1nGp1Gzc5I5q5swSs+kRbsBeZkROPtxNI3KXaxy77SIfN1tHES/zz7Q5wyFfJFy06FrksOqK3ZdVyNWm1V35sLltdoVJQksW3U3dV/1fvnkYcRv5syLcC3uHAXmJII3TjVrL9565dROfOL70NdqdIc9g/VonqPiswar+8tUxeL8272qbNnkB2+hG7QZcB1GsDp/r+Lc5kvpImbyIuz1hmnhlT/mW3g94IJujSEc5n73BjHFaHftc7LhuYJBTX75aeEbXIzcEJ8HFG3s6hZIjdqoTHJ7RiQt+SncanFxSaJo9j5XNaDniMq/8/T/B5Iid4sodx+i6dkPjo9MxDHR6Zs9jeLoeoVTo08YwOz1vxzhg0+lVPOwAJvU++hKlz/axK7WxMUZeo1jYhsFOa6+qOc3oG44i+gckXdf7/41sbtH5aEdwdlonkIcu68gu4u8fv3z9dHLy/v17WY6if56cfPr65ePv6LcoFzO2Y0B4pUwlkz8eH+5d6i+f3odXugoP5PyPlZN/nWZ3aXz0i9rQOK9SWcC1jDFuG3sUeULR6Mr+Q5bGp/f0CGRXaOzO5uP6CPcfJ2FvbEfIBcIHW/ToF1UYOo1ANwhyGxsfvpzMMPcofjR6Rsv22ymYu9MIdP19KWTwr1EAd59+5apC/iWQdmBDnsJOVb7mgEc+noC5HXhZ3j+lEfRgKa0iEWd03d0ZfPCe6c9OydG3y6AhTz7i70001InAHdOfXRCzwzIb4hGfryEf/0QI7lie3OeXIFGeeKOqaX74I0oO3oVfWSN0+XWI1aUYYUlZ698ndMDDNEZ9GmR2slX77n8ombwPf05k+NUUBF0iMXv2jCK3A39GlOJsQiY4Rc1gu/vDikwbHXn8AwH6KoAcSU1h7tKdy/TJu4OegB0U5HHLZ/fOogzAbUX397DRkxIslVdiGfDKPXvAwuSO5AN8hweu4OziIiB7loGbD7GHsdObNhRdUsugGtIKEzenwQ4MdF12yNqdNTkJewa+PwvYt6hEWZMTsIO36SDsbP18wI4X69aBMd5hT/nydz7kdnKDx97BQPe3O73LcFYbYz/Amt8fwTHeljp7+b67z4vcTuhx0OHTm8M+8xzunFUO56YoTk4LTej6mlVJecrP5l12jDC/DVm5DmlGrwCvENcnX4OTo1wWz+oozHtMcbtnfMnx1nAYSY0jr9qqtVdgc+A21Sj71CVshSc4NnloExtdmnYuwXe4Y5Pjzm62ph3AbnEl38IlDyUxsvi+3Ic81+iOb3MydMk1mb96JeShJG6E75rdpXD64rWQ463d+nI5geWZu5ORk6G7TO4X/HJ3gghHAV2KjTfD8ZvYCG1OjD4+wfHzdGJyUvTxClpunk5OTo4+4u0VbHJZlqOyI/tXDuShdVVVFaIgP7yCO8dDR6wH+2sXlWx2L5utnJ6frcyAlymQh7Y3N9OZTkpRsVdwQ5sWu2EcdMS9Vhk9L8+e7oc9drKpkPf/Aq7THRUzm08Nfswpxswmy/sXbnUC2a2pCTFN8q6Sjyks+NhgvwY+s3kVh+yduw8i6uRIq48SBvyg1iQLBUdoD16VIZV9l2FEI8K5aD2DY/j+ImYLOt5nl4WsTRieETlSG1g+Kw01/ULHu3w1++zgdIydHTly+TLU8P0Rvwcl90VRGTnFIc3bvbUKLThQev3OwPjutxamMhTpWdrc1jaUvRfjYfmMfOX3+1RexjxrcmR34CFkb8cCtDEln/kv+nvo/WC2o93ROizWOXeZZEHkoJNhZ8+Lvc1t7cDyWsWe3kCuLoMK/roH1jxsbgt2+Nx1doirQ4+FT2VONg9BWwW6SxjIrC4DT0Z393nZPAQ8mrDv6toFRDl5H/p1LnjZ3BYoypdhCY1MoYWFoUBmV7ZDFf9RTj6g265JXZCig1gSEuBZrDqpChLkUYh/8I+OU/7BVdeQq3s2QeUEotFmCVJmg2Y3/6eM8PjOXYBaE2UJMK3L/KZoXAEKLpTFkP/iyGiwpzZbkJ7fDgQ96FEuFEoCQnw5dOCXPByleQ0BG62C0H2Th+Xgo28DZrcUAD2M36jESxB0CYD+CgY8DP3v6utKGRLhybvvWQsY4f2jk3Sj8hFsXgdkcyTNqHwEy+YAOfyBaLKZguTwGUhlrBz02Q24coOs14OexAPX65BdGqwOJY4C7dK0Q1nICUSwZ3ZQQ1AsCduRDXaMh23Er4K6GeWVQAc60PGLXUUFOn0JstnBpy+hNVBlQXC3K4BnbvYBO6gcHHK8zlkYJ62g8/XgHkPswMpm1W6dLKxrO6DnbklgBZlTKwrraZRXgrh2XQXWj/VauoG9H/JK8ELdagdaQeXUDO6ByO0q0aDZPQklV5Te/Q3QFgg5HKxNix1wpejL+2eAxVuPXb4KTja/nYY3hLzcQJiFX6cnHwTF8DsdeDfEUAsIRtOPLNO4IJVY1xkFpx5+0O+F1d8X/eXb06VAahTX24s44CMPQUGqqF7M/svCwvzcm6efz0Kwt5Obiynsxp+h+3lgSxiHfM7Wwvz8wtybN9+XsfTnEpYyi4spScXt+RnrZga3gPTIHXzEj6W372IqllC6TtLnNvreHbB5fZgcX2/fEdw6ga+xXmZYeyMdclHo463MkPkNRbhXjD5xVQfA7JRsLgp98jFX395Oy+aC0F2uJPJ7Hw81m4tBd30twN91axTJhaC7Xju35yelo0kuBN39ksmH2ehUyUWgT7mAy8cdVFTJBaAr025RnnUVE12bC7H61BdRvMsMaJPzR59+35z3lUTUybmje77g6nE1On1y3uied0t6XM1DL4cThq7OeB1hirszsDlvdA9H7+nKLaljQs4X3ccrnm6zOxtyruiqn2f99iZCHSNynuhKx9eLEOOZDStyjug+74e3zx9lHuT80FW/5MO3TLAk54YOIB8e8wzJeaGrKdDLL/20jiU5J3TVX4QbqPfOEUtyPugx+LNuu1cyW5vzQXe7Mne2tljk7XzRVQXzbeb/fpt/3ehqB/ux1ufv8yztzhhdUZdIniJ/mmNoeKboipoifIj8kqHhWaIryhLoLTNX/fjGCp4heqyM+WrjqJ5ZjXpm6Gpqk8TLh3W5vMACnhG6Kj2Sj/Vh+Hn6w54JuiotET7GPAn/vzna8PTR1VgqTdPifT2jgEeVnjK6osYW27R8fEK26enR00RXVLWcpj3SR/X8c/nb23k6QY8auhqLdR4n6kRY6PLHd7tUboHU/OToioJGuZpaarO19zj+8pu5l+K/BSy9fRdTcKUiS8diUjmT3uGJ/aLny58/np6Wl5ff4OnPRTxllpYe05s716tEQe3/TQP0DclRUEAAAAAASUVORK5CYII=;labelBackgroundColor=none;fillColor=#182E3E;strokeColor=#FFFFFF;fontColor=#FFFFFF;" parent="1" vertex="1">
          <mxGeometry x="230" y="146.51" width="70" height="56.28" as="geometry" />
        </mxCell>
        <mxCell id="DtwHGzKxlXm_iz9CqARx-41" style="edgeStyle=orthogonalEdgeStyle;rounded=0;orthogonalLoop=1;jettySize=auto;html=1;" parent="1" source="DtwHGzKxlXm_iz9CqARx-37" target="DtwHGzKxlXm_iz9CqARx-40" edge="1">
          <mxGeometry relative="1" as="geometry" />
        </mxCell>
        <mxCell id="DtwHGzKxlXm_iz9CqARx-37" value="" style="shape=image;verticalLabelPosition=bottom;labelBackgroundColor=default;verticalAlign=top;aspect=fixed;imageAspect=0;image=data:image/png,iVBORw0KGgoAAAANSUhEUgAAAOEAAADhCAMAAAAJbSJIAAABC1BMVEX///9dRKv+/v4AAAAAqP5aQKrQ0NAFBQVQMqY+Pj60tLRZP6mJiYnLy8sYGBhbQqpXPKnu7u7n5+dNLqWXl5dbW1umpqbDw8NpaWlTN6fs7OwTExMNDQ2dnZ329vZ0dHR9fX0ArP8Aov7v7fbZ2dlnULDm4/FsV7I1NTVOTk53ZLfCu91KKaSGdr5XV1dvb28oKCje2u2AbruShMTW0ei8tNqsotGhlcu7u7s3Nzc9d9OOf8Lh3u5jS66ajsgAidvNx+NDHqE1gtxAb81KY8NVUbQdl+9KY8I9tf6Fyf5sw/7t+P7X7v6b1f5WvP694/60weaOxvAAkt224P5nseYGER0ABRYbIiwADR3ImRDhAAAOfElEQVR4nO2d+2OiuBbHI5QuihZEq2KnaCvV1ta+q3Y67XZnd+bObrs79+7z/v9/yc2DR1DIoXYGcC7fH3YrQswnJznnJAQGoUKFChUqVKhQoUKFChUqVKhQoUKFChUqVKhQoUKFChUqVKjQ/53sAdEQazCws67MF5Z0cfMwvtcstdFoqCr5r3U/msxuLgZZ1+yL6GI6bqiWoeh6KZCu65qBiUtXx8OsK/g6XT/oqqGUYqVjzIPZddbVXFXDGcbT4/FcKYZ6P13H/npxmQTPNaWlXq6bIa/HDS0hHpOmjo6zrvQLdDFWBYMvrreq9+vCaF+90H6edPVgLfrqTcNYiY/asTHJvc8ZjNWk/iVShpXzrnqzYgcNpKuXOc7ppAlsQEXD6Y3wLEPJ7Wgc3sMjUHn7/u2PP30Qulr9ZJo1SrQeG2CIUIy3e1Q/ik9V77KGidK0AfVQRX/7cW+Dar8kHq/WWMqaZ0mzBsCnK283XD6svbdiKxoHeQsbDyoE+GE/4COI+x+ENteUfCEmANxY0k9CRCVXiDMIsKQvA25sfBBeouj5QZyCgNrHvShEsbvRDvIS+48hJ1NS/hUJuPdejGiMs0ZjegeGiZK2HwWIBVxn5SIu2joY6PXAhPuffv7lk88LxYySmofs5hJO1bSPHt8vT+SSZ5/xI5SoN7LPUWEvg2O9B/grzs6xEPrFRdyD7K8bWXub4QkIWCq9dzvpb5SPMn5yCcUxEcuYZEw4ghdk/Eix/xwQfmZGhFJwrEa2U+IbuI8Go3DPB5SQ5HbTj/fQ5bqaZRI+SLJkob13CT8FhBLyqEFfUzIeMiS8SrDopBj/3o8n3NiwwEZqvMsM8B2YzOBOhqdBvzLE/adgHD7te+51AA5lLbvU5jLBspM2GSL0mxcsfML/+HYd3oGlqI8ZAV4kMGFJfUDYr7huxTMiena9zx72IlcWVIY+yohwksCExh0J8uiZmez3Z3bl8++uBTE8LgcczRkZcZjAhMq9xLKYPxji939+fn76/Of3vgVphjOCmkrJZiQ+JHCk6tDvl3uU8eP3WKyL7v/G6CU0AP2pepEBoA27+ZI1DXyL9PMGP4fa3/gDeV+iG2goGllMo8BaYQ9xj/gQiD7//Glvn2rj0x/cVwjdQxGjkUECPoJNiB2ExItcJj09PT89SSj0DXqEsr8Mbtgk8DPYhFwiymOihYPYiEB7ZeBrprCfsW78gYaksDVdwGAkgsWpqS+8wdMm3Rr4tjqS50uIaFfu+NZ8B3bTm5QBB/C0SZv4FmrLf5WXCf/+S3b8UyDPrKU9Ez6GPSl2Dl717b/l5jJhT/7H9k+BEiRdTZnwDh6GjQEXDM2ocehwvgYeiCkHfRhQt0KxcBkwdBTuFCkPxAEcK7RLBADyX6BraGCnPBDB+uBEaxZ0wZYTyYhQzXOxcJuRBClFJUjZGtcB4T9yddmOCNV78pFvxAMo/KQbEeF5hTHhOqndl/9udlEoFUX1qixXg246A11Nqsvf4PqFrtkhR+OcynJnXvcLqLc7stw3A2Y0gNaW001NwYxGvQ53SszY+68s/7dTbbaa1bO/ZPmfZj3UcUEjGmnepZEUIAMxHpYDPJKc3Q6mxLrtV0y0MDDBCWeq66ZQZXQtMtN2m8f939LXgPtKNVzYgGtXj+MCoCg2SuJNxUqaK24AIa5LLKBAaCo2opIiIRCeF+f2SQmBCUuaubeYcEUTghOMk9wQrmhCcLkmN4TB8oydmNRmhGJfkxtCw1skRV3JdZ2x/tM9se79IcwG0yQU+lI/nUE2TkVtE6trs/X7GEC77l0hnCU2UiQU2tBfyZeQ2SVsmMA06+T/UcZEUt1fABAvSKVJaIsqogarF5Jp2iyJsbtmHWFOsnTt0jBhPjOgHeaGUOQR1HecoXD9bXcR2DSpMbs2PSDZdr1LerDJ+SOhDXUrRUJJ5PIsPmUjxsNUdRsbj956oOPSrFM6fBR/zfdY0ThMd5Ivmj1pk9Bgo/2QmAobjVkNgzHnw1qLQxT60nQX9oXJB7eM6I44icJ165hNYqOSW4OS6sGfmqBzGFdpEgpnq7gqSw7Tl8fCd2T/L+H8KdUZMDCVa1yvmnkD4ztFXQgTSN0YrICIJPHaiJruxiHxspGuDV+MiAYHwoWatPdhAneAFdKlXmjBGTD/TfkeKbQwpp9MoXw7zNc1r4Bt7SlviAaX9Y0HP5sBQWkeYAP319JdEEbQqhGO+3c0m6FBELIfS+3G4kf20szZqKA7mmzYJOigNmkCkp6LNyukv8v0Ebg3E95LI+6jbGMYsAyV+qZ9CdgeTJx7MkKXE1i/U9LfCw3tD17MTiFC8W6MLLZCi9Oa5XszEKG422eyExoI+sF+oWSEwgXvbPbQAnsLSL96AaB4d4eayUMXQEjEzS64P7MIeCycVOt6FoAIupFiTJdvIsYSXk1FryGwMnqEDcpr1JcQioKPnkGoYIKMuDzXjyUUpkip79oLJE60+D1DEKEoKc1qFBIdC2PiC+6yCf1MZg+UEI1FnSu0s00MKBrSGT4UhMheaFE/VZMmbsKk9CTbx/KFzia0vi8kFEyoM3/YWbQdLfFijWB1Mts+SjQUBDKcuIX7KfKedF5cFI+dqOjp72Bf0k38ENJHB6HEDR271R2GD19fHsQ1U+MxUzimu/ihqHOPBZEp4A+N+/Hkclxq/MCvp6JZ7BYrK8snZAMJQoZ2x5Pg0aYrmqboC3fgYnc65uXFGIP4fXyhoM+lZqGEDpVirldKWb9uwJPg6boGtx2f39GocDd+4y4nj6TkRRexDjXYtiCF1j3443ErNI0sHjqM03VcbmMF+6NC2QG3xhG3WJD++qFQFzHv8+R37PPzB27eEX1rW8+VBYneGZEOUS95A3FhJ0nw/GzkdlzFyhsgdjejyLyE3H1nfiY8QSL7YVk+E/Uot3GfHycTSLqM9BjWhLr84WIDGCP6ouvBZcQotC7z98o9qlmkvzHUyWwW8VpTRR0/PFyqy51bb8yyJonVoxU1GHXNiH6pt2JEDV4t0zk9pMHl615BSyYT4zwOQU436uqvEcYyGtmtqyXVYAK/vy1OSuMu5wZkuh6t8DpvwqeO8hcEY3R88HJGRT3I+WugwzoeRYQBgdbsrfNU15MTK6EhFaOxdv9yANVgOlLhF6Aolnqwlv/6A9NwOjoh/0BJNJyuGOrJeJrdq7y+jAaPs7GlWpah6eRd5UyKZlhWQxnPHvOyTvFK2ReP04fJ6OC+ZBFppdHlw/RxmNP0ulChbDU/LEfrvA5fvBaqyHEqCPOgebXahs5prTOhjavZhE7abHrqUy7/Y3MNAvNmEsJADgH87utV5yuo8jLCTUq4VklH9ZsnPP3mCbdeTWhWqv1+tRL4nG67ViOf7NZ2uYf9tIM/01fr7J6W+5vsHLtS7W33Fr242epvd/pNJzhSb9fa5BU9qNIpn83x77fb7XnwU20i+let1jZpwXNcm+YmVwJ1je77Qlch3DzyAse26R4iQ7vsnirLCBH/28dhiX48pxed+uGmElVUuUWF617Dn7Yw+o4bm+gppn+J+wvuX/h40y1hp0aPNk/PudC2swphjw+OrYBQ9gC/Y0P91AWUt3Ezd/iLql5R1aVg22OEsmTKXmtthwl3WAO4hO3u1kJlDkPlna9A6NrizTmPSAklzxys6od19/MZCzic5qyoXdYgnU5Qy6pL2HWLfwMQnoXKdZYIV7Ahjf9btKPVbr1SGeG2W2qHEe54n6us0nJv7jiVc9cyWF1aMB0/Dj18VG1JLqFn8zJASMzUckyn6p2NnFaFfuhUSK/nRkRCQvrh0MMtk2r5hFgVW7Id2+9+523yGZ+NK7zdZdfQYUV/uMlVneRZ8i79s+aW1exKklMHCd0uz7qJGZSwm4QtgjA87E3vk0vop6yM8DAoZO6Erul47bPtHe57jeUR+heICeehn2Rjpk0baDVCWr1e8N2R21iMMAgEVTlcLV6kQ557f/j1cL2xTxh0LyFhkE1uBgZ9DSGdcXCRp+maoSL7FQwIeyhSpFWoAyA+oe8d3Q3bkPOBYhv6x6lfO3s1IY0Uuy1PlY4LVgm6SEC4GV0eIXxDijvjSY583NpC/V5C2Hk1YVle1uELCE2n1r71CNvcRTR01gJCzk+kS8inC55uExLWqkH7UELmtnqObZv0/COUA0IaTqsh9Z0khFJzh28VRmhv8ce27DwQnoYKDQQRzj2K8tHZuU+IJC6ZO/WS62wJaUbjLJ8DELJg0mtTiE5A6OAx+R35aqcfFJot4SJJMkKasBx6Ntr2CR2KInW7oTlOtoQ0lbx9KWErVMeAkHjV5QncIuFZuN98ZUIuq3wBIYmiQZLvE9I6VZcQFwl3Q59pVhWV03wpQjYF9Ove7ZybyQh9Y9FTKaHNXMz5aa9fbVZq3RjC2vLvJyGMyahAQsS8X5VyOaTqWxJI2OTalM2fWS9dyB/OubkFPzOgX96Sfmq6s2+AkM2e2zhElVdYxZC8Gea5F8zaICGb2XQq7Yq3PsAI6+HZKi7TjiL0lt/fsHNkcByi0Iz6pYRIWmh5On0BogW/htHpBoQ9eUHbUYToiDujModtyN90iZ7fRBDyPm83VN+gSEHE3/YvaLEWJsWRuh7ZqG46m/MWu3dAZpgR81e/hc43WYfwCaNtGCwA9ZN0U7PXx+LPlCo90ld2ziqed9jE5/S4dcIK+cw3X40ynrZIN9w86/Uk1ne5OTJrhU0yusNlETl98oMd2l92cW3owR6Rf4rd6fXO/IZxOvTnkljwy2nxjg7ponzccRbsvv66lbk1COTmrmtwYyu5iP/glgXozKwTe/Y6igaBMpv1Iru1ldTzrZHc6fTR6fa2Gxjn8EVrpfriisE35WaYQpsFmmt1Ay+xNnd7R2U88d/9Bu1XqFChQoUKFSpUqFChQoUKFSpUqFChQoUKfT39D5oyVd3SXSH1AAAAAElFTkSuQmCC;" parent="1" vertex="1">
          <mxGeometry x="365" y="70" width="120" height="120" as="geometry" />
        </mxCell>
        <mxCell id="DtwHGzKxlXm_iz9CqARx-40" value="" style="shape=image;verticalLabelPosition=bottom;labelBackgroundColor=default;verticalAlign=top;aspect=fixed;imageAspect=0;image=data:image/png,iVBORw0KGgoAAAANSUhEUgAAANQAAADuCAMAAAB24dnhAAAAk1BMVEX///+BPPN9NPOpgfazkvd+NfN5KfKmffbdz/yAOvN/OPN1HvJ2IfJ7L/N3JPJ6LPK+ofjl2vzOufry7P738/6RWfSMUPT7+f+FQ/Oshvfs4/3Bpvn18P7i1vyhdfa3l/iXY/XZyfvUwvq6nPjPu/rj2PyKTfTt5f3KtPqkefaPVvSZaPWdbfWxjffFrPnWxftuAPJGPyyqAAAG00lEQVR4nO2diVbbMBBFrdAEDHFCWEpKoZSdsJX//7pKiXBsR5a1j0ZH7wNS3XO4lWyNZ4qPiyK9jCaf0EtwH0Lmy1voRbgOIaSc/X2GXobbEJbx0a+k1CKbpKUW+U5KatVQTK1L6NU4CmnkMBW1SCuJqEU6SUKtLlQSau1ApaCWAIqqNfsNvS6rCKGoWuQf9Mos0gOFW60+KNRq9UMhVksGxdRCuWvJoaha5wjVGoBiau2hU2sQCqNaClD4di0lKGxqqUEhU0sVCpVa6lCI1NKBQqOWFtRarTPoJQ9HEwqHWtpQVK3yDnrVAzGAYmotoNctjQlU9GqZQVG1psfQS++PKRQhVbxqmUNFrJYFFFNrP0q1rKDYrhWjWpZQVK3D+NSyhiLl1wE0RDf2UGSSLFREf4OnzqBW1QM0DM/91BnU3mjyGsOu9TCuiEMoumutroCRFq+TkjiFYgfCe0ikq9XRIVuQWyi6a43h1LqfbtbgHIqUUGoxmYgnKHYg/BNercefTCZ/UABqXf2ZHjYW5AWKqjUKqdbNtPWP+4Kiav18DIR0Mqo6C/IFRdWaBlHruimTdyiq1pF3tU7bMgWAYmqdeGW6mY5FC/IL5Vetk6orUxiotVqnXpCun3ZlCgVFyHh64x7p9F0kUzgoH2r9OBLKFBKKqXXtEOmlT6agUE53rYN+mQJDsYJ+J2pJZQoO5UYtuUwAUPZqvczlMvEEhbJU62A5JBNPYCiLXev5baqGBABF1aoM1Lr4UJGJBwDKRK1PNZl4IKC0D4QHy7nqX946MFBau9bz20wLCQ6KqfWigqQlEw8cFFXraVitz4n274JCMbXe5WrdLucmCwKFYmr9kMj0V1cmHmAoiVoXv/Rl4ikGj7zDsYLqU8tIJp7iVfE8JYkdlFCtW2IkE4/yyVcSWyh2IGypdWkqEw/7DaVnFEnsoVpqUZksnVj/jMrTpCQuoJham8qF3zPLX+JQKs/9kjiBYvdarCJoNbP9nRpq+A2NJI6gyIiJtW+nwjoNPY3VihnKWK2ooaTvpyWJHMpMreihqFriOx9JEED13M5JggFKWy0cUJJLOlGwQBXFjfquhQdKQy1EUOISBVFQQamqhQyqt1KhFXRQ3QItUfBBKaiFEUpUp9UKTqiBXQsrlFQttFAytRBDFcVDj1qooRqV360gh6JqCV40YocqisWuWvihBGqlALWjVhpQxdWquWslAvX9odImyUA1v4JJCGqrVlJQxdnmy7K0oLhaqUEVxd24Sg+KqvWVIFRxepkg1DoRQZXOoBxcQDuCmj85gyqOhc9awaFGM6ctt8/2LYs6HEB5aDO7OLcqdLKG8tQQ+O7QotDJFsp9p75jPkXj2LwKxw7KR+O3/S8+oMZcLRsoP33E9kbVhBeCLc7NKtvMoXw1U6Sbbzlf8hY2d6WJWsZQc+Kpw8z6RFHO3r7VMti1DKE8tnrjx6TxkblaRlBeO4fVZ7/qe4qGtloGUJ5bemwPtMZq6UP5bhnWPKU31NLZtXSh/PfyaD96GKmlBxWioVH3eWqkr5YOVJj+OLsPifWAGtUDoQZUoHYrgiff7Vg1NbWUocahGuMIH+frsWpKailCBeqz0gulp5YSlOPeAkZQTbXKgY9SVKCMvqd1D9VUS34gHIZy1FTAAZSyWkNQg1/7BYVSVEsOVX/hEg1US62+XUsKVc2VvqANC9V41dO3a0mgpB9kAkI1Xsr1qNULVQaXSR2KqcXf+AjV6oEqJ8vgMulAydUSQ4HIpAclU0sEVT/DRA0lUWsXavu0GTtUr1o7UHMwmXj0Lt3q197NA2EHKoI5qJo3iSK1WlBRzP7Tvh6tZz/VajWgIpnSaHDnW99TXG7U2kLFMqrW6CK7rdY3VDzTeMxu57fXFVStDVQVg0w8piUH9cXS2d4Xg3qPacKVeR1F/de2YP+Fx9BIvo5NcUi0Y9WsKl5iHatmWcYT5+wn69qkGAfUOCi4mn1AQ3TjqoosqmSoDAWYDJWhAJOhMhRgMlSGAkyGylCAyVAZCjAZKkMBJkNlKMBkqAwFmAyVoQCToTIUYDIUFqjVJEGoC9uRJzFCWY88iRPKcuRJrFBWI0/ihbJSK1ooG7UihjJXK2ooU7UihzKbJhQ9lIla8UMZqIUBSlstHFCaamGB0pomhAZKZ5oQIih1tVBBqY08QQelphY2KCW18EEpqIURanBQF06oAbWQQsmnCaGFkg3qQgzVv2uhhuqbJoQbqkct7FDCQV34oZhaoiYb2NNVKwmorlqJQLXVSgaqqVZCUNtBXSlBFcXjRq20oLhaqUGtpwmlB0XV+koPiu5arvok/Qd4kKSph2B9ugAAAABJRU5ErkJggg==;" parent="1" vertex="1">
          <mxGeometry x="389" y="220" width="71.26" height="80" as="geometry" />
        </mxCell>
        <mxCell id="DtwHGzKxlXm_iz9CqARx-42" style="edgeStyle=orthogonalEdgeStyle;rounded=0;orthogonalLoop=1;jettySize=auto;html=1;entryX=0.995;entryY=0.48;entryDx=0;entryDy=0;entryPerimeter=0;" parent="1" source="DtwHGzKxlXm_iz9CqARx-40" target="DtwHGzKxlXm_iz9CqARx-5" edge="1">
          <mxGeometry relative="1" as="geometry" />
        </mxCell>
        <mxCell id="DtwHGzKxlXm_iz9CqARx-43" style="edgeStyle=orthogonalEdgeStyle;rounded=0;orthogonalLoop=1;jettySize=auto;html=1;entryX=0;entryY=0.48;entryDx=0;entryDy=0;entryPerimeter=0;" parent="1" source="DtwHGzKxlXm_iz9CqARx-40" target="DtwHGzKxlXm_iz9CqARx-6" edge="1">
          <mxGeometry relative="1" as="geometry" />
        </mxCell>
        <mxCell id="DtwHGzKxlXm_iz9CqARx-46" value="" style="shape=image;verticalLabelPosition=bottom;labelBackgroundColor=default;verticalAlign=top;aspect=fixed;imageAspect=0;image=data:image/png,iVBORw0KGgoAAAANSUhEUgAAAOEAAADhCAMAAAAJbSJIAAAAYFBMVEUAidb///8Ah9UAhtUAgtQAftM1l9oAgdQAhNV6tOTI3/N0suPd7Pirz+3D3fK11O/4/P7w9/yJvOdiqeCcx+o0ltrl8PrV5/ZNoN0jkdlpq+Gky+yPwOi92PDs9PtWpN4Gzlh4AAAMMklEQVR4nOWd63aqMBCFyU2iVVGUVq227/+WJ4gIQhJymUE43b+6Ts+yfJJkJjvJJCHo2q9X2TH/OJwWxTkpdS4Wp8NHfsxW6z3+n08wP3x9u14KLlIuJWNUKalU/siYlDwVvLhcb2vMh8Ai/MzyRarQGEvsUqQ8TRd59on0JBiEn5sLFZzRAba2KOOCXjYYlOCE22UipBddQylFstxCPxAo4S47pH7vTvMu00O2g3woQMLbQTXNCLpaqsEebnCPBUX4tZQgeDWkXH4BPRkM4aYQcHgPSFFsQJ4NgPAnV0EBmO/OKHn+MwHC9QX89bUgxSU6G4gk/Doh8lWMp8gOGUW4xuaDYIwg/Pwdga9i/I1IdoIJd8uR+CrGZXAWEEr4DRj9XCTl96iEX2cek5uFiPJzWHcMIvwYsYE2YuJjJMIbk2/gKyVZwMzDn/Agxm6gjai4oBOuBiftuGJ0hUuYv/EFVqIiRyTcF+/qgW3Jwsuh8yHcjh4i9KLcZ8DxILy+vYXWouKKQfibvhuspfQXnHB/fu8Y2hU7u3ZGR8K1nEoLrUWl49zYjXA7mS7YiAq38caJcCPejaOVcLKqXAiP0wRUiEcYwutUARWiQ9QYJsynFCW6SodTuEHCSQO6IA4RXqcNqBCHGuoA4WQHmUZDw42dcKJh4lUDQcNKuJ0DoEK0hn4b4XoegArRlsBZCPeTy0VNotKShlsIz3MBVIjnEMLfaU2X7GLm+aKRcPKB8FXmsGginMkw2sg4oBoI9xMxndxFuWG0MRAWcwNUiIUPYT4FX9RXUp+EawlXc+uElYTW8NcSRm3cep8ocyU8zCkStsUOboS3ebbRUrqQoSGcaRstpWunfcKPOY6jtWR/IbxH+DXfNlpK9LYz9AjHWp9A6gqsN8voEn5znL/cEWUXJETe3XfTIdyNk4+y5AcrL6R8ZyVcjtJG5YKs0CZnbGkj/BxlmElVYF7gtRXxaSEcZV5fLjZgjtid+f4L4RjmGhU37K/y1Xp7ITyNsB+WrZuvkuI0VXYyEY4Q7B97YS73r5L+nnAQX8J+mxD/FaZV8v9TfZU8QxrZXl5iixC/F9Ybth4xKVVJMM6X2u6JLcIL8iukIqv+0K6Khezy/BFa7KIj/EF+hVTWveNazV7S0nQ44mSJ4kdDmCMfnGi2+FTrIY+5HE4KznINIW7KzZvO/y3bD4FkPfM+4QZ14tveFPp4a/VogDOCy02PsEBspLS9TJtVjeW5XIQTMVjRJcSM9s0YU+qxaCefy+9LlNbzjPo1IeK0iZ3bZ+y2j/ggngPPDmUl9jmJqgnxeiF/yRLraRNt/SuOryBfCW9oI6l4nZDWvYFn/YYLK357IcSyuano2Cb1tClt/yPKOkltgFeEO6RxhqadxZI692WvJ0NQpoti1yLMcBopS7rneOvct0OOkjE+OkKC2EjlosNH9g+SnvuOsWD5aKYVIUqGn/Yd9jr3Zb3FTIzFkrQh3GI0Us2Ouudcqb+JKUP4kquDJ3dChHBPU81C12PapN3gg+AQV0H/Tgg/g2GJ7mxynbxIzYZJhLSRJjUhfO4rF7qDyd/1cCJ0G0MQRru7N1wSgk+cUv05yLqp0JPut3v4l3ifQpWE0AaNYQf9M+i+ZGyNruAR455XlITAxqwwFJd5rkym+t/DDweUVoTA3ZAZjuo+V5tM/4HcwCNG2RET8JQtNewve642dXNVzX+BUtkfEmiTTRq2QT6jwb3p6AXuSZe5UwL8zVHTds7n9KGfsTWCtsDp4k4I2vpTwzDTdHbbtnNwCzwtCdeQn0p704nu2+lvlmgL2gJP14oQ1MAwvaAmnOsytpaAIwa/KULIQMtMtTma0UybsTXawrZTNe4loBlNaqiT0/QvfcbWEqwFrmJvAml2c1MLbNqJIWNrBJt/sEIRwnVD87mOZgZvytgawVrgnCSAKb1+FzJpTZvMHbURrAUu9glcsGDGLtYMkOaMrfV9QA7u6TpZgX2eMJUcazwYS8bWEqQFzldJBtXs5dL4xM+xzJaxNYK0wGWWHIEIqTRVVGtt0rMeFGwEaIHLYwI1s0iNZ1WbzN6esTUCtMBZngCl8+aHb5lozlXl4Cxw9pEcYLq1MVK0m5xpctwXmAVODwnM1jLzCcd2jsKd63SBWeD0lMDMf4WxWOxLL0ida1hCWeB0kYB8lOHYGOm6oCxxLWEJZYHTIjlDfIw5kHeGamaaIfcEZYFD8KnGZ5ww9GwJ6VoWEMECD5fp9KZSP59IXarmlIK3wMPVP4nzlGbUN1niPWEdq/GX0cMmZKNL6x1TNwQLPFSWOK59DZQ6DqhARm70WGMyuYkxbjNzv30RiAV+jo6HRpObmM/BSd1pVo0AcmYVD2ObgsnkJsRytmmw9FElAAtc5TSReanR5FayfLQYstwqxU9eVV4aObewDIzWxMsSYdqKjhhqbhHX1m3emXWmbi2a0yh6F7iaH8bN8bvHGVsasHZtRXNairXA1Rw/qqkbTW4yPBBaiua4f0+Dkscor832HoYzZ+5kvEVa4DKL8kvN1oWT1eJUnTPSAuerGM/bbHI7hjKnATXOAk/XMesWRpObOEYyyl1uyomywMU+Yu3JbHITV7PMaUCNssB5xPohlZan0k6bNLI19KciLPD7+mHoGjC3jRPOuYimVEdPERb4fQ040C2wOvQek9fUwQcPt8Dv6/iBezFskcLL7bR+0EPBFvh9L0ZYuLBmJF4lIaiDTbwJDWnqs0P3RJlNbmKdNmnkYhOHztPT4H1tZpOb+PvVDjZxoAX+2NcWMLvQ1w2r5W1XO9jEYRb4Y29iwP5Ss8lNgqYDwzZxWOr12F/q/0QWk5uE+UfDNnFQUHvsEfbf523NmMO+7WGbOGA3er3P2zursZjcJDQ8UzY0oAZY4M+9+r7nLayL1aEO4LBN7D/mP89beHZE+w7RYFdEDrka/hb488yMp2fHljaF+H+USS5kMXTniO8Q1px78j27xmzyA6T3e8fPl+PWYS7s2wFaZ9dQzh8OScGlIvm9Zu63xXr2gNb5Q5wzpEZVjfK03Hz5Xr3p1wVaZ0hHq8l6b5RCNcpV2FXGXrvAX84BI53lbqtulLeoK4x9Zi0vZ7mxzuPfFd4o+/IJbC/n8ZGaqddI6SZ3C/y1pgJ8XYyAkdJJ7sU5O3UxAGubQDZKjZwt8E5tE8AD6wvF5nXJpKccDY1efRqwnXKL0+m0wJSjyd+rMQR2dIaiy+0xenWikGt9jS5NrS/kem1jS1OvDbvm3rjS1tzDrps4qrR1E9FrX44ofe3L+VzRNSxD/dIxygiPI1MN2rlfGtDIWEf4f3mJ5lrQ/8tLfLXk31CTHVu2muwj1dVHlrWu/kh3I6DKfjcCUi3RMTV0v8VYd5TgaeiOkvHumUHS8D0zc48YDncF/f/3Pf2BO7v+wL1rM747T7fBQHtqCel2FGzpD+v+0Tss//97SP/AXbJ/4D7g//9O5z9wL/fM5vshd6sj3ViAI9vJFAvhfjazYetxTQvhfExw6+ZUG+FcBlTjMDpMSDZzQBw4xmgnJMfpI2puKPAhnH5YHCxeMERI8mkjpoOHiQcJp404DOhASK7T7YuGCv6+hNMdboYGGWfCqQYNp9PuboQq9E8vgaP2QO9JSNaTy1GpdNzX6UhI9hNbz2hd+glEqOaLU4oaqVPZEE9CFTWm0lKpS5QIICTbidhTlLuNMf6EZF9MwUd93O2NQqhSuLe3VCqcytoEE5IVe++YyqhzHdtAQkIOb3yNVLgWB40hJFv2rt4omc8QE05IyId4R1NlwqEOChAh+TqPHjgoP7sVsYMhLPfdjPsaWW+fDDYh2S1HbKpMLIOPGAUTEvL5OxIjE7/OdcBBCdWc6jQCIxOnsA4IQaiGHGzGWL5oQvUeL4iMTFyizy9GExLyk3OJAUklzwHOngIQKm0K8BfJROFkNA0KhlB1yKUEjJCMy2Vk93sKilDpdhAgkIyLg2vddgcBEqosIDukPGprI2U8PWSgB4hBCUttl4mQQZSUSZEsA2YPdoETKn1uLlT4vUv17gS9bCJSF6MwCEt9ZvkiTVUYGeqZ7F6VYJFnGHSlsAjvWt+ul4ILBapIW4eUyx8VWVkFhBeX6w0L7i5Uwkr79So75h+H06Korik4F4vT4SM/Zqs15sH9h/4BUmCWbxS50iwAAAAASUVORK5CYII=;" parent="1" vertex="1">
          <mxGeometry x="760" y="146.51" width="57.5" height="57.5" as="geometry" />
        </mxCell>
        <mxCell id="DtwHGzKxlXm_iz9CqARx-47" value="" style="rounded=1;whiteSpace=wrap;html=1;" parent="1" vertex="1">
          <mxGeometry x="200.63" y="325" width="89.37" height="50" as="geometry" />
        </mxCell>
        <mxCell id="DtwHGzKxlXm_iz9CqARx-48" value="" style="rounded=1;whiteSpace=wrap;html=1;" parent="1" vertex="1">
          <mxGeometry x="18.000000000000004" y="325" width="94.62" height="50" as="geometry" />
        </mxCell>
        <mxCell id="DtwHGzKxlXm_iz9CqARx-53" value="" style="shape=image;imageAspect=0;aspect=fixed;verticalLabelPosition=bottom;verticalAlign=top;image=data:image/png,iVBORw0KGgoAAAANSUhEUgAAAOEAAADhCAMAAAAJbSJIAAAAvVBMVEX///8zZ5EAAAAuZI8jX4wqYo4oYY0fXYsbW4ogXovr6+v8/Pz5+fnx8fGKioobXIrw9PdoaGjJycnPz8/a2tqVlZXj4+OkpKRbW1uzs7MPDw8qKio8PDz09PR7e3tsbGzj6e9QUFC4yNYXFxefn5+9vb2EhIQzMzPJ1eBmiqmrvc5SUlKXrsNHR0eXl5cdHR3X4OhQep5+m7UwMDBehKW0xNOgtciLpbw/cJh0k6+EoLnE0d1TfaBghqYAUYPh+NiFAAAas0lEQVR4nNVdaVvqPBOG05W1CMguVBQFREFEFtH3//+stzQzadKmbVL0Ee8v5+LYJdPMnskkl7s4lMrFerddHT0N+ne9Xu9f767/9nxVve/Wi+XfHtvZqLQm1au3f/EYDF/qxf9iJKVSKcttlWZ90r6uPjwMH6ov3pzUG61gVir16tMygbgAzw/1H5rM5qQ97AyWd73Ta3q95ePtqNqeNG5k7i1Oqs93ouHeDa7uJ83G9aMUcRSdrtRrpXHTao8Svq/HO5MEGalMhmrDl8PV5LtmstgdCb9+CP2rakMgIpVu5zxCevF/Wl5/h0xOVAbYe67WOe5pDhMGGIu7zklzNiuVyo0H759Kc9J9GT4LLr1qnkde5TrD+B7v8a1N5elbdu4nrfjx3NTbnTA/dc6gsVgVDaLXfxwMngeDt2X89NwNvalsRehbPneG3ux0J5Nu++Vh1Hnus3/1VGQCcQGa3RCVVxl5tRSev7urh3a91SrelEsne1GuFFutRvd62BHqoGWIvqvreqsSfsdNsdl98C8cTVSGWZmMuIdfZ9E5dW7cdw+TSqwJLJUb7Yckbd+7biTZz3Izg1Ysd9k3Lhuq99+w32hwL8k9V/0wbSfyhmcqg/gXXjGvGap9pCYzgQ8qA2x1RzyV/XYWy1yquavxfLH7WK8P6/XHbjE/rtya4HWMoe2rTGOX4fCI7KSh3GT8k64y+7nT94+v171pF3TdNHyYpq5btrl/PWynYTJbzDzeS78kUKEPGV2jYtt3n6sC6autVtPpdCWckhOmn/+zDC0vgqaZBXO/PvJPbQzocK8kvWUqgrdh8au5U491DrOvzWYzO6x32/nRrcXMUus6dHttNf/Y5G3b8WF7yG/W22OU0tXMMoQUEjINx5qNuZvalMRHKYVMCWxz/+2OT+NzPNbRDM2DoRk+82ivX+vtyk15qDuf5R09PDfeIwrOfrZdhahcbex4Ek/3Wfn1irm+9UTVmoTSGIqudRefhmXG8Y6hW9p+Np/G8sh4YxTEN59g6IX8gZ+V3DhvJtKYN6zPMXP9C53GVH2DMnjLMN/x1dbjB4h0evP5uV1FqSxvNSvt7rxWsGf8F9olfBNyi7NnaGxQEuvJBKIWvQr+633vpA4QX6o7xmHusg8szfOW5M12fsHeunrV0+5wPgNerTxLkdiMEDh9laYPXlswX4/MMCXp82FqrHiVdsnS6L9sTbm7RO1GAqOWwJA90f9Yp/GKAPoXZbdFOn+GaNQPzDweY0SfvSEffE5q/uPVzQO5YIC/3X2KvAvfucHba58qEwgw7F2gdGqfaZyaz9trqjJQifTijAZKK/59mv4Jo9D2OMBVPsGsJcDMzwOuWqdyat7c02nHcOgxhsI3XlLHqQpUBANfN43xTCTgfNEx57bpJGoa5VTgwn8jIYHgGgzh5zH90QLY+LJjBgkOxqwH0/iezuqaQy9Hf0Xko5ZJyN4Hrl5lIlDf4QxmEEEWzoFKo4yw2Au8GgNvgba5J3+ZkF+1fZYp0F5BjbpZRJiDuaeGQ4nEG7AHtxECb5bcH2YZtGg+X4BRlTN9Hx6a/k5JlNAIBSSxFWf4u5y1nDtZBmUijx7SlbwEbHycN4sSV2/h4kmMPh2wU1jLJITavnzO94nCWuPoZNSejW7qk1ASG9wUrjPxqANs5Z6pZQJYMxzfXIJEc8XR8sBTSDyePvmxysRk2is86zObpRdB/8IBLiSMBjobxAnv83EOIRuC3kOmITpTcreEAZOHSZ1cCdnWD+TStoBN66y/5mZShBr4o9nsTOqoc6VXCZvh+pe2BFafMGmH/NhmYlILvJnFt+jRAAVUNxLijQ7HW9R1I//VJT8yGnuYwkxKKgkOWrqjhIomV5JQccAIIkS+JDk2zeavgSLdffMUenDQDKQ/G9gUBJHJ9bbZuHCXaRYM8sHK36lmENpKVhRBVOrsjPkYsQYk0yDMj3NkOAXUlUgNB8wty5OB41YaMP/hZoua3DNkOBUmmsVFIflCg6ilG874eaiwtiKTOUM9c0wZQVbYGACm8KkBThAh6JpSCG4O+bHOYu5N0HeHH5nCfJA6SIk7tU+WwmpI0XSkvpIYFhlA7fv8tRAMGHqKy4y8FKawysxpLcv78dO9/xCTeihAcFRLnACkkCz0DymFHcbeZ/K6dWDS2Y/NIWWT3DbpKyKFvRCFSyZyOmZRNBDb137CGCLQ780lTSLPpQGFrAewzWLvwV6Nf45J84FrM05w3ngKaYRYJr/JKD8yMJoGOjpb1CX9FrT7CboQJzqkaYgH0CP3Z9H3mN38KVMBQGWTYLFj7GGD9Uq/MgzTJmK4+kkx9EEmoRTvOIFPUyIUviCFJDlFklAycWYENnnO/Cd8UhaosuOdX/A8WiGvrcsY/CyZTrSGP+bQUFhkEuMdC5AXcNImPIUkIq7t1d+LLtvPeN0sdJDEjziFD9ETpEzpUmmbMR5ZXJoCUePZ0jtK0PIkCo2NoqwVM2d0mfBsCiFymn5THjgJ8DFjDYZD8okPoRj/XAqNcor8fx+Mr2SlZpE/Eze0XxZSmEHRgB+RKeySe4NhmoWCZVkFHfjFFfMLDoVE9LQc4dw51CCjuWE/zqmOSLcsPVIHpfx008rvZ7vt+/h4HL/Pd4RNS5/Cx2KIv2R0Z4RCdV0KK07MnUbB2X+tF/P39/li/ZV3sk+u5ux3kXrEE8TpMjAWzXCIf6a1gMfWwO027f36na3Hqx3XGWnUnM0xppRM7OQXiLEIm8NzLT7YIF+Da1Z+t4qOp3awMzCruZ+KyTu9TSiINvmwsJwdrFsQ+/hMfogZPAmOi1/VNGZxY5qqf7nCIaFcVGiatD35I0mO3gUJYZI/hcUo9TAdkkRz2/xw44dUU3V4C7v4h8UE6qjzntlQ4oQmGx9m0PmENXbrmKpfJFFtFvU1e3PJDVUWCykEzxySo0z1IUTApOJZeekI1yUjtcK1lQfmf12Vb0eXW70Hj9d7z/IUPHjWx57GUwgrmKBousxYWMFUzkTQChOWuONuo9l+sfP+g2oelejKxrvcD90yDcNEuwp/EEbBGqdo2BLFPkOzchiLsVNA3vtMc2gJjGYGxT/yomjguuhY0zVH26x360+iW8CpEbmIOJIRK3UEZLmNLJkqRwg0B0awOuQLBtBmOY6lG3kd19fH0l/PgSl8dzybOCVjXREKybNEwmTA6hBJlvbZUVUZk5+QIoihcMY8afpqo7QZ+62nGo7bL800UKiki41hNjyGMoMKNzJvRCZEChHsfZFMYZUZFrhtb+THRpFCI6BwugkMu0ZLDNydbkHkKrs0iaVHM4PROL4hw98iowZmqxv2aHKhlRnVdCKlkHdcCkHt7knFEN6SDSHBTfIX+qgN8he5weSJPG+098NQcHgCGBCyZPquaC6QS48aN0HmlnkBFhOVJfkDnYjCScyBF1b+l0c3X3ATTvwdy5GAcp+ZV9W6SdQ0EfkNdFlNQ904kySRTJwvbMb+6D2pBhVD4OaL4kOwhpBnCzL6PkhMTJJvqjVtqBXCfGMG8rk2MF8tJ4h4NVEJXgS12RgmR4aI3W0y2d2ovc8h64Kbo6pLX2McWnNGZqJ0WvIDJS+3/KbtSzxbaHRMBeDfqChpkOCATQmhYnaiTB/VOIkOJ245wDAXK3e19T8/6g4pEUAKBR4CmFYBLwD/3vTZSIkCVi4I3aqrT/BSkQ42HdshXxucYrkAGz9aVGGiSAhmAZwdcWFirthjPDnlaoPYz8oAbYpk+FmLYQuMj6JuCdIOey4iFcKDc1QN+XhpQUkuZtBKj8SynegQcU2DUNKLbA0dMX6banZed2WY2y4riACkrqN6CaysYBLgFnDZOmECQdU8q3xnClBvKQlhiHrkRKBAHIRo8h5y3tE/oHK6F9qKHC0Ey7TQDSKeEv3h2KQ8JnBPSpE/WHHmEB2agcBl83HDBsGKCxCOFIXAX3KBPtq2iI0FCqNhGNRKgP85yEVxx4SIinlvJyHqDgDpaEl/AqL1COfrcQKaZ6VNuCdoyKoatYyiHftWbsxx7qv4mWSuIgmHOAqRSZ/ZGIIHIf6O/FDLt0lSCLGNXPgJuj+y5h5HIYwBvO6wQ+OjyUqoWvGWnBxicC5pECHQDbsRYBPC6TK8HJj0JSdAiQ2MV0rKVE6Xop8iGWDDQ8Oq1xLnEnH1O4FJcSsNJDfkyctLUwhRrWQ+Fkt0QmILDnxY25tuKpOiP5clvJDzaXDPjmTSFN3MkDbFAJi3+JhmAJ+UbwZBATb/RmUY8Hy5ydGVKMTvFvLPQAOV+f/FnNAyztz7KLI+uXjtKg4ysUWgBiWTJJjn4TUTWlX+M0Gw1YjzSQFESmHdVCVXkxAfiiiU1NOoHvndHxiEceKJxvCK1ZYCEJsPGxAV1ti0V7mSP8U5RLXJux80AmbHB6oOPM9/cQTCOiksKypUjuBL00w5Uij7ZEzPcZOuCRgGBxDaix5Fi3W+FXZyayLGEUBNl3rQYdWOe7DAYXVAzwxYAoRYMv5AWZpA+q3T+BrsoTx3oBnn7gCOZCYWI8NGojH0MWI1kXwULFbgAsipXAZQ4FRmKYyafPwQV3Gxb4AuZxGltalF4vH0zUSqny5fAL9mwXwUgcknXw6sXS+pNxlnEV1pZooNu3lgbKEQmdEtjcxYMCtJiTbBQr6k6ZkTeoxFlF9GlLRzaMmk6csHlYjMvsPIygy8Hlbqk/RMDmsWYdFGuu5ei1+UZYEfX6lcAewAk3SAhGkZA0f8cCBiovQFgwkriPIVC3JVKpZKJgrhRPYWYwYHmR03kD+m+DMEFfaqmvRQyM1pXhCoebWEOpXE4H9gWmFLAV4ApmKZ1nTvlhVW2cIJyeyECbOhmKkESZzjhwmtcuMkQ8+W1M6JJL5akh+yWVM5CoVFqOlADZwL/gOSIQZLb1PCVPhoZHLcuI8aB8hiKxd3wn25d4cnmVAIwo1L98mm4oTKkp1r2UHEl38wsKBUQXWTMc4ZCg1S6H9Q/GNRylT4uGIjKMmcUVzylgMqdfWd8BY4NlBewGkacKdwCmNDXwbcPgWZFgZ5anKTrQs6YFn2HEG5CckdseuQOJ8V+SnECArshdxo2BLhtGHGlNgnAhcGSf4b0hh+SIUbEmF3xVNOBm+sxMpl3HAESVyK6ZVMXUGgyIHscUbXiJlClEK5PsLQtI4IsFxKBfkmKWiAVHW2dg0YgPp7cEF7npgBM2xVlSnkmylJlilCYiGh8BDVQ7aeIvT7nDgAlmO9l+FSD05hSt9SCnI1VDLIRTqwupYgtigwinUsCMyTeG/AtJdHLGaqwu0s0wCKl/yQy6lgMi92yxwKjJu1dQ11wE0U6I2GZKtOIaa+ieKVq8pAuxsbNqCpyNy6Bp0zVwPFXbZoq5GR4hTmbkgYDCs0cuYLljPjQ0oiqJm6NcAbYBLXGvmYUwdD+6bqFKJbAys0ctka3DIXk6rBGph59t36lM9BINamASYEgopol8R4TDg2lctHYWH9Vng55hnO2USLgS7RM2UTi47rSraQoMKxqVx2n5Z6bwSXo6nI1g8VYHyxY3x3cAcELIle5VRA5v2RPEKyuh41t5uPzhOudarWj4vf4OMT5RKbc6udL8Gzqdz76a6SVbTVKDhd2ZozBW9gdnUcbeQZIDA9LuRQ4u6SLMug3UMjrUbRqTu3UZ1Du5l6UwhqBns/q57gMGKNvmzVN24BiTRIRmudqXURCw2L9t//B2oGe7HKn2sBqHMWRlIDanTXgLvnZkuDDS9n98ygux7GGPaDpeinJdiiINpUsYmi9klf9MF0YsedOrEunTxow2f4lqAwghxpudV9GT3d3g7vEw/uyVFflkT60vW0TG3+akOb8YObdYY/E8Dg9t+WoS6hczpUqVXnj/S6Sz49psmxt/RiEe3D6WE6s+GgEfLBJTMiyQjavZ+AambwNBAeUZSY/uZ2mcrXYursLrbafGbqlg2W+nu6ETBsQtVMPJIUEKyIgyskrQUZhU7grqbAWJZ5bucBH0Fj8twgmbwTEhZLIeaCWkxZj9nZxj5wNftYb8xz+tD7MK0N8ulLMnEECefqwIoxkVZJLeEs4p9HnjPfn2UyDGvn0ocJD71bjl4mjWajfQu/E3wdSNdA+ZCUO1IAs5ArvcR/uvkZvKpvWD2Tu2kzJ9rdvXWuu0x8gSFHgrMD2gk+vsSnDxSpN//D2GBmlTmE4nevE1SaDQ/N6Jl8qEkSJJG/Ir2BuYm7BCHRM6jGHMAqij5kYMyEj4sDbMAP7w1iABVUEOqnxgWBpQrkozcYtbtRo5TtVAlmK6kciCgmrWTASGGEKT5XQGBYxdEGKmXqR2XKR+lUT7vb13idHYA7JkAIMKiQSE7ZJQG1oNyhez6wB075oL1uYU9pJgfOxvhz4+ia9RnX06WEA4k2jogCDAbojMQPj0kUqsIQAyCq9KnnNeu1JvEsMXAFeUr8Xe9Zi3BfntrquJjtcXs18FJiXAXOKR4HkbQoMeZvCYBmY+bThMckZeiQCs3CgyIfzbQMv7fSu9/HaPaaNzwX8TU0hSkJKjglAsJEcRrNJxDFIuIp4vM/wCnCsgN1iwHxNe8ia5pp+q2oTONkZjU9cDkgzFgmEohWH5PJccOilr4SPhMdk7T0aArMtai74U5qVZJmb4LYCs8niylpD08i2MSYdaPghK7QicsdZFHGPGTvIJlSK8Cfo4cE9tneHwmTuITrhGY/aN3CHf/br9JNHbVgHzZSqNrTICgxEfKRpuvsWYjBIXrpaWL4FmDTRD2CtLwL1waHug5GXSZ9WWZX6KyMc4gURvPTnsbRPxds7N+g5z1f51KBqgPmQxAK0z45sHWzc10v8qZqxlCDKUf1Nkaw9jTXbN3UCDzdWbCNzW7scu97oF9aKg8OE4OewSJMIj2dx08KdaInM5fZs++oyCqXnNB0cGk13x02n6+fm9l6+z51w4a/EeQz5Ba9yyGdFDrqxUL1fDKEI0HMNGVPzzOoa6fcjFnS7S4yZwPLrmTgObTApyXuJC96PMppN78g77PiurkEIqtuLQxB5BSljw2Kq+nXAyAbggXw5U1g+AsYEZYHAgLd7SeX39c0SqA6hWZa+sBjI+b86uRy9vCNcAvNB6whE6rZaOlPdoLnidpxt9f59Qv9lXEjlfsNM2cFClFsc3mpgdRB6Qg8FZK6B+O9Y2qms+cOVaRrzGV3/rG3w0cHa84HqxOUKQTPVxRQ3BS7D6F0qYSV4IBfJ8idHz8OH2P6Nl9UwQBOD3s72rBUs1/5borKRSdglLq31XqzRXIH5WKrWW8PO5FkcEf5rHrqT4trAUhECN5DbWcXQgRqpr0fhz6+cmtGiD9JSHTX77/1+8temDTyR4WKBQpcABGKbzfEGKXjYZ+3Cvrp6G7D8/yNPdvss5WRQkhhCDOILN4UNAwL+uBoPIlSym3bdFfvi/XBw247ddmrG/+yUYiFUFdiuhC3KYX6CaBP7vBWvRh42zIexP2/rBSCM/SYQF7/Wln+WASBUTVwzMrX7Bue04rIi6eHZKQQLG8seU9tJfsgwlPwtOGkWLmpFLuj8Gu6SauSFcLq2SjETieiqXsedlVqaWJR4kVArMceu3FJ9BaKMlCoaC24Ds9Xw9FodDUaDattz3SkxbgKeBASdQLjTtyNJlH/u9gNOID8j+oRGlBLQ5T62fwYi0mYMsAwlEPsje4nzZuSj6Jnk5fsH7NRqLPHASSsmJ2LYkTyTpx5srANMdcKQJ6krGlc/zZfsy1Tt8Wcg8ZTaMDLNtEulfAfvpdCyEP5uqCvWh2kiCbrVnQmgfYMp/OTKcy298kX+Mdv1C0xaE3uPW1WjejodjhdymPQCyhUjC0wwvefMFAvD/o+NIZxTsfbQ5NUv5ALVSkkkShJqSRtRv8PUG61o1Re3TfL2CKVXKZIIWcOJXdV/Cxak/Z9dejb5G4dFUOJpVBN03Bni8rs3volPAYUKuZpbNYcqlUD/6fwNWGm1v02Gx2Okt7xu/ApJOZaMSOskwcQ1zih9uC34UdgxOVSoxBT+qT2QLla9r+DTyFxm9XWLbDHAHew9iXCnwISh6v11oR0MNe14yLRCShUW10Dcwg5v28Jd38Go2B8amcqF7ijts/KxvwshgGPqR0Swh+X/oPh4bnwzRnJ96kdV2uwh8WlVFf8KtoBhUqd+7G3N4m/H3+ThBR0A12vtPcCY6fnS3dLSZ6HrGAp9SzkYieFlc//Hj6FZH1Dqe8A9E+EOq4LNvhE28P5fCoUWtxhcRds8EkAC5GBEoUkdgJj8aOZtjNRZCJ0JWtBjAUskvwiAek4DRDKABXa8GBk0bmELE0KGHOm0JWOS7RdtColbVOWyqebY8OGy1elwGfKITC0EWpdvFeaA8dUOXyCEwHIulBqwejvoh2ETwrBhU6Iur70NNQJE8YxlTaIfJImrar5l1EMlKH8STaoaMgq5M+tjn4LSgGflaQNIrRNIRl9+Q4tv4SnwGRLryAaZKmp/QesYQ6UKXEsZfOJWFjaufQsFEE9MBeyqgaYlIROvd8cvBR8VQM5azm/DYuhyKKM8FyOy8JJEKEqXi6hiB3Zbv+AQ+OjHYwzepJTwhS2Lj5Fg2gxClGmAxXsdoI028XrmRP8fBmUGqRvYMM+dmQKVXpd/R7ajOuV2imDtjLpXHyGJoCv9bGdzDrRJmo2tqAgYcVFVChI4JaZxNJngmNj7bF4GlbVLtwlpZiwCbPaPoZETc9vaWHQ899w2BBlP92C9RS1T5FCNZz8Nth+Qlbv336zEkoN13y6ZaHze0803dIO7OYMqIe84FXDMKCjHx2x+7F3dMPQNMMwC9b+a8HtPanwG3X/BsiukGXggZVX2/Xs62u2XoxXoS32uB30zwihj1IvTGLslbgb7cKzMxHAEkuaE1aCfbfKLQMvAFgTnxQMta5pYfXfYlEC7HE0iHHEKhNm5/ufUjKICi3ff46Ov9lmOxeo7ZW8HFSYHQqddrNyUy6VyjeVVvc6VBF/wUVsKajccoT03gaDt+iOhuEfCOpjUYrfgoN4+KMMStEQ9ToM5C9xm9hfQTemsn/ZOX+v3YWgVI/uM+pUG5dcjKCOUrP9cNv3lEyv/zy6737nZjuK/wPXFkgcthKiJgAAAABJRU5ErkJggg==;labelBackgroundColor=none;fillColor=#182E3E;strokeColor=#FFFFFF;fontColor=#FFFFFF;" parent="1" vertex="1">
          <mxGeometry x="20.37" y="330" width="33.5" height="33.5" as="geometry" />
        </mxCell>
        <mxCell id="DtwHGzKxlXm_iz9CqARx-54" value="" style="shape=image;verticalLabelPosition=bottom;labelBackgroundColor=none;verticalAlign=top;aspect=fixed;imageAspect=0;image=data:image/png,iVBORw0KGgoAAAANSUhEUgAAAOEAAADhCAMAAAAJbSJIAAAA8FBMVEX///9DmTRFpThGoDdAlDNPqkFKpzxXrkdgsk+2tZipqohbr09XrUtVrEhesVJis1HCwac/ozFmtVg1oCXOzbfz+fJAnjA2kCfb2sc5mydcqk88litmsVlSrT75/PhtuF5PpEGo0qM1lCK32rHV6NJJqTXk8OLe7ty+3bqx1KxNnj+Pxoiex5c+ly693bl4u3CBv3osjRpcnk7t7eWWy4xzumWWxo97uHLJ4sVrsWE8pCp3tm4tkherzqZbpk90sWqEuHygx5t6sXORvoxooVmJsnV0pGOXsX2ntY16q2ShtIhkplq6waPF0beio37f39LVdvCnAAAKW0lEQVR4nO2cCXvaOBCGwY4P8EEMAQqlDjkKKdmmSbPJptkuzZ7tdo/8/3+zPrAtyZIss+HRWM33C/Q+M5pvNGNotZ71rGc9SzUtZB9g5/peecTLI9kn2LVurKHsI+xWC8v8TvYZdqsjyxspHcShZfuTW9mn2KW+t+zD0UThcnr3yrZv9JG6QTy1bNs+1PWBqjdxGQPaPV0fPcg+ym6URDDSXNcnS9mH2YXuNoC9aRTED7JPswNdvLILQn2iXu92kgGmhPrkVPaJnlgF4IZQ19WqpwhgRjiahrJP9YQ6QgDzGI5m6iBigDmhPlGmoOKAds/RM8QfZR/taUQA2j1XVwuRBEx6mhzxB9nH+/86s3scQgUQF6+sPkno6Shiw19SYd+wDklCV8cQmz22OX9lWX0yTR0dR3wj+5T/QxevrUhkEH2dQLyTfc6ttUgASxexr5OITX0thraVEvYqCEfzhnbh8SW0KGk6Iwmb+iA+eW2JEuqTc9mn3ULLHNCy8Zt4WCbUByeyz1tboYWomrCB1ebSQAgPqwkb9yB+8xqNod+vJNQnD7LPXEunGCARxBsqoT64kH3qOjrEAfGLyCDUJw1yxYv7PkHYEyBskisapkME8abyHupNGhMfBYZrsy8ik1BvymJxaEQi0hQ1fTZhU/L09nWZEA0im1CfNKKeLoI4hkZvG8Jm1NNLzeCnKY9w1IAWfHmfABo+M01L70MsiPB3UjdmSmiRlihGCL/Y3KW3sBzEojflEuqTM9kIFZqZGSFp+nmakpMoMoqyEfg6y0NoeITp5zHs8QlhdzahZRQiLmIvR+QT6qC/ezsKEEJmNa0ghDzoDzUE0PBYpl9BCHnFf4Imadn0DwUJAa8yZprDIcxrTWUMwfZuy8B0eEEUJ4QaxO8C08UIiVqTVdNKQqieGDqa6bkcwk2t6c0rCYFu3E4Hpmn6WDUlENNxjQDhaCobhqrzICLE05S4iGlvKkAIc6cY3keApuGhhNTeVIRwBPE7lLOEEK+mZG8qTAhyKHWjJYQ+L00TwxAjhNe6LQLTLCPSqmlfhBCgYRxlhFzTFyeEV2v62oaQa/pxbyoYQ2jjjNP7DaBpOBVpKkYIrjk9z5K0otZEpi9KCKuvGXpaTuhZHMLI9PtuNR68ND0LvJwQN323lKaChMAs8TxwTHqaWsRLv9/rT6vpEsKfZFOhCrQihny/sPt9p5pOn07nU0id23KgGSzEUm/KJZzrbsS2bsf6CChN3ww0zWEFkRxIMbJ0Pp+vp6v1qp3rGFCavgs4hCVLJN1iHkVt2l4hbKnermVzFTK0SC6j1pS67znCNp2vS2S5PoIx/eU9QYgF0SQRvfi6zfPrxtYxmC3N2YAgxE2fTNPZdDVlBw5N00+yyTKdBzEhUk0NrP0mq+lchC7RCsrHbh8SQo1p+kSaToUJj4FshIdaKs/ICV1ebypO+BLIaHgxSAmNghCvNcT3Q+KEUC7ixYaQaYnetoTtNgy/uA3KhLxHYg3CjzAu4ruMEDEMjTOQqkEIpHHztDIhL4g1CF8+yIaLFQ5ohBzTr0H4diWbLtayIDQLRM5Aqk6l+QjB8+8KQrE0rUMIwvPfIISI6Xsei3BWhxBC852bBa83dbckBNHVvEMImZaIfnpShxBEV+MhgFhvyrqItQghFFM0hJrpMYLo2FsRtl/KxoteFvcoIfOlb21JeCy/M10MMELkIrLStB6h/JHiKU7IrDX+loTyDfGOIKw2/XqE8jelZwQh0/T9phIe4ZUGraYG/QupeoTy14i3AU6o+VVpWo/wZ9mAm1EiIqOqN63nh/LbthKhydpCZQOpeoTyP6y5JAmZpu8pQ8jcQvW3IXyQDVjOUvZAylGQkLpKbBphyS3wgZQChKTjEzeRsixtGuHJoEzI702bVkvJzjsWfyBVj/BX2YBUQmZv6jSxpyHfh4lYvanl1+5L5W8uljRC7rK0HqH8gemCRsgdSDXtfRhS3II/kGraFKNVdnyN35vWIwTw90oujRBBLC1L+7UI5c/a8Kk+LU1J06+ze2ofy8Zr0ds23PSJZalfh7AtG6+FfIqBV1PWstSxa+0tIHztTbV83ocZdbIUQOON7fFRMQdSZq0dsPyWJpJPLTWo6eMbjFqE8g2/RX3lE2mKW2KdewjjW296MdVc4wkIAawPW4zeW2NbYg3Ct3/Jhks0NCoJnS0JAbx/E9G7GpTQ3ZYQRKFhXkTWO1iIcL1erVd7e/J33ImWDEKG6VcQRmTr93uJxhC+NUnk0QkZps8gXK2iwO3Fgcs1lr9a26i8u0jEGEiVHX+9igK3QtlSXQF4/qaizdvYFxEljFNyXSLLBeQaRmIQogMpDyNMUnK1LocNFZxrKJKmiCVO2/zAFYTyd/i5yA8yMlFNf8qPHHINQTSlqUJ6DOmmPxME3IPwvs/FeF9QB1KiIRzLH+gjYjz0qd13WzRJAQwSETn0IFK2UJZoDCF8WoqI1ZuW38GihHAamlRD4d7UEyUEVEkTMSwR+bZ9k6auGCEku0/FqDVl03dFzD6qM0CehohmggMpQcI92TxlMdrv0rJULEuh1ZlE9LlpqdaIVZorOM+KQozmlOxNhQjHQEZQhOhBRL+QSqqpUAihWUUqRhDJNBUJ4S+yWRjyqjbeMaEnEkIw4wtCdE9EBlLxuMYRCCE4t89FnQ2beK3xGxxC1goD/6VQ9QN4DGNbQRf1JexhvWk1IbCHIa7QpAWxIIxe+tPKEEItpKmo3y1gF7HS8ME9mwjRGnCE0PCrhhhA25lCC9pTGBl+m5UxhPATfK6O+J9FmxWPpyv5n1tW6kM5T5EnlMEnBO0UmWhfnDqiMYReZlJR6mlOqH14z81RQKsKnspTqXwgpf3yGy+CcBtSXKHL/Mme9vsfPEKIL3uqypt9V4QQ4HyNqdIvabJqGnxmE4L3ekznJOImiMEXJmEjjAIR2b1lhJ3fxyzExlzCVENipOFlhF8ZhKDfTFQtiSCmvanR/UInbFKVyXRK+U8Qbdb99y0VEMTHwHWFF9RkIKV96nZpTc1Vo8poIfyZEdca7U8q4fhB9lG31e2ASNOY8I/SRQQ+t+DqEkGMe9Pgc7f7mSQcfwL/6OUIRYwJv3a7X0nAhjk9KQTRjVuabrezUgoQRYx6U6cb6TccsMkpmqpA9CM77OIXUQVApAt341La7eyrlKKpMtPwtM8xYdF8N+ZNX6ns/zH9LwlhJ+tkHmQf7Ol0N0j68HknAeykpt/MXpSlpREhBn+mIez8vRrvjffgbgm30tAPtCC9hp39/f33V3817MFbrfDdINgkaUR4oFSGZrqN3XB/Qyj7MLvRP0UIr2WfZTcK/80IX8g+yq6Ux1DRELZaB5tKuq9CM0rVdUfpOhMpVP0atlr7aQgVJjxICR9ln2N3eqE84WMCqKrfx7pWnjBMAFUmbB0khMoafuubIVTYDiO7iEOoPOELpQkflSe8PvgGCF88EzZbCaHCjXdMGIXwWmXHjwkflSZsPUaEj0oTtsLra8UJI4XKEz7rWc/6xvQfB0dYePp+cmsAAAAASUVORK5CYII=;fillColor=#182E3E;strokeColor=#FFFFFF;fontColor=#FFFFFF;" parent="1" vertex="1">
          <mxGeometry x="203" y="333.5" width="36" height="36" as="geometry" />
        </mxCell>
        <mxCell id="DtwHGzKxlXm_iz9CqARx-55" value="" style="shape=image;verticalLabelPosition=bottom;labelBackgroundColor=default;verticalAlign=top;aspect=fixed;imageAspect=0;image=data:image/png,iVBORw0KGgoAAAANSUhEUgAAAQoAAAC9CAMAAAB8rcOCAAABSlBMVEX///8tjM767aGr2/cCba5dKBX/S0v/86Wq2fRhMB8qkNX/TU0Ab7OEMCLgUFuXfHRTGwBUFQCwmGaPbEcgiMyGZl5QS1tTQkpRCwD8oqNZHADLLS/KvLiQveKzz+nz5Juzo5/UzMpOAACkzjlvQjOoi1x1SS3okZgAgsrDNT5GQE55RTJ3KRtvWVeVdEyDRzvMt3tzOiP28/JKAACEYT/i0Y3n4d9SJhHd6fVkpdjErXR+VzdZFhJXHQyix+bB2e5MmtSpk43YxYX08O94uOVjORjW5vTs9Pqynpl0Sz99WU6MbmVqrt+ZzvCAvuip2DtuVB4AfMi/LCyggVXQxMB9eyaYtTOSqDB2ayKYsjN/gCeKlyyhxzd0ZSFlPjWSp7h3bG9pSUOauMzpRkRpKhmcNSq5OzTmdHzSLC7+aGj9jI2pZF7/dnePUEeqmxaeAAAPrElEQVR4nO2da1vcNhqGgdZMpzTLiDi7Wocwgzl0dptSDoFhYAQmEGgJCWlItsmWTXebtts9/f+vK9tzeHWyZEvDmGmeKx+CrbGl23qlR7JsT0x80Ad9UBEtVpcN9HTU2bwJVWtILxLOjzqfw9cRQlcrWq2S2uaoczps7YRkraLXNkazo87qsHVeI/UpvSorKFwcdV6Hq/kQ71UMUExNVWvLo87sULWJyL4Zicp6iL8edXaHqacB3jYiQVncJXhn1PkdnhZDtGJWKajqJLg36gwPT1WyYUxiqrKHx9dcHCH82BzFVGWVeGNqLhJLYU5iaozNxTdmlgKwGFdz0TC2FAONp7nYxKaWAlSLdTyO5iKHpQAsxtFcUEsxl7dSTI2nufBItQCJcTQXRyjMYykAi3EzF3ktBUAxbuYit6UALMbLXDRwfksx0DiZiyKWAlSLcTIXhSwFYDE+5uJVMUsx0PiYi4KWAlSLcTEXhS0FYLE/FuaiuKUAKMbDXFhYCsBiHMyFnaUY6Pabi+PQxlIMVG5zsbN4rE90z85SABalNRfHs0GIw2VdF2dtKQai5uL8RoqWUzsBIp1Oh4Qa61PLc+MjWyU1F5se6bz+y/V3Lzo4s4+btbcUgMUqCcpnLmZR57vLpaWlyzdkKyOAXVgKgGIbB09fzevltqzH2SfzyOuYBJWXZX2Wa54zEDGLFRJgvbbcsjgPM8/mdb5LSVy+Qeq27NUWcdVmpqoTj3g6EQ+7DKP5UHPKztsUxdJfSYbz+cZxrZhDeL2uUxxG7kgcB2Q/82yk830aIJcvUEYfQtuKK5dtBTJpetx69Fnqi7LOSdvyJ2mleNvBjYwD0UFp5oHyodgnZqMZGiOuSGgXhFT2QvLi+vLy8q3nZfdvHll16CvMRjOVxyE6coRimVR1Z1vDxPvb6xcdD2U31wXviclU94yXcd0loRuPfkQbJ905KysYUbOJSE1jN58G2H6InpxxjWRHLVAd1b5xQWIHk7sGjdP2yqP9u3tzSGOGNzF55GRk+hibL+OKY6nhAMV5YNY4patutWa4gfV1zESrZMM8Mc2WA3NhvsY0Oad+ps2JuaCWIs9oprId2puL2FLkWi91pevFd0JkbS4MLQX4gQNz8VRjKUR5WX4zlgNzYWwpYLYszUWuNaZpLvUzbdbmwthSgJ9Ym4uq1lKIJ32k68Xt744ZWwqQLUtzYWIpxIwi3UybpbnIYylgtmzMhZmlEHI6ZHORy1KAn1mZC1NLwZ/UlbmQPzA0tUHbmiLaL24uGhjtiRkxKAHtxe3NRaWyvTcn0xohd6U7dLoiwb1GMXmeJxxub9uAhgtzUVlfxYqHCz2PGDyDKP1hUOiHCFEU4ka8alK1PVLNrha62+mVq7BGc1AtryibWqhvs6zNBR31B+9++KTc+uFdgA1YaM1F5sxFZS9Ef/+o9PrkyyDUx0gd680FUndPXvDlqMtppH8EegtqYC6Q0lzQ+EI/jrqURvrRZIAcm4vsaqE2F7QHejfqQhrqnYHbo+ai8MxF5S66HfFBIwSZ3H8obi4qj4LfR+12++Li5OT58+fPEn0y6lJL9SUyGpoYzFzInyiMUXw6OTnpQ00miqKIQ/TsFqAweHS6mpgLwb/2UKjkC4xiQgBQ2VAk5iJ7TVJiLurr63WWhg6FFlC/AlE83dozWhRG5sLbRxijVSZQiqHIxNNnc5KwcdbwmKKozOnWCG1iL1641CEhtJ7uUKjYpGQSMHYtsimK2FygTBTziDz5/vr6+ycEOtgholCDoVwKYDFHoZu5CMiTpculpcvrJwR4jBtDIeESU0mgOEahMxevcG+NytsO7Vf7GgkKDkqMRE/EHIVm5uIIed01XEsenJpaHS2KnhIitI5k8MiBorKOsPr+A0DxBE5NeeVAkSoGErWfy3nkRNFQt5q4c52SuO544KVppUKRitYPGY48AUKyVugfb5E3l+nKPmY2+l75UMSiOC6eFUVRWctc0xqvfX2zdHm59KbDhFFJUUyKNMw7U+2dymVEyIsXhCDmzlV5UUzGNKLnBVBsaO9fz27F7eQW6z5KjYKKVo2cKOJZvVcaFBM7jdnZBhdEZUcRwzjJhaJedK1L+VFQGNEzcxSVfRIWu0l5G1BQGCfGUzfFb13fDhSTftsQRR0VfujvlqCY9C+MUOgsxTigmPz0D4EehdXipzFDsaG7JfRbQWFkKQqjEKe8xe35tioOKJysAApqKSxeMaFB4V88gOrnzwcbnw+2nkjTwmP4beaA7NmYXVFuFMUthREKNnU/e/4p2OpLUw/Sng02njUj5oAH4OI3F+CeM65a6FHYLrXPRuGfsKkXmr0dB5JC+xfSUkJAh03/AXNEcLKI2RHlRpE9S2GLonnKJe8Xrw029mLBZy7raQ9bxCZlj3nYlJ+rD90YhY2lMEAR8clP+tcKZru7sXnGpO0BgtUgEg7a7iWDcIXw0KOwX0+diYIJg0T9Sw2Lvdu74cymvfDFutLk2UzsNmUc2/lRVG1X2Wei4C5zrD6lQ7DRFy//RL+y+LuDTSnJ5i5MloYX++NDPjy0KOwshRYFW2dTHaiqPUdnIu4t0s3iryMmmc+nYhpTQxTbVpYiUSaKQzH9mawxTFuQJp9WTNiLGSbwYj5NZsuJEB46FDZLqXvKDBDZD9rdfbDgycUW61BS9Zn+uHdgNkQi7lSS8NCgcPL0XgYK3lSk6vVysO879YVLLd3cr1JsiBw2m0z9k+YmE0WdOHimMwMFKOwuaD97jQUsoi9c6URJfwGQDS43y60dwb8eSMIjGwW1FA6e9M1AAfJ3ADrEbiAz8ZBsEQ8ed4mwFwKFZDqnXeiuTmXhkYnC0fPfahTwwkWg3P2sgqPQ5lAWTkkbAv5ug6NHqhxFsswoUSRPi1hbikRqFOC6nfmwr5NcV1pmWXdD7RMzLoHXm3XpzKHMUVSmHs/tba9YW4pEShQwABZ8WNAD0UUe+gy5/v/YurXLVH1f9G9CGh2KFYwRwsTNG0TUKEDhL3xY/c9Ec0m7hqj/x+mA0QnDcIG54DIDJw5IM1Hs41bLo/9QwxZDLHWAgETcn23RM/oAzMEgJg59GEacc2pKQkQYkGagqKyh1s/vZ6bv/+TZDUm7UqGA1zzuA6GNOEyLBE1WG+xvg4alKWlkBucQQkQckKpRVLbD1s8z09PTMzOekzdFqFDAosdXkxlzdCMEJHkAuDSBw4Bdzxl/xcUQEQekDAr2vT9XxJtONPOytWXwUsGiKCKQRtiQ1nTYIi4MSnXogx0PYOXiy9kUOh3Z4GOAgoSMiHdnJmXxvoUdvG5IgQIWUxxZn/r8Rd0FpfflTajgItn5v1RKEgkK9hVhAxQzLeygN1WhEDwiY5W7qQYbznbhPhAtAKBQ+yXZkY7Eeij21xmt9QJk+n7LxRt25CiYKO7avwhsSq2FZNSRtggyuwUmxlOJ4RFLGSJJs8nocdj6Ja0WDz3NA6ZGUqAA2dz9tpnoWziHn1YUmWFc4NvY/nHYCy4Lj1gZtYLvTPdJ6xfaf7y/03LyDkxFgIAUZ7tdwa6vLUxF9JTOzkh2sAZLYTbVISKxWHWPtLw7D1tezcmbUaUopFeVzXC6cF2yRxk6bNWXh0esC3mISFBU6o9CRAhCnpMX5kpRCLc/RMmn8HrdjSx0mBGnKjyozoxrRWyz5q5W9rZdTNwoUET63yXX2BeRHQj9bK+EGWOxNlNF5CEiH6SnDegeDhv5ii2TDIU4NSdKMYfXu/ZifWEMVpMre8QklYZI5izWKkH2L+OSolC0aIwi6cU/k8x8poIGi/sdz1QaIpkonLzpU4JCPnrmdSDtKXqVW2x4ocFiWceQ2C2yEMme8Xbxpk8ZCmXjDiWf2u13ExGfXr16oCnilwzLNLeEHMzpyQLE7JdxdoWeYlBcLsiAwZIWm209JIN1zS2hx9h6pldEwdTt067VFA1n0g7yJmtQYB4SMFiKYGCTCyGiu2dq/6ZPEQVT6dnRJFu+5Dk49miDOVreOAwMFjd5Jb0CkhDR3Um3vyskomBKx87Es+WLS8d1mqAAyqVLbHiAJVtMuyOEiHZRgfW9QgEF06/xGWLKF1sLzmTBtpHZMzBYbHjAJiRiDsWHiH7Vje2bPkUUMKvcEIpr3CLeEEAbpdjDhQesdVzzwoWIHoWtueBRsDHARywb0BQUW92ZliWCe/rLMtjw4C49U2E4o2WwQs/SXAgoThaAJnlFcG9SPmVyH+7pL+I7WFD+gF4GZudFThS25kIMkIwVtbLdZmtz5b/nj5+102QJq91t5PFa421lLsYKRfxgTPEJrXvBn8cIhdWnfiiKz0ZdSiMZobCauYhRfKy+J1UeGaKwMBcJitvAwgyFjblIUXxc/iAxRBEvcC54f6iLovwwjFEUNhd9FBRGqcPEFEVxcwFQfFzqNsMYReHXiLMoSkzDHEXR2yICCqpmGXGYoyg6cyFDkVSOsuHIg6LYN0pUKNLaUSIeOVDE3xEssKg1C0Xar5QESC4Uhb5drUXRBTJyIrlQ7BcZiRiiYGvJKKjkaSuKjU9zoxDqyg1xyYGioLGwQiEFMyQ0OXxFQbvpEIVIptl0h8bceBcdhAwPhYAmgaOcP3ZXK7Tfxhg5CgWgAZ5sQMYj08ITFqNGIddnSXQNIJmjsPgaXjlRSPSZIYrik5sxitshs7lNiynvp7WHf1Lodzevf36u1lc1g88f2HzybLb206/35Zoegf6oVtXkoxg2t8fmceulAsWvI0DxLyWJz2sGXwC2umm6ibw7ZaoW/1ah+IoQbXhMFZ7tTnSEWz+XiMWMgsR/alj74Unr1ZvnqHXn5a8y3X8/c+Oa/q80Ov5XQ9pvLcZ3xvLPUrAssNf66aFUd0agr0RVazX8SBsdLlZ6f40wqrmQJ6rIQQi/CWGi/yyr1V30gV4dzboQxyL+pt553mOcB97+GqeV9SkTS6H7RMpNCrMkvvjii41G7oNUZR8O1YJwsZzXpZygyP8R6ITEOs744sHNywmK+DuCBb7jXXSWYkhyg2Iz5wfjk0pxhbYcPIvtTm5QTDTC3B8kt7cUjuUIxQTtRfJ9CdrNw2Mu5QrFTkgMBuSAhPb7WjcuVyiU3xFUqFyWIpEzFNRcbOSoFNoP/d683KHIYy4MPv9883KHgpoLbGwuSmYpEklQFG3NzM1FOSzFzrnwuXdeNSZBtWF87HlDc1FsLYVrLW7JhuWZCs1v15wHxMRcxF9+Hr2lOM9NgrIwbuoTc6FXOSxFkJ+Eh83zfYTIql7EzStNLFUtgCLPPGwVGShw8tI4WzXC3CSCPN3eotG0V2NYxculoy2cT+Gygxe8lVPHi/lUhrr8Qb9x/R9Rd55dM90DKQAAAABJRU5ErkJggg==;" parent="1" vertex="1">
          <mxGeometry x="127" y="255.20999999999998" width="56" height="39.79" as="geometry" />
        </mxCell>
        <mxCell id="DtwHGzKxlXm_iz9CqARx-56" value="" style="shape=image;verticalLabelPosition=bottom;labelBackgroundColor=none;verticalAlign=top;aspect=fixed;imageAspect=0;image=data:image/png,iVBORw0KGgoAAAANSUhEUgAAAHgAAACCCAMAAAC6s/yfAAAApVBMVEX///8cHyoAAAAptHMUGCRNTlUNESAAt2zp6elzc3QAtmlzc3b5/fvt+PIdu3aoqKhXV1csvXoAABErKytCwIEQsWyPj49uzZ2R1a7n9u6vr68As2G8485HR0d90aZ7zp9WxY0AAAucm57Z2doAABa8vLzT7uAhISEArGD09PRra2thYWFPT0/GxsYVFRU8PDwuMDeBgoUPEBqc2riu4MUlJzBEREu0/5PNAAAIMUlEQVRoge2bC3eqMBKAMVqDKaAoChhUlIrFR62V2///03YmgAS1VkXt7lnnnPsgCfmSeSUEVJRrJQoUJXSvvv1q6X9NFMV732qPxa6+x2MEd7uW90Cs2iC1SluAq9V3+2H6nozfKpUdGNDOQ/Q9Je1KpQCudt/ju2ODlwRbAAP6zqZWX7/qlWNgQNvh/bjN2ltlJ0SEUzUnd+9l6tWa5NgamauKog8lcrVbvYepg28IoRz7EiTFrl1AW7fWt7oZ1/Pptj/7eZXnd2X06JZRHTX/Scat13qRXKvF1a6s79tl0en3WDLueB7sN9CHhUnfKLTUhWTcCvm3OtYoLOj7Flk02hDJuG9f/Z8aetUCeqiX4zYrsnHHReMWRdt2ZVN3S/n3XI7c9uLAuEVxRzt02Tz2klu3vZ7+3j41dXn32oHrmCDPEe+9233fiv+eeccpcI1sThh3T5zEr5rkuzS49v2LcQ9l9f1WeykNrjcuvE2dv9UqfwDui0X7D8ANkXL+APx6V7CHAvnKG/n72fG+4C7IuwYZo1t9LFhkRrHZs/4AnKTmPwDD+lf1H2zjbBE6ss+5P7i7PXrXA8DH73oA+Ph+8gl+gp/gJ/i/FJxsBP4AnG59Hg8+If/74Nri/CcnkGhRuxG4Uv884xE1k+ln8ix/CzA8Lg7OfG7Lj8NuAoZJtzfq7+3VzXh3RzmwdALS/tf8xdTF47C3MmC11ZbOEcffR4+aMlmtx1LjdusMDZ3q7fPg5PSHMc4Lx2GfJ8d4lvTls+L6D4cSe8dhtR+Pwy6RaNOWO60f6bRflwfXvuDE5LQEC9l645c9Na6WBeMennWWkOlnW5rS+FUytfraLpwolzduUSayEaVjr0L527nHYZdI9Coj2l8ii06/ZE1cchx2iQQt+e1A+yUIXuQwJ7+ddZaQfsHUtZqsgnPOOq+XqFeXYNIg6pP7aDmX4oF9puWfM9oNpfAiqHLJmlla+p/jnDu+ZJdQVqJe9o6x/nXqdcEdJFhgJP3+uuAOAgvmLRa/a6TZ/BPsU57ylKc85f9YphN4SJpuFstGtuQGvWWrIZ6c+pNsbzed9NSoOUmXxyAtn8xbi8a1G5MlGagdIkTA1GVyQWAcASFL0WhFyFxRP0gvuadJiCoKE7lutW6R2YzMez3gfUBvwQchjem0NxPkPhEPK1GHzGBInQIYRrWeTPu9NVlftStqEZgydr4gBLQ2Ix2hcnVNBtDfQsxnLkaxB54QIoBR49oZd5LNMmiuiVNMu1HFOCIYiDJN5r0HbhByFTAHD3akJsywlVUsySIZDsxXFB7OeFFmf18Egzf1E5mmFdA/6URHwJFwyUb/Wvg+WBLBA2WnT8N7YDwQEdK4bse9D173dzLFHjdpaB2CoWS1GUBt60qvlsGD/dhAx+oIBz8CRgk6wgvLgid7vUDhACO2kYA3h2Apr5QBg64/0niaYN9rkVUmIqupM0wjIKsPkUDWaga+6kRkDwyzI5tADaZLjKFemkcXYorwd2sVrOZEgCHz9AJVXa1TFygJVgJ0F+iZzKYYxI1sVstkUCi9HoJXGE6QbpPbLpdNK30joA6WwrxRvzWbzQag6QgWn2x1Wi77OKiPj9lipfSXmGWjZucDrhsPeZCMij4fqY99an7K3eXBPx3YYW16x4+6T4jHqQX/uG7Jr08vFpdy/ATGZ/aDwYorNO3Th4MTuRAc4g9pQif5LjncOrErlXuOs/3Jb9ztrhLaamHoUz888qucMAyxcaiH+ZdQWMb5SLc4xx5CizPGuI/1GuMj14BryrMv1FyHck7TIWo+tmXchBt1yp0QqgyoH4raGHrkyXe/msltaMy9MKuEnvC/BrUtTjEeYsb8oeNTagBZM6hvMt+GS2qKkcaUUd83ORPfUlmU2o5jm4y7im7CcAzTMOCPg/1ajFk+zAJBmgUAxgwPTGGkU3YY8AyD0q2razAMKl69hwZ6pwblPurG9SnD3mJGbVdT9C1Fcsip+GmCPoS2CFZ0HWys63iHwSy4U/OSjiwAOAjwGE3f7RsYfjDMxFA2T4tDnAXM2ErGp8NMdEXnmes4jIU4jNQAegreOZfmpypSPMpinDFLANDMz8uBnmhe535megumCOBRerml4AEONbL0AFPHGY92rlIE5xNTbEqFqtPLIeWiDxiZnoNjZoep2NBUArtoVmt3Cd2ZrmJSyv048dMieESNrGXMeCiBXSbagfIcJQdvKWWpUNCyBIaGQ5hm5pLYMlR0G9oxagwPVG1RM2sZMuYpORiGjO4FXuLKYGbZOxkegHk+YwHG0AS3Fy5fBJv5jAEcy2APB6KZSUEGDnkh70hgcTv4eGZTH1WdDMmz0MeLYIiaLItsi6pOmCFnngzWUssfgofoXHbmm6gAP29mwUURDA6ffTVpUS47l1CWbqcaycBKzNP4UWIliePEOT1uQAW4cVqdhEfm0/YBWDcNnkx5yEAdBbAGQWmm49qBYVmzPF1zPR8XOQAbbBi6IcSRCPAho6bnuqhcoGy5GWM6iQuqNrwwRksakJJcyN2omgIYA8zg2h5YAUc1LUiCOFVU9ZBDFxA2Tjp+ymAwVCRCyAHMsHyTMmvn1VuOjVFjFFvCX/hVbhHsQUJPL01jmBeLzCyWAWHjLXKtWK6lfmIAd4h11MCfk+mWIbQ3ojQxv2tjpRmL1cY3dvGAhjLo0W+itGz7kjqXW1jnYGXLHVALPW/vk19911o7tkAKcB7lx0Xy6luKh6H5B2AwuPHLjvAe4JGfhMRpMGW3BusmrAO/b8tC79abdC2WN3D/AePTxyymcfIdAAAAAElFTkSuQmCC;fillColor=#182E3E;strokeColor=#FFFFFF;fontColor=#FFFFFF;" parent="1" vertex="1">
          <mxGeometry x="651.54" y="304.16999999999996" width="56.92" height="61.66" as="geometry" />
        </mxCell>
        <mxCell id="DtwHGzKxlXm_iz9CqARx-64" value="" style="endArrow=classic;startArrow=classic;html=1;rounded=0;exitX=1;exitY=0.5;exitDx=0;exitDy=0;entryX=0;entryY=0.5;entryDx=0;entryDy=0;" parent="1" source="DtwHGzKxlXm_iz9CqARx-48" target="DtwHGzKxlXm_iz9CqARx-47" edge="1">
          <mxGeometry width="50" height="50" relative="1" as="geometry">
            <mxPoint x="170" y="370" as="sourcePoint" />
            <mxPoint x="220" y="320" as="targetPoint" />
          </mxGeometry>
        </mxCell>
        <mxCell id="DtwHGzKxlXm_iz9CqARx-66" value="" style="endArrow=none;html=1;rounded=0;exitX=0.5;exitY=0;exitDx=0;exitDy=0;" parent="1" source="DtwHGzKxlXm_iz9CqARx-24" edge="1">
          <mxGeometry width="50" height="50" relative="1" as="geometry">
            <mxPoint x="110" y="460" as="sourcePoint" />
            <mxPoint x="155" y="350" as="targetPoint" />
          </mxGeometry>
        </mxCell>
        <mxCell id="DtwHGzKxlXm_iz9CqARx-70" style="edgeStyle=orthogonalEdgeStyle;rounded=0;orthogonalLoop=1;jettySize=auto;html=1;exitX=1;exitY=0.5;exitDx=0;exitDy=0;entryX=0;entryY=0.75;entryDx=0;entryDy=0;" parent="1" source="DtwHGzKxlXm_iz9CqARx-69" target="DtwHGzKxlXm_iz9CqARx-6" edge="1">
          <mxGeometry relative="1" as="geometry" />
        </mxCell>
        <mxCell id="DtwHGzKxlXm_iz9CqARx-71" style="edgeStyle=orthogonalEdgeStyle;rounded=0;orthogonalLoop=1;jettySize=auto;html=1;exitX=0;exitY=0.5;exitDx=0;exitDy=0;entryX=1;entryY=0.75;entryDx=0;entryDy=0;" parent="1" source="DtwHGzKxlXm_iz9CqARx-69" target="DtwHGzKxlXm_iz9CqARx-5" edge="1">
          <mxGeometry relative="1" as="geometry">
            <mxPoint x="160" y="415" as="targetPoint" />
          </mxGeometry>
        </mxCell>
        <mxCell id="DtwHGzKxlXm_iz9CqARx-69" value="Images" style="rhombus;whiteSpace=wrap;html=1;" parent="1" vertex="1">
          <mxGeometry x="384.63" y="432" width="80" height="80" as="geometry" />
        </mxCell>
        <mxCell id="WfVGsAc3efYB-Gr4wjyI-1" value="" style="shape=image;verticalLabelPosition=bottom;labelBackgroundColor=default;verticalAlign=top;aspect=fixed;imageAspect=0;image=data:image/png,iVBORw0KGgoAAAANSUhEUgAABAAAAAQACAYAAAB/HSuDAAAACXBIWXMAAAsTAAALEwEAmpwYAAAgAElEQVR4nOzde5TlZX3n++ep6mt1A3LzjldA8C5eEq/RqmpIA16TNheNaGJQYwKKF6BRG5Cuqu6GvpAws8iaGdfMZM45g2fmJC7PuIwgk9FoTk6SmSTrJBPBTBKTmBmhVbrrt+uyf7/v+YMYReimq2rv/ezL67WWf9Fdv7exWSvPp5/92ykBAAAAAAAAAAAAAAAAAAAAAAAAAAAAAAAAAAAAAAAAAAAAAAAAAAAAAAAAAAAAAAAAAAAAAAAAAAAAAAAAAAAAAAAAAAAAAAAAAAAAAAAAAAAAAAAAAAAAAAAAAAAAAAAAAAAAAAAAAAAAAAAAAAAAAAAAAAAAAAAAAAAAAAAAAAAAAAAAAAAAAAAAAAAAAAAAAAAAAAAAAAAAAAAAAAAAAAAAAAAAAAAAAAAAAAAAAAAAAAAAAAAAAAAAAAAAAAAAAAAAAAAAAAAAAAAAADDocukAYLTtihj7/b2tJ9aRn9Ku01Nybp6SUjorpfTkiHRKinRSpDhpbCyf1KQ4KTd5S8oxVrobAFLkJqU4mlI+EmNxZCzlI01KR3KTvpvH0t+lnP4mN2N/ndbF36SU/uaVH938Dzfk3JTOBkaXAQDomUtvjjMWFhdfEDleEBEviJxekJs4P+XYULoNALot57yYUv6ziPTHKac/TjH2x+s3b/zjz1+VD5duA0aDAQDomu17F5651K5fm1J6XTTpNSnHWaWbAKDvRP7rlPPvjOX4z+N57O7PX7v5r0onAcPJAAB0zBsPxGPmW/Ovb2JsOkW8zoEfAFYucv6rHPk/j6X8hfUnbfrs567ID5RuAoaDAQBYk2374rFNu3pTNPktkWMyR6wv3QQAQyPyUozlO8dS/MfNGyZ+67MfzveVTgIGlwEAWLEdt8XWb3+3+pk6NW/LzdirvZQPALov51w3Kf3OeEq/sen0iX//2ffkqnQTMFgMAMAJm5qtXlpH+sXcxM/kHFtL9wDAyIr0QE75f0vj6dfvunbLfy2dAwwGAwBwXDv2x+b7F1uXRaT35mheULoHAHioyPkPx1O6ff3WiX/zuSvyYukeoH8ZAIBHND0Xp0RTvT+ldGVEPLZ0DwBwfJHH/mEsxYEt4xP//DNX5yOle4D+YwAAHmJydzwup9YHI5r3pZxOLt0DAKxMRPrOWB67bUPefOhzO/O3SvcA/cMAAKSUHvwKvyNVa2dE/ErOsal0DwCwNpFzK0c+uPGkzXO+ShBIyQAAI+/y22P9vfe1finn5uMR6fTSPQBAZ0WOb+UYv+HVr9h8+w2vy+3SPUA5BgAYYVOz1U80EXM54uzSLQBAd0WkvxhfN3b1nddM/FbpFqAMAwCMoO17F5650K5/PUdMlm4BAHor8thvb8j5PZ+/dvNflW4BessAACNkxx0xfvjr1VVNpBtyxObSPQBAGTnn+RT546eds/nWT78116V7gN4wAMCImNw7f0Fu538R0byodAsA0B9yzv9vxPp3f/G6DX9SugXoPgMADLkdd8T44Xtbn0gprouI8dI9AEB/icjt8bF0wyuvnZi5IeemdA/QPQYAGGLb91RPXlxu/l3K6TWlWwCA/hY5f3HD5vT2z39wyzdLtwDdYQCAITU5V70+N82nfLUfAHCiIse38tjYZV+8ZsvnSrcAnWcAgCFz+e2x/p7D1b7cxJWlWwCAwRM5R075lle/fPO1N7wut0v3AJ1jAIAhctH+OK29UP2HiHht6RYAYLDlnO/cunlix299MH+ndAvQGQYAGBI/vmfxWYt1+7M54uzSLQDAcIhIf7FhfN2ln792072lW4C1GysdAKzd1OzC9OLy8u85/AMAnZRzetZy3f5/pmZbry3dAqydAQAG3PTM/C82df25nNNjSrcAAEMop9OaaH57emb+XaVTgLUxAMAAm545+uEm4tdzjnWlWwCA4ZUj1tcp/cvJ3ZWXDMMAMwDAgJqcnd/VRNpXugMAGA05IqfUHJyamd9ZugVYHS8BhAE0ubvam1LzkdIdAMBoynls5q6dE9eV7gBWxgAAA+Z1u+d/Lad4f+kOAGC0xVg+dPe1Wz5QugM4cT4CAANkanc15/APAPSD3MSVU7urm0p3ACfODQAYEJO7Wx9Kqb65dAcAwEONfeCL100cKl0BPDoDAAyAqZn5y5qUPvXgy3cAAPpH5Bw5xt7xxes2/0bpFuD4HCagz03OVa+PdvxHX/UHAPSriNxeN5be+IWdW/5T6Rbg2AwA0McunJ1/8XKkL+WIzaVbAACOK3I1viG98gsf3fLfSqcAj8xLAKFPbZ+JM9t1+r8c/gGAgZBjol5Kv3npzXFG6RTgkRkAoA/tujvWLTbz/2fKcVbpFgCAE5bjqdVidceuu310EfqRAQD60H/5SnUw5fSa0h0AACsXr/svv1f55iLoQ94BAH1memb+XU3EvyrdAQCwFmPj+bI7r9nyb0p3AN9nAIA+cuHM4nnLqf1HPvcPAAy8yFUeW/eiu3Zu/FrpFOBBPgIAfeLy22P9cmr/hsM/ADAUckyk1P4N7wOA/mEAgD5x732tG3LEi0t3AAB0SkS89Etfbe0q3QE8yEcAoA9Mz7Ve1bSb30k5jHIAwFDJOdfjY2Ov+e1rNn+ldAuMOocNKOwNe+Kkumn+rcM/ADCMImK8bpp/u+O22Fq6BUadAwcUdqSpPpkjnla6AwCgWyLiGd96oLqxdAeMOh8BgIIunJt/Qd2kP4yI8dItAADdFJHbOa9/8Rev2/AnpVtgVLkBAIVERG630z9z+AcARkHOsS7y8j+LCH8JCYUYAKCQ6bnqXSnHK0p3AAD0So545bbZ6p2lO2BUWd+ggIv2x2lL1fxf5JzOKN0CANBLEem+ifEt5/7f1+Zvl26BUeMGABSw1Kpuc/gHAEZRzumMhah+tXQHjCI3AKDHJvfOXxDt9AfZ598AgFEVuUl5/Yu8EBB6yw0A6LFop1sd/gGAkZZjLOflQ6UzYNQYAKCHpmbmfyFHvLJ0BwBAaRHx2um5+XeU7oBR4m8hoUd27I/N91fVX6QcZ5VuAQDoC5H/x8aTJ87/3BV5sXQKjAI3AKBH7m+1bnD4BwD4ATmevnSk9fHSGTAq3ACAHti+p3ryQh1fyxGbS7cAAPSTiHx084Z0zn/66JZ/KN0Cw84NAOiBhTpuc/gHAHi4nGPrYjv5WkDoATcAoMsunGu9ol3Xv1u6AwCgX0XOMT6eX3bn1RN/ULoFhpkbANBFEZGXm+bW0h0AAP0sR+RmOXwtIHSZAQC6aGqu9f4c8eLSHQAAfS/HKyZn599dOgOGmY8AQJe8YU+cdLQ9f09K6XGlWwAABkLkb5w+MfGsT1+VW6VTYBi5AQBdMl9XM8nhHwDgxOU46/5W64bSGTCs3ACALti+d+GZi0v1n6UcG0q3AAAMksi5tWk8n/u5qyf+tnQLDBs3AKALFpfqWxz+AQBWLkdsXqjjttIdMIzcAIAOm56p3tBE81ulOwAABlnO46+4a+fmr5bugGHiBgB00I47YrxOMVO6AwBg0EXT3BoR/sISOsgAAB10+N7qQzniOaU7AAAGXo6XTM+13lc6A4aJRQ065JLZOLVVz9+bcjqtdAsAwHDI3zz9MRPnfvr9+WjpEhgGbgBAh7Sa1s0O/wAAnRRPOPzdanfpChgWbgBAB0zNLD47pfafRMR46RYAgGGSc15cl8fO+/y1m/+qdAsMOjcAoAMilg86/AMAdF5EbFyum5tLd8AwMADAGk3ubv10Smlb6Q4AgKGV4ye2zcxfXDoDBp0BANbg8ttjfeTmk6U7AACGXTvlmV0Rzi+wBv4FgjW493C1M0ecXboDAGDY5Whe8OWZ1pWlO2CQeQkgrNK2ffHYenH+npTTyaVbAABGQeT41qatW8/+3BX5gdItMIjcAIBVqpergw7/AAC9kyOfufRAtad0BwwqNwBgFaZm51/URPrDHOHfIQCAHoqcl9etW/ecL3x04z2lW2DQuAEAqxB1utXhHwCg93LE+qbd3l+6AwaRAQBWaHpm/l0px6tKdwAAjKqIuHRytnpz6Q4YNAYAWIEd+2NzpHR96Q4AgFGXo75pxx0xXroDBokBAFbgcKu1KyKeUroDAGDUReRnf+vr1YdLd8Ag8RlmOEHb91RPXlyOv0g5Jkq3AACQUuT07Q2btpz9+avy4dItMAjcAIATtLgcv+bwDwDQP3KkU5dbrX2lO2BQuAEAJ2BqpvXyiPorpTsAAHionHOd0rrn37Vz45+VboF+5wYAPIqIyNE0t5buAADg4SJiPGL5YOkOGAQGAHgU03Ot96UcLyndAQDAMW2bmm39VOkI6Hc+AgDHseO22Hrfd1v35GgeX7oFAIDjiHTP2Wduec6vvycvl06BfuUGABzHt75TzTj8AwAMgJzOuedwdU3pDOhnbgDAMUzNLjwj6vrPU44NpVsAADgBkR7YOLbl7M/tzN8qnQL9yA0AOJaob3H4BwAYIDmdvJSqA6UzoF+5AQCPYHKuen2qm8+U7gAAYIUiN+vWpQt++5otf1w6BfqNGwDwQ3bcEeNRx0zpDgAAViHH2HLTHCqdAf3IAAA/5Nv3zn8wp3hu6Q4AAFYnR/6x6ZmjP1e6A/qNjwDAD7hkNk5diPl7ItLppVsAAFi9yPmvNm2dOO9zV+TF0i3QL9wAgB/Qalp7Hf4BAAZfjnja0pHWx0t3QD9xAwD+0fSexfPr5faf5BzrSrcAALB2Efnohi3p3M9/cMs3S7dAP3ADAP5RXdcHHf4BAIZHzrF1uZW8EBD+kRsAkFKa3t16a5Pqf1+6AwCAzoqcY3w8v+zOqyf+oHQLlOYGACPv8ttjfRP1TaU7AADovByRo45bS3dAPzAAMPLuOVxdk3I6p3QHAADdEREvn5ydf3fpDijNRwAYadv2xWPrxfl7Uk4nl24BAKB7Iue/PWPTxLmfviq3SrdAKW4AMNKa5Wq/wz8AwPDLEU++v9W6oXQHlOQGACNranb+RVGnP0g5DGEAACMgcm6t3zj2rN/+0OZvlG6BEhx8GF0Rhxz+AQBGR47Y3G41v1q6A0px+GEkTc3MXxaRXl26AwCAHsvxxgvnWq8onQElGAAYOZd9KjallG4s3QEAQBntdnMoInwcmpFjAGDkfOObrV0R8ZTSHQAAFJLjJdNzrfeVzoBes3oxUib3V09KVXwt5Zgo3QIAQDmRx/7hjFM2n/Pp9+ejpVugV9wAYLRU8asO/wAA5Ggef98D1U2lO6CX3ABgZEzNtF4eUX+ldAcAAP0h57w4tn78/C98ZNP/KN0CveAGACPhwZe8NIdKdwAA0D8iYmN7ub65dAf0igGAkbBttvXeiHhp6Q4AAPpLjnjLtpn5i0t3QC8YABh6O26LrXVKnyjdAQBAf6ojZndFOBsx9PwhZ+jd90B1U47m8aU7AADoW8//0mzritIR0G1eAshQ27Zv4enNcv3nEbGxdAsAAP0rcnxrfGzrOXdek79bugW6xQ0Ahlq9WN/i8A8AwKPJkc+MdjVXugO6yQ0Ahtb03PwlTR2fLd0BAMBgiJyXx9K65961c+PXSrdAN7gBwFDacUeMR5NmS3cAADA4csT6iHp/6Q7oFgMAQ+nwvQtXRsTzSncAADBomkumZqo3la6AbjAAMHTeeCAek1K9s3QHAACDKZpmZtfdsa50B3SaAYChc6Sq9kSk00t3AAAwoHI6/3d+r/pQ6QzoNC8BZKhcOLN43nLT/tOcLbYAAKxe5PTtDZu2nP35q/Lh0i3QKW4AMFTaUR90+AcAYK1ypFOXW619pTugk9wAYGhMzVQ/GdF8unQHAADDIedcrxtb/4LPX7Ph/yvdAp3gBgBD4fLbY31Kze7SHQAADI+IGF+ulw6U7oBOMQAwFL52uPpoRDq3dAcAAENn2/Tu1ltLR0An+AgAA2/7TJy5lObviUinlG4BAGD4RM73nnP6xLN//T15uXQLrIUbAAy8hVztd/gHAKBbcsTZ9xyurindAWvlBgADbdve+RfWS+kPUw5jFgAA3RPpgfGNW875wkfy/yqdAqvl0MRAq5fikMM/AABdl9PJ7XZ1S+kMWAsHJwbW9Nz8O1JOryndAQDAaMh1+tlte+dfWLoDVssAwEC67FOxqWmnG0t3AAAwQnKMtdvNwdIZsFoGAAbS336z9fGU46mlOwAAGC058o9Nzxz9udIdsBpeAsjAmdxfPSlV8bWUY6J0CwAAoydy/qtNWyfO+9wVebF0C6yEGwAMnioOOfwDAFBKjnja4tHWx0p3wEq5AcBAmd5T/WjTbr5augMAgNGWc55ftzmd8/kPbvlm6RY4UW4AMDAiIjfLcah0BwAARMSW5Vby/5syUAwADIzp2dblKcfLSncAAEBKKUVKPzk1W720dAecKAMAA2HHbbE1InaV7gAAgO/JETmFG6oMDgMAA+FbD1Q3phRPKN0BAAA/KCJePjUz/wulO+BEeAkgfW/bvoWnN8v1n0fExtItAADwwyLnv91y+sSzPvueXJVugeNxA4C+115ufs3hHwCAfpUjnty6v+XjqvQ9NwDoa5O7F16XUvuLpTsAAOB4IufW+o1jz/rtD23+RukWOBY3AOhbuyLGUmofLN0BAACPJkdsbreaXy3dAcdjAKBvfWm2dUVK6fmlOwAA4ITkeOO2mdYrS2fAsRgA6EtvPBCPiaa5rnQHAACsRDs1hyLCR63pSwYA+tLRVjWXczqjdAcAAKxEjnjxttnWe0t3wCOxTNF3LpxZPG+5af9pzrGudAsAAKxU5LF/OOOUzed8+v35aOkW+EFuANB36lQfcPgHAGBQ5Wgef98D1U2lO+CHuQFAX5meqd7SRPMfSncAAMBa5JwXUx5/9l3XbvrL0i3wPW4A0Dcuvz3WR2pmS3cAAMBaRcTGqOubS3fADzIA0De+fn/1kYh0bukOAADoiBxvnpyb3146A77HAEBf2D4TZ6YUHy3dAQAAHVXH3K4I5y76gj+I9IXFaN0ckU4p3QEAAB32/C/Ntq4oHQEpeQkgfeDCufkXtNvpj1K2jAIAMHwi0n3j67acfec1+bulWxhtDlwUt9w0hxz+AQAYVjmnM9pN5WXXFOcGAEVN7m69PaX635buAACAboqcl8fSuufetXPj10q3MLr8rSvFXPap2BS5+WTpDgAA6LYcsb5J9YHSHYw2AwDFfOObretyxNNKdwAAQC/kaC6emqneVLqD0WUAoIjpPdUTc4oPlu4AAIBeiqaZ2XV3rCvdwWgyAFBEU8fBiNhSugMAAHoqp/O//NXqqtIZjCYvAaTnts1UP9JO8dUc4c8fAAAjJ3L69ljacs5dO/P9pVsYLW4A0FMRkesmbnX4BwBgVOVIp6bU2lO6g9FjAKCnts1W7045Xla6AwAAyop3XjS39JzSFYwWAwA9s21fbImUri/dAQAApUXEeLtZPli6g9FiAKBn2u3qhoh4YukOAADoBxExPb279dbSHYwOn8OmJy6abT2tHc1/j4iNpVsAAKBfRM73nnH2xHM+/da8VLqF4ecGAD2x3MSvOfwDAMBD5Yizv31v9dHSHYwGNwDouqnZ1mujqe8u3QEAAH0p0gPjG7ec84WP5P9VOoXh5gYAXbUrYiya+lDpDgAA6Fs5ndxuV7eUzmD4GQDoqi/NtH4lpfT80h0AANDPcp1+dtve+ReW7mC4GQDomum5OCWi+VjpDgAA6Hs5xuqlcHOWrjIA0DXtpprNOZ1RugMAAAZCTq+Z3N16e+kMhpeXANIVP75n8VmLdftPc8T60i0AADAwIv/1WU+aOO9fvysvlE5h+LgBQFcstesDDv8AALBCOZ76jW+2riudwXByA4COm5yt3pya5j+W7gAAgEGUc57P4/ncO6+e+PvSLQwXNwDoqMtvj/VRN7OlOwAAYFBFxJa6HQdKdzB8DAB01F/eX30o5/Ss0h0AADDQctoxuad6WekMhosBgI659OY4I1JcU7oDAAAGXY7IadnXAtJZBgA6plps7YtIp5TuAACAoZDjR6dm5n+hdAbDw0sA6YjJ3UvPT7H8X1MOoxIAAHRK5L+bOHPi3M++J1elUxh8Dmt0RM7Lhxz+AQCgw3I8qXV/a1fpDIaDGwCs2fTu1s82qf53pTsAAGAYRc6t8bGx8+68ZvPflG5hsPkbW9Zk+62xsc7N7tIdAAAwrHLE5mgaLwRkzQwArMnS0dbOHPG00h0AADDMIuJN03OtV5XuYLAZAFi16T3VE1OKD5XuAACAUdDUcSgifIybVTMAsGp1Ow5ExJbSHQAAMBqaC7bNtt5buoLBZT1iVSb3VC+LOn4vWyABAKCX/ufWdVvO+czV+UjpEAaPGwCsWETkqONWh38AAOi5x1V1dWPpCAaTAxwrNjUz/wsR8S9KdwAAwEiKvJTHx8+/69pNf1k6hcHiBgArsm1fbEkpWRwBAKCUHBuiaX6tdAaDxwDAitTLresj4omlOwAAYLQ127fNLkyWrmCw+AgAJ+yi2dbTlurmz3OOTaVbAABg1OWc//S0syde9Om35rp0C4PBDQBO2HLd3OrwDwAA/SEinnf/Pa1fLt3B4HADgBOybab1Y3XU/7l0BwAA8H0R6b6Tt2w557c+mL9TuoX+5wYAj2pXxFg7xaHSHQAAwEPlnM74bquaKd3BYDAA8Kh+d6b1/hzNC0p3AAAAD5dTeveP71l8VukO+p8BgOOanotT6lx/vHQHAADwyHLE+sW63l+6g/5nAOC46rranSOfWboDAAA4thzNxdNz1RtLd9DfDAAc09TM4rkpp8tLdwAAAI+ubpq5XXfHutId9C8DAMfUpPpAjlhfugMAAHh0OdJ5X/5qdVXpDvqXrwHkEU3PVW9s6uY3S3cAAAAnLnL69ljacs5dO/P9pVvoP24A8DC77o51ddPMle4AAABWJkc6NaXWntId9CcDAA/z5a9WV+VI55XuAAAAViPeuW330nNLV9B/DAA8xKU3xxlNE9eW7gAAAFYnIsbbaflg6Q76jwGAh6gWW3tyTo8p3QEAAKxeTjE1OVvtKN1Bf/ESQP7J5O6l5+e8/EcRMV66BQAAWJuI/PUzzp149qffmpdKt9Af3ADgBywfdPgHAIDhkHM889v3Vh8t3UH/cAOAlFJKk7tbP51S/b+X7gAAADoo0gMpbzn3i9fl/1k6hfLcACBtvzU2pmhmSncAAAAdltPJKbf2lc6gPxgASEtHqmtTjqeX7gAAALqgibdNzc6/qHQG5RkARtxFB+af0ET6UOkOAACgS3KMpYhDpTMozwAw4paqtD/n2Fq6AwAA6J6I9OrJ3a23l+6gLC8BHGGTe6qXRR2/lyP8OQAAgGEX+a/PetLEef/6XXmhdApluAEwypbjkMM/AACMiBxP/cbft3aWzqAch78RNTU7//PRxL8s3QEAAPROznk+j+dz77x64u9Lt9B7bgCMoG37YkvU6cbSHQAAQG9FxJa6HQdKd1CGAWAENcutT6QcTyrdAQAAFJDTjm0z1Y+UzqD3DAAj5uKbW09tmriidAcAAFBGjsjtFIfC+8BGjgFgxCwsNIdyjk2lOwAAgHJyxI9Mz1XvKt1Bb1l8RsiFc63XtOv6d0p3AAAAfSDy302cOXHuZ9+Tq9Ip9IYbACNiV8RYu45DpTsAAIA+keNJrftanyidQe8YAEbEl2Za70upeWHpDgAAoH80EVdOz7WeUrqD3jAAjIDpuTglcr2rdAcAANBfco5N0TRuCo8IA8AIaNfVJ3PkM0t3AAAA/Sci3jQ913pV6Q66zwAw5KZmFs/NOb23dAcAANC/mjoO7YpwPhxy/gcechH1/hyxvnQHAADQz5oLvjTXurx0Bd3lawCH2ORc9fpUN58p3QEAAAyE/7l13ZZzPnN1PlI6hO5wA2BI7bo71qV2s6d0BwAAMDAeV9XVjaUj6B4DwJD63a/OfyDldH7pDgAAYHA0Tfql7XsXnlm6g+4wAAyhqZk4vW7SdaU7AACAAZNjw0K7ubV0Bt1hABhKrT05p8eUrgAAAAZPjubi6d0LU6U76DwDwJCZnlt6XkrxztIdAADA4IpcH9hxR4yX7qCzDABDpm6WD0b4FxUAAFi9iHje/fe0frl0B53lawCHyNRs66eiqf+P0h0AAMDgyzndv3XzlrN/64P5O6Vb6Aw3AIbE9ltjY4pmpnQHAAAwHCLS6Ufnq92lO+gcA8CQWDpaXR0RzyjdAQAADI8mpcsvnFk8r3QHnWEAGAIXHZh/QtOkj5TuAAAAhkvOsa4d9f7SHXSGAWAILFXp5pxja+kOAABgGDXbp+eqN5auYO0MAANuarZ6acrpZ0p3AAAAw6tumrldd8e60h2sjQFg0EUcyhG+zQEAAOiaHOm8L/9e9cHSHayNg+MAm5ydf2dq4lOlOwAAgOEXkb4zNrbl7Lt25vtLt7A6bgAMqEtvj4mI9MnSHQAAwGjIOT0mojVXuoPVMwAMqOr+1sdzxJNLdwAAAKMj53jX9NzS80p3sDoGgAF08c2tp0YTHyjdAQAAjJaIGK/r5QOlO1gdA8AAWlhoDuQcm0p3AAAAoyenmJqcrXaU7mDlDAADZmqm9eqU482lOwAAgNEVdczuuCM2lO5gZQwAA2RXxFhKcah0BwAAMNpyjmd+6+vVR0p3sDIGgAHyu7Ot90Q0LyrdAQAAkCOuntwdjyvdwYkzAAyI7bfGyZHi+tIdAAAAKaWUI52Ucmtf6Q5OnAFgQCwdrT4ZEY8t3QEAAPBPmnjb5N75C0pncGIMAANg297Fc5qU3le6AwAA4CFyjOV2HCydwYkxAAyApt3enyPWl+4AAAD4YRHp1VOzrbeV7uDRGQD63PTc/CURcWnpDgAAgGOJutl92adiU+kOjs8A0Md23R3rmnZ4qQYAANDfcjz1G3/f2lk6g+MzAPSxL31l4cqU0/mlOwAAAB5NznHV5P7qSaU7ODYDQJ+amonTI9fXle4AAGqCdAwAACAASURBVAA4ERGxJS/ELaU7ODYDQJ+qU2s2Rzq1dAcAAMCJalJ667aZ6kdKd/DIDAB9aNvupeeOp/j50h0AAAArkSNyO8WhiMilW3g4A0AfaqflgxExXroDAABgpXLEj0zPVe8q3cHDWWX6zORstSM1zR2lOwAAAFYr5/z3Y+snzv3CR/J86Ra+zw2APrL91tiYI+ZKdwAAAKxFRDyxWWp9vHQHD2UA6CPLR6uPRMQzSncAAACsVRNx5cU3t55auoPvMwD0iYv3zj++TvHR0h0AAACdkHNsWlhoDpTu4PsMAH2iVad9OdJJpTsAAAA6Jsebp2Zary6dwYMMAH1gek/1khTpbaU7AAAAOi8O7Ypw9uwD/kfoA81yHMq+JxMAABhCEc2LvjTXurx0BwaA4qbn5t+RcryidAcAAEDXNM3122+Nk0tnjDoDQEGX3h4TdZN2l+4AAADosse15qvrS0eMOgNAQa37W9fliCeX7gAAAOi2sTq9f/vehWeW7hhlBoBCpudaT2lSfLB0BwAAQE/k2LDQbm4tnTHKDACF1E1zIEdsLt0BAADQKzmai6d3L0yV7hhVBoACpudar8oRbyndAQAA0Gt1qg/uuCPGS3eMIgNAj+2KGGvqOFS6AwAAoISc4rmH7229v3THKDIA9NiD33/ZXFC6AwAAoJzmE5fMxqmlK0aNAaCHtt8aJ+eIG0p3AAAAlBSRTl+oq5tKd4waA0APLR+tboiIx5buAAAAKK1J6fILZxbPK90xSgwAPXLR7MLZTZN+qXQHAABAP8g51tWpPlC6Y5Tk0gGjYvKm+c+kHK8v3UF33bVzS+kEAIChMjUzXzqBLhvLY2+8c+fEZ0p3jAI3AHpg28z8xQ7/AAAAD1c3zd7Lb4/1pTtGgQGgy3bdHeua1Owr3QEAANCPck7P+vrh6gOlO0aBAaDLvvyV1q9E5GeX7gAAAOhXTR07L705zijdMewMAF100f44rcnNx0t3AAAA9LOc02OqxdZs6Y5hZwDoovZCNZMjnVq6AwAABlW9vPBP/2nq5dI5dFHO8a7puaXnle4YZgaALrlobuk5KaV3l+4AAIBB1ixX//SfevGIEWCIRcR43SwfLN0xzAwAXdJulg9GxHjpDgAAGCb14pHUtJdKZ9AlOWJyaqb6ydIdw8oA0AVTs9VPRMR06Q4AABhG9dJRI8BQiz3bb42NpSuGkQGgw3bcERuaOvaU7gAAgGFmBBheEfGM1nz14dIdw8gA0GGH760+nHM8s3QHAAAMOyPA8MoRV0/ujseV7hg2BoAOunjv/OObFNeU7gAAgFFhBBhOOdJJKbX2lu4YNgaADlpo570P/kEFAAB6xQgwpCLePrl3/oLSGcPEANAhF87OvzhSvL10BwAAjKIHR4DF0hl0Uo6xtJQOlc4YJgaADlmOdChH5NIdAAAwquqleSPAsMnxqqnZ1ttKZwwLA0AHTO5uvT1HvLJ0BwAAjDojwBCKZmbH/thcOmMYGADW6NLbYyJFM1O6AwAAeJARYLhExFMOL7S8bL0DDABr1LqvtTPlOKt0BwAA8H310nyqlxdKZ9Ah0cSHJ/dXTyrdMegMAGtw4S2ts5ocV5XuAAAAHq5ZrowAwyLHRF6IW0pnDDoDwBrUi83+HD6LAgAA/coIMDyalN46vaf60dIdg8wAsErTc61XRcRPlu4AAACOzwgwHHJEbpbjUPj2tVUzAKzCroixpg7fRwkAAAPCCDAkcrxs22z1ztIZg8oAsApfnqvenVJzQekOAADgxD04ArRKZ7BGkdJN2/bFltIdg8gAsEJv2BMnRRM3lu4AAABWrlluGQEGXEQ8sV5ufax0xyAyAKzQfF1dn1J6XOkOAABgdYwAgy+a+MBFs62nle4YNAaAFbhoduHsaNIvl+4AAADWpllupXqpKp3BKuUcm5brZn/pjkFjAFiB5aY5mHJsKN0BAACsXdNeMAIMshxvvnCu9ZrSGYPEAHCCJncvbEupuaR0BwAA0DlGgMFWN3FwV4Rz7Qnyf6gTsOOOGI9cHyjdAQAAdJ4RYHBFNC/68mzrF0t3DAoDwAm4/57WL+eI55TuAAAAuuPBEWC+dAarEjduvzVOLl0xCAwAj+Ki/XFaiuYTpTsAAIDuatqLRoABFBGPbc1X15fuGAQGgEexuFDdlHI6rXQHAADQfd8bASKidAorMFan9180u3B26Y5+ZwA4jovmlp6Tm+TzJAAAMEKa9mJqlisjwCDJsWG5aQ6Wzuh3BoDjWK6XDuQc60p3AAAAvWUEGETNJVOzC9OlK/qZAeAYJmerN6eUtpXuAAAAyvBxgMHTRH1wxx0xXrqjXxkAHsGOO2JDROwt3QEAAJQV9ZIRYIDkiOccvrf1/tId/coA8Aju+3r1oRzhBRIAAIARYOA0n7hkNk4tXdGPDAA/ZHJ3PC5FXFu6AwAA6B9GgMERkU6vmuqTpTv6kQHgh+Tc2pMjnVS6AwAA6C9GgAES6T3TexbPL53RbwwAP2By7/wF0cTPle4AAAD604MjwFEjQJ/LOdZFXe8v3dFvfMXdD1pKh1IOowhD6zUf+0bpBACgz/yXm84qnTBwol5O9dLRNL5ha8o5l87hGCKaH5+eqd5w586Jz5Ru6RcOu/9oarb1tpTjVaU7AACA/ve9EcBNgP5WN83ey2+P9aU7+oUBIKW0Y39sjrqZLd0BAAAMDiNA/8s5Pesv75+/snRHvzAApJTub7WuTTncfQIAAFYk6uVULx4xAvSxuknXXXpznFG6ox+M/ABw4S2ts1LEh0p3AAAAgymathGgj+WcHnN0qTVTuqMfjPwAsLzQ3JxyTJTuAAAABpcRoL+Np/j5yd1Lzy/dUdpIDwDbZlqvzCneWroDAAAYfEaA/hUR4yktHyzdUdrIDgARkdupOVS6AwAAGB5GgH4Wr5uaqX6ydEVJIzsATM1Vv5AjXly6AwAAGC5GgH4We7bfGhtLV5QykgPAG/bESRH5k6U7AACA4fTgCPBAiqYpncIPiIhnLB2tRvYl8CM5ABytW5/I0Ty+dAcAADC8oqlTvXTECNBnmhTXXLx3fiTPgyM3AGzfu/DM1MQVpTsAAIDhZwToPznSSQvLeU/pjhJGbgBYatcHU44NpTsAAIDRYAToP5Hj5y6cnR+5d8KN1AAwNbswHRGXlu4AAABGixGgv+SIvBxp5L4VbmQGgB13xHjT1AdKdwAAAKPJCNBfcsQrp3e3frZ0Ry+NzADw7Xtav5RTPLd0BwAAMLqiqVPbtwP0jcjN7I79sbl0R6+MxABwyWyc2kRzfekOAACAFI0RoE9ExFMOL7SuKd3RKyMxACzU1U0pp9NKdwAAAKSUjAB9JJr48PY91ZNLd/TC0A8AUzOLz25Surx0BwAAwEMYAfpDjomFduwrndELQz8ANKk+kHOsK90BAADwMP80AtSlS0ZbTj81NdN6eemMbhvqAWBqpnpTjubC0h0AAADHFE1qLx4xAhSUI3JKzaGIyKVbumloB4Add8SGJo3GNQ4AAGDAGQGKi4iXbput3lm6o5uGdgD41terD+aIs0t3AAAAnBAfByguUrppx22xtXRHtwzlADC5Ox43VsfO0h0AAAArEmEEKCginnj/d1vXle7olqEcAJrcmk05nVy6AwAAYMWMAEVFEx+4aLb1tNId3TB0A8Dk3vkLxpq4rHQHAADAqhkBisk5Ni1Fc0vpjm4YugEgLaVDKcfw/fcCAABGyz+OAE3dLl0ycnLEW7bNtH6sdEenDdVBedts62dSjleV7gAAAOiIiFQvHTECFFBHHNwVw/WXy0PzX2bH/tjcRDNXugMAAKCjjACFNC/88mzrF0tXdNLQDACHW9XVEfGU0h0AAAAdZwQoJG7cfmsMzQvmh2IA2L6nenJE+kjpDgAAgK4xAvRcRDx26Wi1q3RHpwzFALDQjn0px0TpDgAAgK4yAvRcNOmXt+1dPKd0RycM/ABw4VzrFTnFT5fuAAAA6ImIVC8+kJp6uXTJaMixoV6uD5TO6ISBHgAiIrfbzaHSHQAAAL1WLx4xAvRMc8nk7oVtpSvWaqAHgOm56l0px0tKdwAAAJRgBOidyPWBHXfEeOmOtRjYAeANe+KkJvLu0h0AAAAlGQF6I0c859v3tH6pdMdaDOwAcLTd+niO5vGlOwAAAEozAvRGE831l8zGqaU7VmsgB4Cp2YVn5BxXlO4AAADoF0aAHsjptKqpPlk6Y7UGcgBooj4QERtLdwAAAPSTevFIatpLpTOGW6T3TO9ZPL90xmoM3AAwvXthKke8oXQHAABAP6qXjhoBuijnWNe0B/NrAQdqANhxR4zXqT5YugMAAKCfGQG6rblocq56femKlRqoAeD+r7fel1M8t3QHAABAvzMCdFdumpsvvz3Wl+5YiYEZAC6ZjVNzNNeX7gAAABgURoDuiUjn/uX981eW7liJgRkAFqK6MSKdXroDAABgkDw4AiyWzhhKkdLHts/EmaU7TtRADADTexbPb5r03tIdAAAAg6hemjcCdEFEOqWVWrtLd5yogRgA6ro+mHOsK90BAAAwqIwA3THWxC9M7l56fumOE9H3A8D0TPWGHM2FpTsAAAAGnRGgC3KMpbQ8EN9W19cDwI47YkPTNDeX7gAAABgW9dJ8qpcXSmcMmXjd1Gz1E6UrHk1fDwCHv15dmXI6p3QHAADAMGmWKyNAh0Ud+7bfGhtLdxxP3w4A2/bFY6OOj5XuAAAAGEZGgA7L8fSlo9WHSmccT98OAM1yaybldHLpDgAAgGFlBOispknXXrx3/vGlO46lLweAqdn5F0UT7yrdAQAAMOyMAJ2Tc2xdbOe50h3H0pcDQIo49OCbFAEAAOi2B0eAVumModCkeMf0nuolpTseSd8dsqdmWz8VkV5dugMAAGCUNMstI0AH5Ihc19GXXwvYVwPAjv2xOepmT+kOAACAUWQE6Iwc8crp3a2fLd3xw/pqADi8UH0k5Xhq6Q4AAIBRZQTojCaauR37Y3Ppjh/UNwPA9j3Vk6NJV5fuAAAAGHXNcivVS1XpjMGW46zDraqvzrh9MwAs1rE35Zgo3QEAAEBKTXvBCLBGEekj2/dUTy7d8T19MQBMzbReHin9dOkOAAAAvs8IsEY5Jhbasa90xvcUHwAiIqfUHMoRuXQLAAAAD2UEWJuc4qenZlovL92RUh8MANtmq3dGxEtLdwAAAPDIHhwB5ktnDLDmUPTBX3oXHQB23BZbm0i7SzYAAADw6Jr2YqqX5lNElE4ZOBHx0qm56rLSHUUHgMPfaX0spXhCyQYAAABOTNNeTM1yZQRYjSbN7LgttpZMKDYATM0uPCPl+ECp5wMAALByRoDViifc/53WzpIF5W4ARH1LRGws9nwAAABWxccBVifnuGrbvoWnl3p+kQFg2+zCZES8qcSzAQAAWLuol4wAKxQRG9vL9c2lnt/zAWDHHTHeRH2w188FAACgs4wAK5cj3rJtpvVjJZ7d8wHg8Ndb74mI5/X6uQAAAHSeEWDl2ikO7Yro+Xm8pw+8ZDZOTdHc2MtnAgAA0F1GgJXJ0bzgy3PVu3v93J4OAAtRXR+RTu/lMwEAAOi+B0eAo0aAE9REc9P0XJzSy2f2bACY3rN4ftOkX+rV8wAAAOitqJeNACcoRz4zmuoTvXxmzwaApl0fyDnW9ep5AAAA9J4R4MQ1Kf3Ktr2L5/TqeT0ZAKZm5i9NqbmoF88CAACgLCPAickR65t2e3+vntf1AeDy22N9SnFLt58DAABA/zACnJiIuHTb7PyFvXhW1weAe+9buCIindvt5wAAANBfol5O9eIRI8CjaKI5sOvu7n9kvqsDwPaZODPn+uPdfAYAAAD9K5q2EeBRRORn/+5XWu/r9nO6OgAsRmsmIvX0aw0AAADoL0aAR9dEc/1F++O0bj6ja1cMtu2df2G9FD+fcreeANBdk8+bSOc/aUPPnve/vttOn/7q0Z49j8F00Qsn0tmP792fy7873E6/+fv+XPLo3vHak9NJm3r2BVPpN3//aPq7w+2ePQ9Yu++NAOMbT0o5Oyg+TE6ntReqG1JKv9KtR3RtAKiX4lDKvfuaQYBOe9k5m9LFF2zp2fP++98tGQB4VK84b3N63XMneva8//Y/FgwAnJBLX7wlPf7U3n3j81e/1jIAwAAyAhxf06T3Ts0s/vO7dm78s278/K4c0Cdnqx0pp9d042cDAAAwuB4cAR5I0TSlU/pOzrGuSfWBbv38jg8Al30qNqU69nX65wIAADAcoqlTvXTECPAIcjQXTs5Vr+/Gz+74APA3/1B9JOV4aqd/LgAAAMPDCHAc7eaWy2+P9Z3+sR0dACb3V08ai3R1J38mAAAAw8kIcAw5nXPvfQtXdPrHdnQAyAuxJyJ698YsAAAABpoR4JHlXH98+0yc2cmf2bEBYHpP9aNNSj/bqZ8HAADAaDACPFxEOmUxqps6+TM7MgBERG6W41CO8D0OAAAArFg0dWr7doCHivTuC+fmX9CpH9eRAWB6tnpHyvGyTvwsAAAARlQ0RoAflGOsbtLBTv24NQ8AO26LrRFpthMxAAAAjDgjwENExGunZquf6MTPWvMAcP93WjtTiid0IgYAAACMAA8VdezbfmtsXOvPWdMAsG3fwtNzjqvWGgEAAAAP8U8jQF26pLwcT1+Yr9Z89l7TANBerm+OWPsKAQAAAA8TTWovHjECpJRSnXZedGB+TbfvVz0ATO5eeF2OeMtaHg4AAADHZQRIKaWUc2xtt/Ka3r+3qgFgxx0xnlK7Y28iBAAAgGMyAqSUUmpSvGN6T/WS1f7+VQ0A93+99Ysppeev9qEAAACwIt4JkHJEbpbj0Gp//4oHgDceiMdE3XxytQ8EAACAVYkY+REg5XjFttnWz6zmt654AJhvVbtyTmes5mEAAACwJkaAVNfNnktvj4mV/r4VDQBTswvPqFN6/0ofAgAAAB3zjyNAU7dLl5SR46zWfdVHV/rbVnYDIOobc8T6lT4EAAAAOioi1UtHRngESB+e3B2PW8lvOeEBYHL30vOjSav6nAEAAAB03AiPABGxpUnVdSv5PSu4AdCeSTlW9a0BAAAA0BUjPAKMRXrPxTe3nnrCv/5EftH0XOtVKTWXrD4LAAAAumRUR4AcGxaX4oYT/eUnNABE42v/AAAA6GOjOgKkePv0nsXzT+RXPuoAcOHs/Isj4rVrbgIAAIBuikj14gOpqZdLl/RMRIzX7fb1J/JrH3UAaEf60JqLAAAAoEfqxSMjNQKM5fQTJ/IugOMOABfe0jormrSjc1kAAADQfaM0AkTEeLXcXPlov+64A8DyUnNlzrGuc1kAAADQG6M0AuSId2+/NU4+3q855gDwhj1xUq7jFzufBQAAAL0xKiNAjnTS0tGFdx/v1xxzADjaVD+VcjruegAAAAD9blRGgGiaK3bcEePH+ufHHAAi0ju7UgQAAAA9Vi8eSU17qXRGd+V46rf/svrxY/3jRxwALppdODtHvLJ7VQAAANBb9dLRoR8BmiZddqx/9ogDwHI0x/wNACvxjMetTzf89OnpVedvTuuPeRmJQZRzShc8Y2P66JtOTa86f3PpnBU5//9n787jpKruvI9/z63qpaobaGj2RdxXunHUaIxLZHMejcaMGY2Z55mZZDITMzHjGhXQJDaLa0wyUZNoFo0xiYLGDUVZbVDcorKJAiqoKGsv9FK9Vp3njwJEoKGXqjr3Vn3er1deMUBX/YKnb9f93nN+v2H5+snF/XTqUYUKHXAgLoLEM9IXDi/QpAv76eQjCl2X02V5IenW/9df5/xDVEUFxnU5SBFjpNEHF+jaC/rqjIBdL4FslO0hgJG+esHPbcm+fm+vDv/WWjNueuxfxc8cACkwrjyqMaOS/6lvSuiFt2OatyympetbZK3r6tAdRw/L1/jRUY0ti6p/r2Sq07c4pBffaXJcWedNOD6qceVFGldepLpYXAtWNmneskYt/zB7Pwxku+NG7FiXo6LqW5xcl/lh6bW1zY4r65pTjozoS0cn/3P1V62WrG7S3KWNemVts9rjrqtDVx0+OE/jR0c1YXRUA3onP3b36xXS4gBdL4FsFW9tkFQsL5zvupSUs9YWNDQ1fUPSvXv+3l4BwD/e1nyGjB2ZkcoAZL1xZdFd/9wr4un8k4p1/knF2lYX17zljZq3LKY1G7O/IUvQjRwQ1rjyqCaUF2lY6d7TYU8+vFDFhUYNzf5PdYyRzhr12brsHQ3paycX62snF2tzbbvmLY9p7rKYPtjMuvS7QwflaVx5VOPLoxrSd+91+aWjIyrIM2pp8/+63Glc2WdPhwvyzOcC1AUrYppLUOV7Q/qGNL48qgmji3TwwLy9fv/kwwtVVGDU2BKcdQlkq2wOAST77+pMABBPJC7ISD0Ast4xw/I1tN/eH8olqX/vkC45vbcuOb23PtraprnLYpq3PKZPqtszXCU6MrBPaNfN1RFD9v+DMS9sdOaxUT37ZmOGquu+4w8u2LVzYU+DSsL6v2f21v89s7fWbW7T3GWNmrc8pk21PHr1iyF9QxpXlry5OmTQ3jdXu4vkezrt6EItWBGMp60FeUZfOnrf28N7RTxdcHKxLtgRVM1ZltxNtW4LQZUflBR5GjsqqvGjoxp1UMF+/2xe2OjM46KaHYDrJZALkiFAkbzw/r93g8Zae+o/3tJ8+POTCt/b/df38cncnpepogBkt3Gjowf+Q5IOGpCn74zvo++M76NVH7do7rKYFqyIqaYxkeYKsac+UU9njYpoQnmRykbmy5jOnwcbVx6MAGB8eefW5SGD8vTds0v03bNLtOLD5LpcuDKm7THWZab1LfI0piwZRh3o5mpP48qigQkAvnRUoSL5B25KMagkrH/9cm/965d7672NrbsC1K11BFWZFMk3Ov2YiM4eHdVJhxcq5HX+ejm2LEIAAPhIvDX5/ZhtIUBbwl4g6c7df+1zAcC4m1uOtLbtyIxWBSArGSONGdX1RkfHjijQsSMK9INzS/TG+y2at7xRi1Y1KcZWybTZ+SF2wuioTjqsUOFQ95rAnHBogUqKPNX6OLgJedKZx3V9XZaNLFDZyAJd/pUSvf5es+Ytj+nFd5rU1Mq6TJeiAqMzj41o/OginXBoQZdurnZ3ypGRwGy3HlvWuXBqd4cPydfhQ/L1vX/so7fWJYOqyrdjgTiOE0ThUHIL/4TRRTr9mEIV5HWvi+iJhxaqd8RTXZN/r5dArsnGEMCYxHnaXwBgbeL8jFYEIGuVjyzY1fCoO0Ke0clHFOrkIwp1zc5GWMtiemVNE42wUiAvlLwxGl8e1WlHd/9D7O5CXvK88uOvNqSgwvT4wuGF6hPt/jiKcMjo1KMiOvWoiJpbE3rxnSbNXR7Ta2ubFedzfI/lh6VTj4xo/OioTj0qovxwzzsS54eTQcLst2IpqDB9IvlGXzyy+93hjTE64dBCnXBooa46v++O5oHJa2Yb18weG31wgcaXRzVmVES9e3AN2SkcMjprVERPvc4uAMBPsi0ESCR0+gU/tyVPXmVqd/7a5wMA036+sbT/B9Bz4zq5zboz9myExSSB7jFG+odDkh9iv3xcVL0iqZ9/N67M3wHAuG48Ye1IYb6n8aOLNH50kbbH4lrIJIFuCXnJp6HjyqP68nERRQtSvy7Hlkd9HwCcfkyyYWEq5IeNzjouqrOO++yaOWdpTMvWt6Tk9XPFoYPydPboqMaVRzWopPuBdkfGlkUJAAAfyqYQwBgbro81/x9JD+/8tV1Xswl32KL2lthpMnyaBtAzIU86qxvbrDtj90kCW+vaNX9Hx/a1TBLo0DG7je0r7aD5XaqUjczXgN4hX55Fzg8nb7LSoQ+TBLps1EH5O56ofja2L11OPLRQfaKer/s3pDKc2t3u18wt29s1b1lMc1ibHRrSN9n89OwOOvin0vEHF6hfsafqBv+uSyBXxVsbZa1VKK/QdSk9tuMYwN4BQLy15WRjbOrjTQA558TDClVSlN4P9JI0oHd41ySBD7e2ad6ymOYub9Sn1f67+cy0kQPCGl8e1fgOxvalizFGY8uieuSl+oy9Z2d98ciIigpT/3R5T7tPEvhgc6vm7WjQxiSB5BPV8TsmSwzex9i+dAmHjM46LqInffq0tbjQ6AuHp/9D5sA+Yf3Lmb31LzvW5pylybW5ZXtur80+UU9jRkU1YXRUZSMz98TP84zOGhXV317x764pIJcl2pI7x4IfAtj/Y601xiSf9O/66euZ+GkJHv4DSIF0Pcnan5FMEtg1tm9CeVSHH2BsXzqNK/dnANDZ7v+pdOigfH337Hz914Q+WvlRa05OEtj5RHVC+YHH9qXTuPKobwOAM4+NKi8F/Q664tBB+freP+br0rP7aNn6Fs1ZFtMLK3OneeDO5qfjy6P6wuHdb37aU+PKCAAAP8uGEMBalY6/pfUYSauk3QIAK3OalBsXfQDpkxeSzjg2PdusO2vPSQJzlyUnCWRjx/adT67Gl0e7PLYvXY4elq+h/UK+2okRyTc69Sh3P7yNMfucJLB4VZOa27JvXfYt8jS2LDkT/bgR/jhDWT6yQKW9PFXV+y986U73/1Qxxuj4Qwp1/CGFuuq8vnplTZPmLIvp5dVNam13VlZahDzp5CMKNaE8qtOPiaiwEyMX023UQf49NgUgKStCANP+Je0eAPzEWu/FWxpPdVoVgKxwypERFWdgm3Vn7D5J4IdtCS1Z3ay5Sxv1ytrmQE8SiOQbnXFsRBPKozqxB2P70ml8eZEefKHOdRm7JBus+WNd7nOSwLKYXnsv2JMEigqMzjwuGUb1ZGxfunhe8njKzCX+etraJ+rphEP9EZLkhY3OODaqM46NqqE5ocq3k70s3loX7IarZSPzNWF0kcaMivRoCkg6GGM0piyiGS/5a10C+LxkCGAVynP7kKvbEuY0Sb+TdgQAL93Wqhsh6gAAIABJREFUdpy16uO0KABZwcX2/84oyPP2miQwd1myK3YQPtjuHNs3YXRUXzoqNWP70mlcWdRXAYBf1+W+JgnMXdaoFQGZJJAflk49Krkuv3hkasb2pdO4cv8FAGcdF/FliFdc6OkrJxbrKycmG67OW5a8Zr63KRjNA3f2m5gwOj0d/FNpXFmUAAAIgERbkyQFMgQwJvGlnf8cliSbaDvBXTkAskVhntFpR/t/e9SekwR2Nmnbc5JAOMP32KE93s8z0j8c+tnYPr/srOiMQwbl6ZCBeVq3xf3NQnFhcieI33V2kkDm16XZ438nG32OL4/qzGPTM7YvXY4dXqAhfUPaWOOfLUAut/931oDeYX3zjN765hm9tX5Lm+Ysa9S8ZZ9vbGmM5Dm+Zg4qCe266T90kLs+KF11jA/XJYB9C2oIYK2OPO+ntv+sH5ptyUjUmmM4/w+gp07zyZnKrtj9g+2HW9s0d1lMxkhjRkUy/gHyiCH5evDywXrmjUYNKglpzKj0j+1Lp3HlUf1u3nbXZeis46K+fMK6P/uaJJCfZzRmVFQjB2S2kV7ZyALd/4NBevbNRg3rF9bYsmhGpnyky7iyqB5a5I8mlaXFnkYf7I/t/5118MA8fXdCif5rfB+t+LBVC1fGNLw0rC+Piqp/hq9X0/+lvxasSIa3Y0b5pw9Kd4wti+rPPlmXAPYvqCFAS2vsZEnPJncAWHusgnm9BOAjft1m3VkjB+TpP8e7PQ118MA8XXZOidMaUmVcmT8CgHEOuv+n0s5JAi4dNjhf/3NucJ6o7s+4cv8EAGeNisrzWa+EzjLGqPzgApU7DDAK8z2de2Kxs/dPpXEEAECgJNqaJGsVyg/OZ4yE0XGSnvUkyUrHOq4HQMAVFxqdEoBt1sicYaVhHT3M7U1j3yJPxx8SrCesSK/DBudr5AB/nAkPwvZ/ZMbhQ/I1or8/1iWAzkm0NyveGnNdRqfFrTlGkrx/v98WGukQ1wUBCLYzHMyxhv+53hUyZlTUd93o4Z4fdoUM7BPSqIOyY1cFUoNACAieIIUAXsImA4CNm2NHydhgHdoF4Duub/TgT2PK3J6P88ONHvzHD9ersWXRwJ5XR3r4YV0C6LqghADG2xEAtMsc5LoYAMHWJ+rpxMPYZo29DewTVvlIN085ecKKjozon6cjh2S2meKeeNqLPR08ME+HDnK7LgF0TzIEaHRdxn5Zqz7jb4sN9Yy1Q1wXAyDY2GaN/XH1FH4cT1ixH2Md7g4Z2i/kvD8G/IlgCAiuRHuL4q2Nsta/0/VM3BzhWYkAAECPsM0a+zNmVFQu8iGXN3jwP5fbrbnJQ0fGOj42BaBnEu0tSrTF/BsCGA31jCUAANB9A3qHnG3xRjCUFIUyfkRkeGlYRw1lXaJjg0rCzo6IcNYbHRlemqcjh3IMAAgyP4cAiYQd7NmEBrsuBEBwjSmLsM0aB5TpGx5usNAZLnYvHdQ/rMMGE06hY+wQAYLPr8cBrDTEE0cAAPTA+PIi1yUgAM44NqpwKHPvx7EUdIaL4ymsTRzI2FGsESAb2Hir70IA69khnvESxa4LARBM/XuFnHfSRjD0ingafXBmjgEM6xfWyAHhjLwXgq1fcUjHDM/s0/gvHcUZb+zf4L5hHTaYn61ANvBbCOBZDQ5LXqHkj4IABMu2+ri+fsenGjMqqrFlUR03Ip/jAPicdZvbtGBlTAtWxPTxtvaMvOcn1e266KcbNWZUVGPKIjp2OCMq8Xnvb2rV/BUxLVzRpE+qM7Mud/qf323RacdENLYsqlOOKFR+mGsmknauy/nLY9pYE3ddDoAUSYYAUii/yPnn5ITMgLC1IooG0G1V9Qk9+nKDHn25QQP7hLjpgj7a2qYFK2JasDKm9Vsye3O105btcT3yUr0eealeg0tCGlOWDKloDJi7XIRR+9LcZjV/efImL1pgdOaxyTDgpMMKFQ4RBuSa9VvatHBlcj185HBdAkgv34QAiURh2BpbaNgAACAFuOnKXRuq2rRwRZPmr4jpg81trsv5nE21cf11cb3+urhew/qFNaYsorGjojp8COsy2324tU0LHYdR+xNrsXrurZieeyumXhFPXz4uonFlUR1/SIFCLmZnIiM+qWrfFUa9v8lf10sA6ZMMAaxC+cXOQgDPMxEz5ubGmLGWXQBACsyf7O+GeGfe+LGT9x3aL6SxZVFuurLMp9XtWrgypoUrYlqzMXgfYkf0D2vsjuMrhwzivG228HMY1VklRd6uo1VlB+XLIwwIvM21yevlghVNeveTVtfl7GXRtBGuS9gvV59fgHQwoTxnIYAxZosZO60xLmO9jL87kIUIAA6Mm65g8/uH2O4aOSCscWVRjSmLauQA1mXQBD2M2p/SXp7GlkU1riyqY0dwtCpIttXHVbkypvkrYlr5kb+vlwQAQGY5CwGs6sy4mxubrbX8RAFSgACga7jpCoatde1auLJJC1fE9PbH/v4QmwqHDsrT2LKoxoyKaER/1qVfZWsYtT+DSkIat+No1ZEcrfKl2sa4Kt9u0oIVMS1d3yKfNP4+IAIAIPOchADWtJpxNzfUWqs+mXtXIHsRAHQfN13+UlUf1wtvJ8+orvgwN26u9uWIITvXZVRD+zFa0LVcC6P2Z3hpeFcYwG4qt+qbElq8KhlGvfFBs+IJ1xV1HQEA4EbGQwBrEmFr1SwRAABw64PNbfpg83b9bt52brocqWnY8eRqZUzLAvTkKp3WbmzT2o3bde+c7Tp6WL7GjEp2bB9UwrrMFMKofdtQ1a4/vlCnP75Ql9xNVZ48JkCAmhmxloRefCf5pP+195rVztQ+AN1g422Kt9QrVNArUyFAc1jWNIsxAAB8hJuuzNkei2vR28mGaUvXtSjBj4MOvftJq979pFW/fn67jh2er7HlyR0rA3qzLlONMKprPtzarj/Mr9Mf5tcRoKZRc2tCL69p1oLlMb28pkmt/hssASCAbKI9gyGAbQ5bzzZx/w/Ar/Z103XWcREN7MMH2+6qb0po0aqYFgZ4u6prqza0atWGVt39bK3KRuZr7Kiovjwqqv69Qq5LCyzCqNTYPUA9Zni+xpVFddYorpnd1dpu9eraZs1fHtOSd5vU3MbCBJB6mQoBjGeaw568Jis+/QHwP266uq+h+bPtqq+/x01/Kq34sFUrPmzVL5+tVfnIAo0ri+rLx0XUt5h1eSCEUen1zoZWvbOhVXfPrlX5yHyNLYvqrFFR9WNt7ld73Orv7ydv+he/06RYCzf9ANIvQyFAc1jS5nS9OgCkCzddB7bzjOrClTG9trZZbZxRTStrpWXrW7RsfYt+MatGxx9SoLFlUZ15bEQlRazLnQij3Fj+YauWf9iqXz5Tq+MPSV4zzzwuoj5R1qYkxRNWS9e1aP7ymCpXNam+iYUJIPPSHwIkmsNxaaOXhpcGgEzgpuvzmloTWvJusxasiOnVtZxRdSVhpTc/aNGbH7To50/X6IRDd67LqHpFcu+nLmGUf+y+Nn/2dI1OOqxQY8uiOuPYiIoLc2ttWmu1/MNWzV8e0wtvx1TbyE0/APeSIUCdQvm9ZLzUXpcT8urDntWmlL4qADiSqzddLW0Jvby6WQtWxvTy6ma1cEbVV+IJ6fX3WvT6ey366ZM1+sLhhRozKvtvuAij/C+ekF5d26xX1zbrp09KpxyRDAO+dHRE0YLsXZurPk4+6V+4sknb6kmjAPiPTcQVb61PeQhgEtoU9qSN5J0Ask2233S1tFm9trZJ81c06eXVTWpq5aY/COIJ6ZU1zXplTbPueFI6+fDkDdfpx2THDRdhVHC1xaUX323Wi+82Kz9s9KWjk2vz1CMLVZAX/LW5+tNWLVgR08IVMW2q5aYfgP+lIwQwnjaFrdFG8fMZQBbb/aar8u1C3fqvA1yX1GN3P1ujJ19vdF0GeqA9Li1Z3awlq5s1tiyqm75R6rqkHrvjyRrNWRpzXQZ6qLXd6oWVTXphZZMuPq1YPzinr+uSemTFhy267LdbXJcBAF2W6hDAGm30JPNJCmoDgEBYtr5FiYDPF2tps5q/gpusbLJ0XbPrEnos1pJQ5dtNrstAii1d1+K6hB6b/RZhKYDg2hkC2ETP9+0baaNXaArfTUFdABAIjS1Waze2uS6jR158J6aG5mCHGPi86oaEPtwa7HW5YEWMLf9ZaO3GNjU0B/ewaEtbQgsITAEEXKpCAGPNJu+ZSabGGo9GgAByQn7YKJKfttmqGRL0+rGnSL5RfjjY/169YJePDvQr9mQDnOu0tkuRPBYngOCzibjaW+p6FAKYsP1ox0ECuypFdQGAr115XokOGpDnuoweGVce1XknFbkuAyl07QV9NaRv2HUZPXLuicUaVx51XQZSyBjpRxeVBnqKSq+Ipx9dXKq0jNMGgEyziW6HANYYW9AnuiZ5Rbd6J9W1AYDfJG+ci12XkRJXfKVEhw4KdpCBpPNOKtL40dkR6Fx7QV8NLw12kIHP/NuXe+uEQwtdl9FjJxxaqG+P6e26DABIjW6GACah9bMuNTFPkjzPsAMAQFYb1i+say8Idifr3RXkeZpySWkWHGfIbQcPDOuKr5S4LiNlogWepn6zVPlkAIFXNjJf3xqbPTfN/3ZWbx1/SIHrMgAgNboRAljPvCNJniQZY5anqTQAcC4ckm66pDQr5qzv7qABebrmq9kTauSagjyjKZf0z4oZ67s7bHC+rvgK6zLIiguNfnxRqUJZ1NjB84x+fHGp+kSz6/sNQA7bFQLEO/fnjf0sABg2qPDv1phgtx8GgA5cdk6Jjhqa77qMtDj7+CL6AQTUVeeV6OCB2XmM4/wvFGs8/QACa9KF/TSoJPu2cfTvFdKNF/VzXQYApI5NqL2lvlMhgCet2vHf0h+/bZolvZne6gAg804/JqKvf7GX6zLSin4AwTO+PKpzT8yOfhQd+SH9AALpwlOKdcax2RvenHJERP/vzOz+mQAgx3QyBDBectf/rn1QnvRSmksDgIwa2CekSRdm/9Me+gEEy/DSsH6YRf0oOkI/gOA5bHCevn9O9vSk6Mh/jOujUQdl564wADnqQCGANbHTTo4slXYLAIwMAQCArBHypJu+EezxVV1x0IC8nLipDLq8UHJdZls/io4cNjhfV5zHugyCwjyjim+UKj+c/UFiOGT0k4tz5+cDgByxn54AxtNrFWNMu7RbAJCwEQIAAFnjv8b30aiDcqvj84TRRTqffgC+dtk5JToyS/tRdOT8k+gHEARXnt9XBw3InaNEg0rCmvz17N8hBiDHWNtBCGCW7PynXQHAghvMZmMs4wABBN7JRxTqm2fk5hnPy7/Sl34APnXGMRFdmOX9KDrywwv6akR/zgL41fjyqM49IffCw9OOjuji07K7FweAHLSPEMCTfemzf/7cHw49nbnKACD1Sos93fjP/WRM9m9j3ZeCPKOp36QfgN8MKglpYg70o+hItCDZpyIXtpcHzbB+udGToiPfO7tERw/LrV05AHLAjhAgEW+XNcbmm+jLO3/rcwGACZlZma8OAFLDGOnHF5eqpCjkuhSnRvSnH4Cf5Fo/io4k+wFkf4O5IAnnWE+KfQmHjG76RqmKCginAGQZaxVvrVeivX3pM5NMzc5f/twVv++hhS8bo6rMVwcAPfetMb31D4cWui7DF+gH4B/fndBHx43IrX4UHTn/pGJNGE0/AL/43tklOoqn3xraL6zr/yl3d+gAyGLWSu31n3vI/7kAYObFJm7lPZvZqgCg544/pED/flZv12X4yuVf6avDBtMPwKVTjijUJafn5rn/jlzzVfoB+MGpRxbqoi9x/n2ns0ZF9U+n8PcBIPskjO04AJAkGdEHAECg9Il6+vFFpfI8tnDuriDPaMol9ANwpbSXpxtyuB9FR+gH4F5pL0+Tvs7a3NNl55TocEJTANnEavOim4a/vvsv7RUARPtFnrFG9ZmrCgB65sZ/7qf+vf1x7r++KaHaxrhqG/eewerCiP55upZ+ABnnGeknPupHURdLrsntMX+sy8MG5+tK+gE4YYz0o4v8sTbb43bX9TLWknBdjvLDRhWEpgCySMLznjXG2N1/ba89eLMuNbGx02MzpcR/ZK40AOieb57RS6ccGXFdhiTprQ+adeX9W2V3XGavOr9E/3SK++3f40cXaen6Fj31eqPrUnLGt8b01vGH+KMfxStrmnTdg9t2/e9JF/bTOT4Y+XbeScV6a12L5i6LuS4lp/zbl3vrBJ/0SrnjiWrNfiv5779vkaf7/2ew+hW7DSZG9M/TNV/tq2mPVjutAwBSISS7V5P/fbZ9DYfMH9NfDgD0zLHD8/Vf4/u4LkOStD0W19SZ1btu/iXpntm1en9Tq7uidvM/59IPIFP+4ZAC/ZtP+lFsq49r+h43Mr+YVaOPt7U5qujzrvlqXx1EP4CMKRuZr2+N9cfanL88tuvmX5JqGhO6+dFqWWv381WZcfbxRTrvRPchGQD0hDWqG9RPs/f89X0GAM9fX7jYGPNB+ssCgO4pLkyObgqH/LFV8+bHqrWt/vPbq1vbpZseqVJLm/utrfQDyIw+UU8/utgf/SgSCatpM6u0Pfb59dfUalXxSJXa2t3faEULPFXQDyAjekWSvVJCPlibG2va9dMn937C/tp7zXr4RX+cQr38KyU6eCDhFIDg8uTNnHn1iKa9f30fjDHWGj2Y/rIAoHsmXthPg/v648PZjCX1enl18z5/78Ot7frfWbUZrmjfRvTP03Vfox9AOt14UT/17+X+bLUk/XlRvd78oGWfv7dmY5t+/bw/1iX9ADJj4oX9NKjE/TWzPW41dWaVGlv2HUD9dt52rf7U/c6pwnxPUy7pr4I894EJAHSL8fa5q3+fAYAk5cn7o6xx/9gKAPZw4ReLdeax/pglvubTVt17gBupWW80auFKf5xzHldepK9+ga2t6fB/z+ylU47wRz+KlR+16A8Ltu/3zzz6coOWrN7rwYAT551UrAmj/fE9nY0uPKVYZxzjj7V5/4LtWvlRxzf47XGp4pEqNbW6/wh68MA8XUU4BSCAjNG6yilDXtzX73UYADw/KbJe0uPpKgoAuuOIIXn6/v/xxweyptaEbnqkSm2daKx+++PV2ljTnv6iOoF+AKl33Ih8fWecP/pR1DclVDGjSvFO3D/d8li1ttX5YzLADy+gH0A6HDY4T98/xx/XzKXrmvXQogNv8d9Q1a5fPF2TgYoO7NwTCacABI+15sE9u//v1GEAIEnG8+5MT0kA0HWR/OS5f7+cF/7ZUzXaUNW5m/rGluS56/a4+3PX9ANILb/1o7j9iWptru3cTf32WEJTZ1YpkXC/LiP5nqZ80z/f39mgMM+owifXzLp9NErdn9lvxTR/uT92Tl3z1b4aXko4BSAYrDU2P5zf4XH+/QYA8ydHXjbGvJz6sgCg6354QV+N6O+PJ9dzljbq+aVd+3C6akOrfjdv/9uyM4V+AKkz6eulvjhbLUlPvtagyre7tq3/rXUterCyLk0Vdc2hg/J11fn+eFqdDa48v68OGuCPa+Ztj9doaxd3m/z0SX/snIoWeJpySany/fFtDgD7ZYxmza8Y1GFD//0GADtegV0AAJz7yolFmjDaH2fXN1S16c6nurc99S+L6/X39/bdMDDTxpUX6QL6AfTI17/on7PV6za36a5nu9fY74EFdVrx4b4bBmbaV04s1tnHs+W6pyaMjurcE/zx/f3Eqw1a/E7X+000tlhNmeGPnVOHD8nXD84lNAXgf570swP8/v6dPjHyOCMBAbh08MCwrviKP54KtrXbHQ2quv+BdNqjVapp8Me56x+c21eH0w+gW470UT+KlrZkP4rWbo72S1ipYkaV6pvcN16Tkluu6QfQfcP6hXXNV/1xs7puc5vunt39iRNvf9yq+w/Q0DJTvnZysc4a5Y/ADwD2xRjzVuX0ES/s788cMACoMCYh6eZUFQUAXZEfNqr4Rn8V5h94w1Im3Du3Vqs/bevRa1Q3JDT9sWrZzh6GTaOCPKMK+gF0WSTf6KZLSpXng7PVknTXs7Vat6Vn63LL9rhue3zv2ewu0A+g+8Ih6aZvlCpa4P6a2dJmVTGj+8HUTg8tqtfSdf7YOXXd1/ppSF9/jPoEgD0ZY/b79F/qzBEASf0Ojz5gjd7teUkA0DVXnleiQwb54wn1K2uaNOOlhpS81mtrm/Xwiwfuhp0JyX4A/VyXESjXfa2vhpf6Y12+8HZMT73emJLXWrSqSU+8mpo13lP0A+ie751doqOG5bsuQ5J0z+xafbC5Z8GUJFkrTZ1ZrbqY+51TxYWeKi7przAZAADfMZ8cNXzYIwf6U50KAGZebOIheTf0vCgA6Lzx5VGdd1Kx6zIkSdvq45r+aGqfjt43d7ve/aTjediZNK48Sj+ATjrvpCKNK/fH39WmmnbdnuKn9nfPrtEHm/2xLukH0DWnHlmoi77kj2vmi+806YnXUhcmba2L69bH/TEa8Ohh+frvfyScAuAvnjF33nepOWDq2un9YfMmR/9mjHm9Z2UBQOcM6xfWDy/wxxnWRMJq2swqbY+l9nx0PCHd9Mg2xVr8ce6afgAHdsjAPN/0o2iPW02ZWaWG5tQeJWltl37ycJVa2vyxLq/5al+NHEA/gAMp7eVp0tf7yRj3xya21cV1699Sf5zkxXf8s0Ploi/10mlHF7ouAwAkScaYDQoN+3Vn/myXDoh5JjSxeyUBQOflhaSKS/xxhlWS/ryoXm9+kJ4O6Z9Wx/XTJ/3xVIt+APu38++nIM8f6/IPC7Zr5UfpeVL/4dZ2/e+s7jduS6VIvqeKS+gHsD/GSD++qFQlRe73pScSVtMerVJdmhpK3j27VutScKwgFSZd2E8D+7j/OwcAa1RRWWE61SylS59i5k4qXGCMmdW9sgCgc75/TomOHOqPM6wrP2rRH9LcgXre8piefcMfT7XoB9Cxq84r0cED/bFD4o33m/XnRentITHrjUYtXBlL63t01qGD8nU1/QA69G9f7q1/ONQfT6PTGZhKUmt7srFgS5v7Jqq9oyH95OJShfyRCQLIUdaaNZ43/IHO/vkuX7JCCl9rrWnv6tcBQGeccUxEX/9iL9dlSJLqmxKaMqNK8QzshP7FrFp9tNUfT7XGlUd1wcn+OOPuFxNGR3Xuif44W13bGNe0mVXKxBCJ2x+v1sYaf/zIP/fEYv0j/QD2Uj4yX98a29t1GZKkVR+nPzCVpA82t+meHowWTKWykQX6z/F9XJcBIId5Ie9HlRWdvz/vcgAwZ3LBu8Yzv+jq1wHAgQwqCWnihf55+nzHk9XaVJuZrtPNbbZHc9xT7X/oB7DL8FL/zFS31urmx6pV1ZCZ8/mNLVYVj1SpPe6PdXk1/QA+p1fE048uKlXIc388orE5oYoMBaaS9MRrDXrxnabMvNkB/MsZvXTyEf7YgQEg15jXKqcMndmVr+jWpqWIidwsK38MCwaQFUJecnZ1r4g/9lI+9XqDXliZ2Q+X721q06+e88dTrfyw0ZRv0g/Ab/0oZi5p0CtrMjsPfdWGVv1+fvqf6nZGJN/TlEv6qyAvt9flThMv7KdBJf4IRO58qkYbazI7pu/Wv1VrW5370YDGGN34z/1U2ssf1wkAuSPseVcbY7qU0nfrSvXMJFNjPG9yd74WAPblv8b30XEjClyXIUlat7lNv3zGzY34315p0Evv+uOp1vDSPF3/T/7ZkeHCZeeU6Igh/uhHsfrTVv1mjpt1+ZfF9fr7e5kNHjpyyKA8XXUe/QAuPKVYZxwTcV2GJGn2m42atzzz/SLqmhKaOrNKiYT7HSolRcl+AD7YjAEgRxjj/X7h1GEvdfXruh1Vnn5q5Peyeqe7Xw8AO518RKG+eYY/zv23tCWcb8W/5bFqba3zx7nrsWW52w/gzGMjutAn/ShiLYkdW/HdvL+10rRHq1TT4P5pq0Q/gMMH5+n75/gjBNlQ1aZfzHI3yeStdS1pb4jZWccfUqhvjfFHPwYA2c1a02StqejO13Y7AKgYY9pNyFzd3a8HACk5u/rGf/bH7GpJuuvZWq3b4rYZX11TQlNmVPviqZaU7AdwxJDc6gcwuCTkq90PP3u6Rhuq3IZC1Q0JTX+sWjYT3Qc7IVf7ARTmGd30DX+MRWyPJ3tENLW6XRN/WLBdqz5O3+SBrvi3s3rrhEP9sZsNQPYynn6yePqwj7vztT06rDR/UtFzsubJnrwGgNzlp9nVkvTC2zE99Xqj6zIkScvWt+jBF+pclyEp2Q8geQ7e/Q1HJvitH8VzbzVqzlJ/jON7bW2zHn7RH09bc7UfwFXn99VBA/wRyN03d7tWf+p+ekk8IVXMqFJjc4Y6EO6H5xn96KJSlRT54/oBIBuZT/qEQvd096t7fHUKe+GJjAUE0B3fGuOf2dWba9t1++P+6m36wMI6LVvvj6daw0vzdN3X/PNEPJ2+O6GPjvVJP4qPt7Xp50+72169L/fN3a53P2l1XYakHf0AzvfHhIZMmDA6qnNO8MeRnNff808YJEkba+K68yl/fK+U9grpRxeVui4DQLYKhS6bVTG0208GehwAMBYQQHcN6uOPJ//tcauKGVVqaPbH1uadElaaOrNKdTF/nLsuKfKyfiqAMdLAPv7YVt7W7o/t1XuKJ6SbHtmmWIv7p62SVFrsKc8fl5K0G9I37IujQbWNcU1/tMp1GXuZtzym2W/6YxdXUaFRb5/sIgKQTcwri6cM7dEO/JRcmRgLCKA7bn28RlN8sG3z/gXbtfIjfzzR3NOW7XHd+rjbp1rtcav75tTqqvu3+u5mNNWsTW4lvvVv1Wpqdbsuf/N8rdZsdL+9el8+rY7rp0+6XZdt7VZ3PVujax/cpjZ/ZGRp9+ALdbr6ga3aVu/2//DNj1WrusEfAdCefjGrRhuq3H3fWGv1l0V1uuy+Lapr8uffEYBgstZY4+nynr5OSgKAZyY9EHVSAAAgAElEQVSZGhMyk1LxWgByy7zlMf3HPZv0tqMGTm9+0KyHfNJBuiMvvtOkv73ipsZPq9t12W+36KFF9fJJ77eMePbNRn3nns1a/ambYGjJ6ibNfLnByXt31rzlMT3r6GnrR1vb9L17N2vmEn//HaXDmx+06Nt3bdLLq92MC52xpF6vrPHHSMh9aWq1OyZmZP6CVVUf1zUPbNVv5mxXnHt/AClmjPn1oqkjXu/p66Rsb9LpX4z+wRi7KlWvByB3bKyJ6we/3aIHX6jL6PbW2sa4ps6sCsSN7a+eq9X7mzJ7MzpnaaO+ffcmvbPBn7sj0m1DVbv++97NevjFuox2vt9WF9ctjwVjU90vnq7RR1sz+7T16b836Du/2qy1Pt0dkQnbYwld/6dtuuvZGrVlcGTp2o2tuvf52oy9X3et/rRN983dntH3fHVNk7599yb9/X1/9G0BkGWsaVS0YFoqXiplAUByLKDHWEAA3RJPSL+bt11X/GGrtmxPf19Ra61ueaxaVfXBeEzT2i7d9EiVmjOwLT3WktDUmVWa9mh11m/5P5D2uPSr57brh3/cqqoMbLtOJKymzqzS9lgw1mVzm9VNj1SpNQM3ofVNCf3or9t0xxM1amnL7XW508wlDfrvezfr423pD0OaWxOqeKQqMMctHn6xXq+/l/6dCm3tVvfMrtW1D25TbWMwvm8BBI/xzA2LbxiwMRWvldLuJPOuL3reGPNEKl8TQG5Ztr5F3757syrfTu/Ys5lLGvSyj7ex7suHW9v1v8+k9+nbqo9b9O27N2nuMn+MnfOL199r0bfu2qQlad52/afKOr21LlhPEN/b1KZfP5fedZm8LmxS5dtutr372ZqNbfrPX23Wc2+l9zjGL5+p1UfbgjX0afqjVaptTF9isaGqTf9932Y98pK/j5EBCDir9UUDh/0mVS+X8vakeSHGAgLomeSTvird8UR1Wp54r/60Vb+Z4/9trPvyzBuNmr889TfniYTVnyrrdNlvt2hjTUAe8WXY9lhCE/+0Tf87qyYtT7xXfNii+xfUpfx1M+GxVxr00rupvzmPJ6x+P3+7rvj9Fm3ZzrrsSFOr1c2PVWvKjKq0TGd4YWVMs97wR3f9rqhuSOjmx6rTcoTn+beSfULWfJq7R1EAZIbnedfOvtyk7OlAygOA564vWG2M+XmqXxdA7nn67436r19v1nsbU3cGPdaS2NEgKmUvmXF3PFmtT6tTl7NurWvXVfdv1W/n0riqMx57pUHf/fVmrd+Sug/+9U0JVcyokg8mvHXbLY9Va2td6tblxpp2/c/vtuiPC+sC/feSSTubqr6zIXW7SDbXtuv2J4LRk2JfXlnTnNKGmjuPSE1/jCNSANLPGPNs5bThj6byNdMyoDTiRW4xRv4bEAsgcD7c2q5Lf7NZM5ekZovlz56u0YaqYG9SirVYVcxITZfrxati+tZdmwO37dy1DzYnt10/+Vpqbixue7w68E+465oSmjKjOiWNPOcvb9R/3L3Jt+M5/ezT6ri+f98W/WVxz5tXxhNWU2ZWqaE52De69z5fq7UpCJLf/aRV37lnM0ekAGSENSZhQt4NqX7dtAQAz0wyNUaMBQSQGm1x6a5na3Xdg1tV09D9m6Tn32rUnKXZ8cHtnQ2t+u287ne5bmlL6M4nq3XDX6pUz6zqbmltt7rzqRrd8Odtqot1f10+8VqDFq3KjrPty9a36MEXun+MIdaS0C2PValiRrUaW4J90+lSPCH95vlk88rqHlwz/7iwTis+DH4I0xaXKnrQRNVaq4dfrNN/37tZn6Rw9xUA7JfVLysrhi1N9cumJQCQpL6HMxYQQGq9sqZZ37prk15d2/WbpY+3telnT9ekoSp3/rq4Xq+t7Xojw/c3tSafXr8evDO9frT4nSZ9++7NeuuDrv+7+GBzq+5+NrvW5QML67R8fdd3lKz+JLkuZ7+VHSGdH+xsXtmda2ZPwxy/+Whb95qo1jTEde2D2/Sr5zgiBSBzrFFdr6Lwzel47bQFADMvNnHPeFel6/UB5KaaxoSu/eM23TO7ttPzr9varSoeqcrK85rTH63q0hO+x16u13d/vVkfbuUpViptrYvryvu36r65tZ0+mtHSltBPHq5Sa5b9q0hYacrMqk7virDW6i+L6/S9ezcH/niOH9XuuGb+6rnOr836puQ592zrvfDMG41auLLzAdPr7yVD5+4ErQDQEyGFJs6ePGRrOl47bQGAJM2dVDRH1jyezvcAkJseeale/33vZn209cCN2H7zfK3WbMzOTs01jQlNf7TqgGd9axvjuv7BrfrfZ2oDM8c7aKyVHqqs1w9+u6VTTRr/95narA1itmyP69bHD7yzYVt9XFc/sFW/eZ6nq+n28IvJa+aGqgNfC2/Pgp4UHbnjiWptrt3/91173OrXz9fqmge2qqaRhQkgw6x576gRQ3+XrpdPawAgSfl54UnWmOz85A3AqZ3zr2f9veNGbEtWN6W0A7Qfvf5ei/76YsdNEnc+xXp5DU+xMmHVhlb9xz2bNGdpx0csFq6Madbfs/sIxovvNOnxVztel0vebdK379qkN96nAWWmrP60Td+5Z/N+1+bTrzeoMkt6UuxLQ3OyiWq8g+0Nn1a36/v3bdFfF6em8SwAdJUX9q6+79L03T+nPQB47vqC1caaX6T7fQDkpuY2q9ufqNGPH962VzO7bXVx3fJYcMdXdcVv527Xqj1Gf7XHrX79XPIpVnUDT7EyKdZiNe3Rak17dO+57Btr2nX747mxLu+ZXav3N32+iVxLm9UvZtVo4kPbtD3Gusy0ptbk2py+j7W5fkubfvls18/JB83Kj1r1wMK9+xvMXdao/7hnk979JPiNDwEEU8J4T1ROGfZ0Ot8j7QGAJPWKRm5mLCCAdHphZZO+ffemXc3HEgmrqTOrcuYGI55IdrlubE7+//14W5u+d+/m/e4MQPrNWZqcy74znGmPW02ZUZUzHe5b26Wbduu+vn5Lmy79zWb97ZXs3pUTBM8vjek/f7VZq3fc7La2J5+Mt7Tlxtr80wt1Wrbj50VTa3L6xNSZ1YrlyPcmAB+yJl4YCqV87N+eQul+A0la/XxF82Hjbqix0vmZeD/AlX8/I991Cft1/4Ls6ei8L40tVs+91aiElZZ92JJz3cQbmq021sQVa0nohr9UaXNtdp7hDZr6JqvZbzYq7Bm9sqZZC1Zk7/bqfdkeS6i6IaFt9XHd+JcqbatnXfpFXVNCs99qVGGep4UrY1rybu4cE7KS3ni/WYcNztPEh7bpzQ9y+yjKt8f2cV3CfmX75xdAkhIh89PKKcP+mu73Mel+g50ummFD296LLTPWHpep9wQybf7kItcl7NeZN37sugQAAOAzi6aNcF3CfvH5BdnOWltTlOcd/nzFiLSfEczIEQApORYwbHR1pt4PAAAAAADfC3k/zMTNv5TBAEBiLCAAAAAAADsZo3dC3vAHM/V+GQ0AJMl44YmMBQQAAAAAIHxlZYVpz9S7ZTwAmD+5YI0n8/NMvy8AAAAAAH5hjJmxaNrQOZl8z4wHAJJUHIncwlhAAAAAAEAuslZteSHvR5l+XycBwJNXmVprzEQX7w0AAAAAgEshz7t1fsWwNZl+XycBgCSVHha93xrztqv3BwAAAAAg04wx2/KKo3e6eG9nAcDMi03c2NBVrt4fAAAAAIBMM8ZcNW9iv+0u3ttZACBJC24onGuN+ZvLGgAAAAAAyAhrlp/lDfuLq7d3GgAkCwhPYiwgAAAAACDbeUZXVFSYhLP3d/XGO82fXLDGs+ZnrusAAAAAACBtjHmocvqIF1yW4DwAkKTiaORWa7XNdR0AAAAAAKScVYtR3o9dl+GLAODJq0ytCZlJrusAAAAAACDljJm2aNrgda7L8EUAIO0YCyiz0nUdAAAAAACkijHa5IULfuG6DslHAcDMi03c8xgLCAAAAADIIiZ0RWXFwAbXZUg+CgAkaf6kwnmy5jHXdQAAAAAA0FPW2Dcqpwyd6bqOnXwVAEhSKJ+xgAAAAACA4DM2fLkxxrquYyffBQBzrytYy1hAAAAAAECQGeP9fvH0YUtc17E73wUAkmRCkVsYCwgAAAAACCJrTZO1psJ1HXvyZQAwb6LZ7nlmous6AAAAAADoKs/opsXTh33suo49+TIAkKR+h0cfYCwgAAAAACBIjDEbBpXqLtd17ItvA4CZF5t4SKErXdcBAAAAAEBnWS/0g5lXj2hyXce++DYAkKR5NxTOZywgAAAAACAIjDEvL54y9EnXdXTE1wGAxFhAAAAAAID/WWusjK5wXcf++D4AmHtdwVojc6frOgAAAAAA6Ij17G8WTR3xuus69sf3AYAkeV7kVmvsVtd1AAAAAACwJ2NMgxeJTHVdx4EEIgCYN9Fs94zHWEAAAAAAgO/EjfnR4hsGbHRdx4EEIgCQpH6HRf9ojFnhug4AAAAAAHaxWt97wLBfuy6jMwITAMy82MSNDV3lug4AAAAAAHbywub7sy83La7r6IzABABSciygMeZR13UAAAAAAJCQqaycMmK26zo6K1ABgCSFTWiSrGl1XQcAAAAAIHdZYxL5nvH12L89BS4AeH5S4XsyjAUEAAAAALjjSXctnDp8mes6uiJwAYAkeaHIbYwFBAAAAAC4YI3qiqLh6a7r6KpABgCMBQQAAAAAuBJSaOLsyUMC91A6kAGAJJ0+MfqApOWu6wAAAAAA5A5jzNqjRgz9nes6uiOwAUCFMYmQF2YsIAAAAAAgY4y8q++71LS5rqM7AhsASNLcSYULGAsIAAAAAMiQJyunDZvluojuCnQAIDEWEAAAAACQAdbE88N5k12X0ROBDwAYCwgAAAAASLdESHfOrxiyynUdPRH4AECSCnpFbmUsIAAAAAAgHay1NcWebnNdR09lRQAw+3JTF5J3ves6AAAAAADZx/O8a5+vGFHtuo6eyooAQJJOmxT9oxgLCAAAAABIIWvtqkHlwx9wXUcqZE0AUGFMQgpf6boOAAAAAED28Ly8q2ZebOKu60iFrAkAJGnBDYULZcxM13UAAAAAAILPGDNj0bShc1zXkSpZFQBIUkGYsYAAAAAAgJ6xVm2SudF1HamUdQHA7OsK3zee+anrOgAAAAAAARbybls0bfha12WkUtYFAJKUXxy5zRizxXUdAAAAAIDgsdZsLSyKZt2D5awMAGZfbuqsEWMBAQAAAABdFjLmmnkT+213XUeqZWUAIElnTIw+aI23zHUdAAAAAIDgsMYsOys87M+u60iHrA0AKoxJGOtd5boOAAAAAEBwhKyurKgwCdd1pEPWBgBSciyglZnhug4AAAAAQAAY81Dl9BEvuC4jXbI6AJCkwrzQZMYCAgAAAAD2y6rFKO/HrstIp6wPABgLCAAAAAA4IM9MXzRt8DrXZaRT1gcAEmMBAQAAAAD7Ye1GL1Twc9dlpFtOBACMBQQAAAAAdMSEwldWVgxscF1HuuVEACAxFhAAAAAAsE9/r5wydKbrIjIhZwKACmMSnjFXuq4DAAAAAOAnoSuMMdZ1FZmQMwGAJM2fFHmBsYAAAAAAAEmS9f6wePqwJa7LyJScCgAkyfNCk4wxLa7rAAAAAAC4Y61p8vL0E9d1ZFLOBQDzJxV+IMtYQAAAAADIZZ7RTZUVwze4riOTci4AkKSicOQ2SZtd1wEAAAAAcMF8PKhUd7muItNyMgB46npTb4xhLCAAAAAA5CDP6PKZV49ocl1HpuVkACBJp0+K/knylrquAwAAAACQSWZJ5bQRT7iuwoWcDQAqjEmEGAsIAAAAADnDWmO9cPgK13W4krMBgCTNnRypNMY84roOAAAAAED6Wc/+prJiyN9d1+FKTgcAkiQTmsxYQAAAAADIbsaYhnCocIrrOlzK+QBg/qTCD6zMHa7rAAAAAACkT9yYH1VWDNzkug6Xcj4AkKTiUOR2MRYQAAAAALKSMVrXe8CwX7uuwzUCADEWEAAAAACym/eD2Zdz9JsAYIfTJ0X/ZIz3lus6AAAAAACpY415YdG04c+6rsMPCAB2qDAm4clc5boOAAAAAEBqWGMSeYx/34UAYDdzJ0cqrczDrusAAAAAAPScJ921cOrwZa7r8AsCgD2E8xkLCAAAAACBZ7W9KBqe7roMPyEA2MPcawvXMRYQAAAAAILNhMzk2ZOHbHVdh58QAOxDcShyuzVeTs+HBAAAAICgMsasPXr48N+6rsNvCAD24anrTX3Is4wFBAAAAIAAMvKuvu9S0+a6Dr8hAOjAaddHH2IsIAAAAAAEzpOV04bNcl2EH4VdF+BXFcYkzr616cr2uCpd1wKkyhFD8lyXAAAAAKSNMaZdCk9yXYdfEQDsx5yJkUVjpjc+bGQvcV0LkAq/v2yw6xIAAACAtDEyP6+cNuQd13X4FUcADoCxgAAAAADgf9aY6uKi4ltc1+FnBAAHMPfawnXWmttd1wEAAAAA6JgnXffMpJIa13X4GQFAJ5SWMBYQAAAAAPzKWrtqUPnwB1zX4XcEAJ0w8zLTEFLiOtd1AAAAAAD2FgrnXTnzYhN3XYffEQB00mmTiv4seW+6rgMAAAAAsDszs3LK0LmuqwgCAoBOqjAmYYy50nUdAAAAAIAka9VmjLnBdR1BQQDQBfMnRxbLmL+6rgMAAAAAICnk3bZo2vC1rssICgKALsoz3mRrTbPrOgAAAAAgl1lrtvbyIne4riNICAC66PlJkfWex1hAAAAAAHApZMw1sytK61zXESQEAN3Qr0/kDsYCAgAAAIAb1phlZ4WH/dl1HUFDANANjAUEAAAAAHfyjK6oqDAJ13UEDQFAN82dVPSQNeYN13UAAAAAQC6xMn9eOHVEpes6gogAoJuMMdaTd5XrOgAAAAAgZ1i1hMLhG12XEVQEAD3AWEAAAAAAyCDPTK+sGLLedRlBRQDQQ4wFBAAAAIAMsHajFyr4uesygowAoIcYCwgAAAAAGWDCV1VWDGxwXUaQEQCkQL8+kTsks9F1HQAAAACQjYzxXl80begM13UEHQFACsy8zDRIHmMBAQAAACAdjLnCGGNdlxF0BAApMn9y4Z8ZCwgAAAAAKWa9PyyaOuxl12VkAwKAFDHG2JDnXem6DgAAAADIFtaYmJenn7iuI1sQAKTQvImRF63MX1zXAQAAAADZwJOZUlkxfIPrOrIFAUCKRQoYCwgAAAAAPWc+HtTP/tJ1FdmEACDFnv1h5EPP6DbXdQAAAABAkHlGl8+8ekST6zqyCQFAGnj5UcYCAgAAAEA3WWNfqpw24gnXdWQbAoA0mHutaTSed63rOgAAAAAgaKw1Ns/kXeG6jmxEAJAm8yYW/kXW/N11HQAAAAAQJMbo3oVThzJiPQ0IANKEsYAAAAAA0DXGmAYvXFDhuo5sRQCQRnMnR14yxvzZdR0AAAAAEARG5seVFQM3ua4jWxEApFlBvncDYwEBAAAAYP+M0browGG/cl1HNiMASDPGAgIAAABAZ3g/mH25aXFdRTYjAMgALz96hzHmU9d1AAAAAIAvWbNw0bThz7ouI9sRAGTA3GtNo4x3nes6AAAAAMBvrDGJvDxDA/UMIADIEMYCAgAAAMDejNXdCyqGL3ddRy4gAMgQY4wNh70rXNcBAAAAAL5htd0Lh6a6LiNXEABk0JyJkSWMBQQAAACAJBMykysrhm5zXUeuIADIMON5k60xTa7rAAAAAACXrDVrjh4+/Leu68glBAAZNm9i5CPDWEAAAAAAOc6EzdX3XWraXNeRSwgAHAiFoz9lLCAAAACAXGWMeWrxlOHPuK4j14RdF5CL5l5rGsdPb7rWKk4/gCzz3ub45/63TcQ7+JMAAABAbjLGtEvhia7ryEXGdQG5ylprxt8Se9Va+wXXtSB92mLVrksAAAAAfMUz3h2V04Zf57qOXMQRAEeMMTbkeVe6rgMAAAAAMsUaU11cVHyL6zpyFQGAQ3MmRpZYzzzkug4AAAAAyARjdP0zk0pqXNeRqwgAHAsZ7wbGAmavUEEv1yUAAAAAvmCNeXtw2fD7XdeRywgAHJs3MfKRJ93qug6khxfKIwQAAAAAJIXkXTnzYkOXbIcIAHzAy4veKWs+cV0H0iMZAvSWDD03AQAAkKvMzMppw+a5riLXEQD4wNxrTaNnPLpgZjEvFFYovxchAAAAAHKONWr1wprsug4QAPjG3MmFf5U1r7muA+lDCAAAAIBc5El3VFaMeM91HSAA8A1jjDWMBcx6hAAAAADIJdaYLUWhottd14EkAgAfmT858rKM9yfXdSC9CAEAAACQKzxjrp1dUVrnug4kEQD4TLjAMBYwBxACAAAAIOtZs3SMN+wh12XgMwQAPjPnmsjHjAXMDV4orDDTAQAAAJCtjK6oqDAJ12XgMwQAPhQpjf6UsYC5wXghQgAAAABkHSvz58XTRyxyXQc+jwDAh2ZdamKhkHet6zqQGYQAAAAAyCbG2OZQOHyj6zqwNwIAn5ozsfBhxgLmDkIAAAAAZA3r3VJZMWS96zKwNwIAn2IsYO75LATg2xIAAADBZI0+LSjJu9N1Hdg37jR8jLGAuScZAvQiBAAAAEAgGRu6eu61gxtd14F94y7D5xgLmHsIAQAAABBM5rVF04bOcF0FOsYdhs/NuSbysYxucV0HMosQAAAAAEHjhc0Vxhjrug50jLuLACjqF73TGrPBdR3ILHoCAAAAICgSxru/smL4K67rwP5xZxEAsy41MWMZC5iLjOcRAgAAAMDXrDGxcEg/dl0HDoy7ioCYP7nwEWvMq67rQOYRAgAAAMDPPJkplRXD2bEcANxRBIQxxoZC5krLmZqcRAgAAAAAP7LGfDSon/2l6zrQOdxNBMi866OvGGsYC5ijdoYAxgu5LgUAAACQJIU8XTnz6hFMLQsIAoCAKQjrBlkTc10H3DCep1B+L0IAAAAAOGeNfalyyojHXdeBziMACJjZ10c3eB5jAXMZIQAAAABcs9bYPJN3hes60DUEAAFUWBr9GWMBcxshAAAAAFwyRvcunDr0Ddd1oGsIAAKIsYCQCAEAAADghrWm3gsXVLiuA11HABBQ8ycXPiJrXnFdB9wiBAAAAECmhTzzk8qKgZtc14GuIwAIKGOMDXmMBQQhAAAAADLHWvtBdOCwX7muA91DABBgcydHX2UsIKQdIUBBbxkv7LoUAAAAZDETDl0++3LT4roOdA8BQMAxFhA7GWMUKuhFCAAAAID0sGbh4inDn3FdBrqPACDgGAuI3RECAAAAIC2siZuQGPsXcAQAWYCxgNgdIQAAAABSzuieRVNHrHBdBnqGACALzLrUxDzj/dB1HfAPQgAAAACkijGq9cKhqa7rQM8RAGSJeRMLZzAWELsjBAAAAEBqmBsrK4Zuc10Feo4AIEswFhD7sisECOW5LgUAAAABZI1ZffSI4fe5rgOpQQCQReZOjr7qyTzoug74izFGofxiQgAAAAB0mSdz9X2XmjbXdSA1CACyjC1kLCD2RggAAACArjLGPLVo2vBnXdeB1CEAyDILro5+kgjpZtd1wH8IAQAAANBZxph2Ewpd77oOpBYBQBYaUBD9maz52HUd8B9CAAAAAHRGwphfVFYMfdd1HUgtAoAsNPNq08RYQHTksxAg33UpAAAA8CNrqvpEi9lVnIUIALLUvBsiM4wxL7uuA/6UDAGKCAEAAACwt5AmPjOppMZ1GUg9AoAsZkOMBUTHCAEAAACwF6uVg8uG3++6DKQHAUAWW3B99DVjzR9d1wH/IgQAAADA7jwvdNXMi03cdR1IDwKAbBfRjcaYRtdlwL8IAQAAACBJCWMerZw2bJ7rOv5/e/f6Zddd33f89/3tMzOaGQkH22AjzZCuQtJ0tUnTrLSLkEuLA8lqSPsgadzkWWjT5WR1BUvyRTcT++iCjCHcbzGQ4KQlFwUoRmBsaWRGgpSEYBIg3AoukGAwsbGxsSVLmvPrA2GuvkijmfM7Z+/X6y/4PJG0z1v7nC+rRwBouUObZ764FGlv7R2MNhEAAKDbSqTjvSZtq72D1SUAdICzgJyOhyNA7k3VngIAwJDllF682J//TO0drC4BoAOcBeR0RUTKEzMiAABAh5SIr8w2s9fV3sHqEwA64uCO6T9LJf6i9g5GnzcBAAC6JUdccVP/vPtq72D1CQAdEs4CcgZEAACA9ouIDz8rb/iftXcwHAJAhyxsm/mgs4CciVMRYE3tGQAArJJS0sZ+Pwa1dzAcAkDH5F7a4SwgZ6KZnBEBAABaKCK/5cie+cO1dzA8AkDHHNwyc0dK6YW1dzBeRAAAgHaJKMd6pdleewfDJQB00LlrZl4WEV+ovYPxIgIAALRIyXsP7XnK52vPYLgEgA7atzmOlghnATljIgAAwPgrke6Y+r6J3629g+ETADrq0LaZfc4CshzN5EzKE9O1ZwAAsExNpMsOXHGh3wXrIAGgw5wFZLmaiWkRAABgLMVfvXfn/J/WXkEdAkCHLWyb+WBJ8ebaOxhPIgAAwHgpJUruxaXhPwE7SwDouF6TrnIWkOUSAQAAxkfJ8ebF/twHau+gHgGg4w5umbljEGlP7R2Mr1MRYKb2DAAAHkOJeHBqTXlB7R3UJQCQnnqhs4CcnWZijQgAADDCosSuQ1fNf7H2DuoSAEg3PC+OOQvI2RIBAABGU4n4woXnlVfU3kF9AgAppVNnAUvE+2vvYLyJAAAAo6fJaeO+zfNHa++gPgGAb2qcBWQFiAAAAKOjpHjf4s75t9fewWgQAPimg1tm/jpK/EHtHYy/ZmJNaiZna88AAOi0EjGIXnNp7R2MDgGA7zAxU5wFZEXk3pQIAABQUU7pDUf662+rvYPRIQDwHW7eNPslZwFZKSIAAEAdpcT9venJq2vvYLQIAHyPp14487JU4vO1d9AOIgAAwPDlyNcc2nHBnbV3MFoEAL7HDc+LY5GdBWTliAAAAMNTIvxtZ1AAABtnSURBVH32gt76V9fewegRAHhEC9tn/jyVeF/tHbTHqQiwtvYMAIDWi5wv3deP47V3MHoEAB5Vr0nOArKicm9SBAAAWEURcejIzrl31d7BaBIAeFS3bJv9kLOArDQRAABglZRYSpE21p7B6BIAeEwTM+WqUuLrtXfQLiIAAMAqyOm1h3fNf7T2DEaXAMBjunnT7Jea7CwgK08EAABYORHp3tw0O2vvYLQJADyuDU+ZebmzgKyG3JtMzdS62jMAAFogrlrsr7+r9gpGmwDA47rheXEsmris9g7aKTcTIgAAwFkoEZ/6ofm562vvYPQJAJyWhW0zb3UWkNUiAgAALF+T06brL4kTtXcw+gQATpuzgKwmEQAAYDninYs752+qvYLxIABw2m7ZNvuhnOL3a++gvUQAAIDTFxEnc6+5svYOxocAwBnpTZcXOAvIahIBAABOzyDi5Yv99Z+svYPxIQBwRm7eNPul0qTdtXfQbqciwBNqzwAAGF0l7m7yrHPdnBEBgDP2/RfOvKJEfK72DtotN71TESCi9hQAgJGTc2xb7D/x3to7GC8CAGfshufFsRxxee0dtF9ueqmZXCcCAAB8u5I+9uQf2eC3uThjAgDLsrBt5q0R6UjtHbSfCAAA8J2aXrNx38WxVHsH40cAYNlKLzamEoPaO2g/EQAA4JRBxJ+/d+eGhdo7GE8CAMt26MrZ2yLHH9TeQTeIAABA15VIxyfT1NbaOxhfAgBnZapXrnIWkGERAQCALisRL7l195M/W3sH40sA4Ky8+8rZLzsLyDDlppd6rgMAAF1T0p3nrZ2+tvYMxpsAwFmbnp15ubOADFPkRgQAALolmi03bjn//tozGG8CAGftpufHQ02Ky2rvoFtEAACgM0q67aLe+j+qPYPx58mZFXPR7q8vpkg/U3sH3VIGS+nkQ/elVErtKQAAqyJy72cO71rvBDdnzRsArJzJ2OQsIMP2rTcB/HUGALRPRH6LD/+sFE/MrJhDV87eliJ+v/YOuudUBFgnAgAArRJRjvVKs732DtrD0zIras1EeUGJ5MdJGDoRAABon3ztoT1P+XztFbSHJ2VW1LuvnP1yTuEsIFWIAABAe8QXp86ZeEntFbSLp2RW3OTamVekEv+v9g66yW8CAABtkHO5/MAVFz5Qewft4gmZFXfT8+Oh1DgLSD2RswgAAIytEvGX7905/6e1d9A+no5ZFYe2zbw9lXS49g66SwQAAMZRKVEmIi6NCDeOWXGejFk10cRGZwGpSQQAAMZNTumGW3fN/WXtHbSTp2JWzcK22Q8Pcryp9g667eEIELmpPQUA4LGVeKA3k66qPYP2EgBYVblMOwtIdZFzaibXiQAAwGiL2H3oqvkv1p5BewkArKpDO+JOZwEZBSIAADDKSorP596Gl9feQbsJAKw6ZwEZFSIAADCqcqTNi/04VnsH7SYAsOqcBWSUiAAAwKiJSEcO755/W+0dtJ8AwFAc2jbz9hJlsfYOSEkEAABGR4kYlKa3sfYOukEAYGh6vewsICMjck6N6wAAQGU5pTcc6a+/rfYOukEAYGgOXDn7N84CMkoi4hsRoFd7CgDQQaXE/b3pyatr76A7BACGyllARs2pCLBOBAAAhi5HvubQjgvurL2D7hAAGKpDO+LOHLGr9g74diIAADBsJdJnL+itf3XtHXSLAMDQTc7OvDIibq+9A76dCAAADFOTmo37+nG89g66RQBg6G56fjyUkrOAjB4RAAAYihILi7s37K89g+4RAKhiYfvM/46I99beAd9NBAAAVlWJpTxRnP2jCgGAanIvbXIWkFH0zQjQTNSeAgC0TU6vXew/9WO1Z9BNAgDVHLhy9m9SpDfW3gGPJCJSM7lWBAAAVkxEundyJvdr76C7BAAqm/mdVNJ9tVfAIxEBAICVtBTxgoXtG+6uvYPuEgCo6tCOuDPn5CwgI0sEAABWRIlP9vLc62vPoNsEAKqbWDv7KmcBGWUiAABwtnIvbV7sx8naO+g2AYDqnAVkHHwrAkzWngIAjJ145+LO+ZtqrwABgJHgLCDj4FQEmBUBAIDTVko60Yt8Re0dkJIAwAhpctroLCCjTgQAAM5EzvmVt+7e8KnaOyAlAYARcsvW2b+NnN5Qewc8HhEAADgdEXFXNLO7a++AhwkAjJQ84Swg40EEAAAeT6TYvth/4r21d8DDBABGyoEr4ivOAjIuRAAA4NFExEef/CMbfr/2Dvh2AgAj54lPn31lKfHZ2jvgdDwcAXJvqvYUAGCkxMZ9F8dS7RXw7QQARs6+i+N403MWkPERESlPzIgAAMA3xFsP7547VHsFfDcBgJF0cOvMO1KKW2vvgNPlTQAAIKWUSqTjvZjaUnsHPBIBgJHVa9ImZwEZNyIAAHRbiXjJrbuf7OusjCQBgJHlLCDj6lQEWFN7BgAwbCXded7a6Wtrz4BHIwAw0pwFZFw1kzMiAAB0TTRbbtxy/v21Z8CjEQAYaQeuiK+kaHbW3gHLIQIAQIeUdNtFvfV/VHsGPBYBgJF33g+seZWzgIwrEQAAuiFH79J+3+9XMdoEAEbevovjeJNjc+0dsFzN5EzKE9O1ZwAAq6Sk/MeLe9a/r/YOeDwCAGPh4PaZG0uEW6qMrWZiWgQAgBYqJY6u6eWttXfA6RAAGBtRJjZFxFLtHbBcIgAAtE/O6UUH++u/UHsHnA4BgLFxaMfkR9LAWUDGmwgAAG0SX3xC07y49go4XQIAY2Uyz/xORPpa7R1wNkQAAGiHnNIV+/vrH6y9A06XAMBYuWl7/GNKzgIy/k5FgJnaMwCAZYsPvHf33J/UXgFnQgBg7Jz79DWvLhGfqb0DzlYzsUYEAIAxVEqU1EuXRkSpvQXOhADA2Nl3cRxvUlxWewesBBEAAMZPTumGI/35v6q9A86UAMBYOrh95saSYqH2DlgJIgAAjJESD0xOTO+oPQOWQwBgbDWNs4C0RzOxJjWTs7VnAACPJ8eeg/3z76g9A5ZDAGBsHdw6+VFnAWmT3JsSAQBghJUUn8/NhpfV3gHLJQAw1pwFpG1EAAAYXTnS5sV+HKu9A5ZLAGCsOQtIG4kAADCK8uHDu+ffVnsFnA0BgLHnLCBtJAIAwOgoEYPIsbH2DjhbAgBjb9/FcTxybK69A1baqQiwtvYMAOi8GKQ3Ht614cO1d8DZEgBohUNbZ97pLCBtlHuTIgAAVFQi3bdmYuIFtXfAShAAaA1nAWkrEQAA6skpdh7oX/iV2jtgJQgAtMbBrZMfXUrp+to7YDWIAABQQYnPXNDMvar2DFgpAgCtsnbSWUDaSwQAgOHKOW/a14/jtXfAShEAaJX9l8ddqeR+7R2wWkQAABiOEuXg4u4N+2vvgJUkANA6Tzt/+tWppP9bewesltybTM3UutozAKC9Siw1TWyqPQNWmgBA61x/SZxwFpC2y82ECAAAq6REvG6x/9SP1d4BK00AoJUWts/uj4iDtXfAahIBAGDllVLumZqNa2rvgNUgANBauTgLSPuJAACwskqTf2dh+4a7a++A1SAA0FoHdkx+LA3S79XeAatNBACAlRGRPtHLc6+vvQNWiwBAq02vmbm6lHRv7R2w2kQAADh7kWLzYj9O1t4Bq0UAoNX2Xx535cg7a++AYTgVAZ6QUkTtKQAwdkrE/sXd8++pvQNWkwBA6z3t/OlXR6RP194Bw5CbXmom14kAAHAGSkknJlK+vPYOWG0CAK13/SVxIqW4rPYOGBYRAADOTM75lbfu3vCp2jtgtQkAdMLC9tn9KaUDtXfAsIgAAHB6IuKuaGZ3194BwyAA0BlNmtzsLCBdIgIAwGmI2LHYf6IfjaYTBAA6w1lAukgEAIDHUOIjF/zwhjfVngHDIgDQKc4C0kUiAAA8ssixad/F3hClOwQAOmX/5XFX5NyvvQOGLTe91HMiEAC+Tbz18O65Q7VXwDAJAHTO08+bfo2zgHRR5EYEAICUUirpocne5JW1Z8CwCQB0zvWXxInIsbn2DqhBBACAlHKOly70L7i99g4YNgGATjq4dfZdyVlAOkoEAKDLItKXz1k3vbf2DqhBAKCzJprJTc4C0lXfigD+GQCgW0o0227ccv79tXdADZ786Kybt07+3aCk19feAbWcigDrRAAAOqNE+dDhnetvqL0DavHUR6flcBaQbhMBAOiSpkxsjIhSewfU4omPTlvYHndH5Gtq74CaRAAAuqCk/MeLe9a/r/YOqMnTHp339POnX1tK+lTtHVCT3wQAoM1KiaNrenlr7R1Qmyc9Ou/6S+JE04vLau+A2iJnEQCAVopI1x3sr/9C7R1Qm6c8SKfOApbIt9TeAbWJAAC0TUT8wzm95rraO2AUeMKDb8ipcRYQkggAQLtESVfu769/sPYOGAWe7uAbFrZPfTyl9LraO2AUPBwBIje1pwDAWYgPvHf33J/UXgGjQgCA7zBzTYl0T+0VMAoi59RMrhMBABhLpURJvXSps3/wLQIAfJuF7XF3lNyvvQNGhQgAwNiK9IdH+vN/VXsGjBIBAL6Ls4DwnUQAAMZOiQfW9Ka3154Bo0YAgO9y/SVxopdjc+0dMEpEAADGSo49B/vn31F7BowaAQAewYHts+9OKd9ceweMEhEAgLFQ0udys+FltWfAKBIA4FFENJtLiZO1d8AoiZxT4zoAAKOsly9f7Mex2jNgFAkA8CgWtk99POf0+to7YNRExDciQK/2FAD4LvnwkZ1zb629AkaVAACPyVlAeCSnIsA6EQCAkVEiBrkXl9beAaNMAIDHsLA97s4pX1N7B4wiEQCAURKD9MbF/oa/qb0DRpkAAI/jp35i+rUl0idr74BRJAIAMApKpPvWTEy8oPYOGHUCADyO/rPiZDgLCI9KBACgtpxi54H+hV+pvQNGnQAAp+HQ1tmbIvJ7au+AUSUCAFBNic9c0My9qvYMGAcCAJymaJwFhMfyzQjQTNSeAkCH5F7evK8fx2vvgHEgAMBpOrhl6hMl0utq74BRFhGpmVwrAgAwHCUOLO7c8M7aM2BcCABwBqamnQWExyMCADAUJZZ6zcSm2jNgnAgAcAZu3hxfbUq+uvYOGHUiAACrrUS87tZdF/5d7R0wTgQAOEM/+czp1zkLCI9PBABgtZRS7pmajWtq74BxIwDAGXIWEE7ftyLAZO0pALRIk/PVC9s33F17B4wbAQCW4dDW2ZtSyjfV3gHj4FQEmBUBAFgREekTqZnzw8ywDAIALFPuNZc5CwinRwQAYKWUHJsW+57BYDkEAFgmZwHhzIgAAJytErH/yM75m2vvgHElAMBZmJqeuSaV9NXaO2BciAAALFcp6cRUky+rvQPGmQAAZ+HmzfHVHPma2jtgnDwcAXJvqvYUAMZIadKrFvobPl17B4wzAQDO0k8+c/p1qaRP1N4B4yQiUp6YEQEAOC2lxD9Oz67dWXsHjDsBAM5S/1lxMhpnAeFMiQAAnK7cxFUHt577tdo7YNwJALACFrbNvsdZQDhzvg4AwOMq8ZELfnjDm2rPgDYQAGCF9KLZ7CwgLI8IAMCjyb3YuO/iWKq9A9pAAIAVcsv2qU/mnF5beweMq1MRYE3tGQCMkIh42+LOuVtr74C2EABgBa0JZwHhbDSTMyIAAKeU9NBEM3lF7RnQJgIArKB3bYt7UpOvrr0DxpkIAEBKKeUcL13oX3B77R3QJgIArLCffsb0650FhLMjAgB0W0T68jnrpvfW3gFtIwDACnMWEFZGMzmT8sR07RkAVFCi2XbjlvPvr70D2iZqD4C2etYLH3xXlMEv1N4B427pxNE0OHG09gwAhuevD++e/7cRUWoPgbbxBgCskonUXOYsIJy9ZmLamwAAHdLLzUYf/mF1CACwSm7ZPvXJ1KTX1N4BbSACAHRE5D+5ddeG99eeAW0lAMAqmkkz/Yh0d+0d0AYiAEC7lRJHU4kra++ANhMAYBW9a1vcUyJfU3sHtMWpCDBTewYAqyAiXXdkz4a/r70D2kwAgFX208+Yfn1E+XjtHdAWzcQaEQCgZSLiH87pNdfV3gFtJwDAKjt1FjA7CwgrSAQAaJlIW/b31z9Yewa0nTOAMCQX7Xlwf0qD59beAW2ydOJYGpzwvAgwziLi/xzePf/M2jugC7wBAEMy2WsuKxEnau+ANmkm1qRmcrb2DACWqZQoKdKltXdAVwgAMCTv2TL1qRTptbV3QNvk3pQIADCuIv3h4V3zH6w9A7pCAIAhchYQVocIADB+IuLrMbNmW+0d0CUCAAzRu7bFPaXkq2vvgDYSAQDGTIm9R3Y86Uu1Z0CXCAAwZOf9gLOAsFpEAIAxUdLnorfhpbVnQNcIADBk+y6OpVImNtbeAW11KgKsrT0DgMfSy5cv9uNY7RnQNQIAVHBox5oDJeJttXdAW+XepAgAMKJKlINHds69tfYO6CIBACqZnsybS8TR2jugrUQAgNFTSjrRNBO/XXsHdJUAAJW8+/Lpz6dIe2vvgDYTAQBGTJNfsdhf/8naM6CrBACo6KkXzrw4Im6vvQPaTAQAGA0l0h3nrl2zs/YO6DIBACq64XlxLKV0ae0d0HYiAEB9OeKKG7ecf3/tHdBlAgBUtrB9dn9EvqH2Dmi73JtMzdS62jMAOireeXjX/Ftqr4CuEwBgBESevjSV+PvaO6DtcjMhAgAMWUTcNTEz+d9r7wAEABgJB7fG13I0zysRpfYWaDsRAGDoLjm044I7a48ABAAYGQd3rFkoJb269g7oAhEAYDhKij86vHv+bbV3AKcIADBCnjQ9s6VEchoHhkAEAFht8fdr1s3+du0VwLcIADBC9m2OozlN/HIp8fXaW6ALRACA1VEiHc+9uPjg1nO/VnsL8C0CAIyYhe1TH48m/mvtHdAVpyLAE1KKqD0FoDUi8qWL/bkP1N4BfCcBAEbQoW0z+1Lkl9TeAV2Rm15qJteJAAArIEq8+ciuudfX3gF8LwEARtR5T5/emlLcWnsHdIUIALACSrotJuZ+q/YM4JEJADCi9l0cS83kzK+WiM/V3gJdIQIALF8p8Y8TMfFLi/04VnsL8MgEABhhB66Ir+TU+/lS0l21t0BXiAAAy1Digdyk5x7a85TP154CPDoBAEbcwvapT/dy/sVU4sHaW6ArRACA0xcRJ3NO//nwrvkP1t4CPDYBAMbAge0zfxk5/ZeIWKq9BbpCBAA4PaXk31jcPf+e2juAxycAwJhY2D67P6V0Se0d0CW56aWeE4EAjyFvO7Jnww21VwCnRwCAMbKwffZNOeXn194BXRK5EQEAHkGO2Htkz9y1tXcAp8/TDIyhi/Y++JullNdGKf4Mw5CUwVI6+dB9KZVSewpAdYOcd75/19zVtXcAZ8aHBxhTF+194DdKSdeLADA8IgBAShH5qsO75/bU3gGcOR8cYIxdtPeBX09L6U0piq/zwJCcigD3p1QGtacADF2k2HJ4z/x1tXcAyyMAwJi7aO+Dv1KWyh9GlDW1t0BXiABA15SIQU7p+Yd3z7+m9hZg+QQAaIGffeHRnxgMlm6MSOfX3gJdIQIAnVHigdzLv7a4c8M7a08Bzo4AAC3xH6479rTjJ0++u5T0g7W3QFeIAEDblUh3RNP7j0f662+rvQU4ewIAtMjPv7Sce+LBB96eIv1M7S3QFWUw+MYPA4oAQMuU+EieiOcu9uf+ofYUYGX44TBokZs3x1fP+8HZ55QUvp8HQxI5p97UE1IK/6QCbRJvfeI50z/lwz+0izcAoKWevefoxUux9MYoaV3tLdAF3gQA2qBEOp4jX3F419wra28BVp4AAC32sy986AdLObEvpfQjtbdAF4gAwFgr6XPRxMWHd81/sPYUYHV4XxFabGH71KfPm559Rkr5jbW3QBc8/HWAyE3tKQBn6h15Yt2/9uEf2s0bANARz3nhA79wMqXfi1Lmam+BtiuDQVo6fn8qg6XaUwAeU0S6t0Sz6ciuDW+uvQVYfQIAdMizry3nlMHR3y1l8N9qb4G2EwGAURcRN5bpNb95ZMeTvlR7CzAcAgB00HP2PvBzg5LeUEp5au0t0GYiADCSStwdTXr+4V3zb6k9BRguvwEAHXRg2+wt554z8y9SyntLiWO190BbRc6pmVznNwGAkVAiBlHijWvX9v65D//QTd4AgI77+b1H/8mJpcFLUpRfrr0F2sqbAEBtJeK9ExEbb90197e1twD1CABASiml57zw6L9bKuXlKQ1+tPYWaKNSSlp66P5UBidrTwE6pET6bJPjisWd82+vvQWoTwAAvunqUvL7rj32K4PB4KpI5V/W3gNtIwIAw1IivpAjveiCPPfGff04XnsPMBoEAOB7lFLi2dce/aVBSS+IMvhXtfdAm4gAwGoqpdze5Obafza/4c3XXxInau8BRosAADyqUko850VH/9PgZNmaojyj9h5oCxEAWHElPpkiX5t76//XYj/85QI8IgEAOC0XXffAj6UT8T9KlF+LUqZr74FxJwIAZysiTpaS3tE0+XW39tcfiohSexMw2gQA4Iw8d2954rHB0V8vZfBbKdIP1N4D40wEAJYnvhiR3jDZTL/hYP/8O2qvAcaHAAAs27Nf9OAzlgblV3NJv1JKWV97D4yjUkpaOv71VJZ8VRd4dBHp3qWU395L5c9SM3fQa/7AcggAwFm7upT8F3uP/fRgMPjVQR78cpR4Uu1NME5EAOCRlEj3pRLvaCL/2ZOb9bf4NX/gbAkAwIq6upT8/uuO/lhZKj+XUnpOGaRnpiiTtXfBqBMBgBIxiJL+epDTwd4gHXhyb+4vfOgHVpIAAKyq57y4zJalB//9UknPiqXyb0qKH4soa2vvglEkAkDHlPRQ5PyRUtIHU5MOPWF67aF3bfu+e2rPAtpLAACG6upS8vv2Hv+hyCd//ORS+vEmyo+WEk8vkS6MUvydROeJANBSJe4uOX0mSvpwyulDkfKHfmhu/ceuvyT8YQeGxsM2MBJ+8ffKzEN3nfinpTn5tDKIp6U0+P5BSefniHPLoJxbcjo3pXJeDOKcFCXX3gurSQSAMVFiKaV0b0rpnhTpq6nEPSmneyKlu0spn4tIt0eTb59Ja26/qX/efbXnAgAAAAAAAAAAAAAAAAAAAAAAAAAAAAAAAAAAAAAAAAAAAAAAAAAAAAAAAAAAAAAAAAAAAAAAAAAAAAAAAAAAAAAAAAAAAAAAAAAAAAAAAAAAAAAAAAAAAAAAAAAAAAAAAAAAAAAAAAAAAAAAAAAAAAAAAAAAAAAAAAAAAAAAAAAAAAAAAAAAAAAAAAAAAAAAAAAAAAAAAAAAAAAAAAAAAAAAAAAAAAAAAAAAAAAAAAAAAAAAAAAAAAAAAAAAAAAAAAAAAAAAAAAAAAAAAAAAMP7+PzaeWWyh90asAAAAAElFTkSuQmCC;" vertex="1" parent="1">
          <mxGeometry x="22" y="150.51" width="35.49" height="35.49" as="geometry" />
        </mxCell>
        <mxCell id="WfVGsAc3efYB-Gr4wjyI-4" value="Postgres" style="text;html=1;strokeColor=none;fillColor=none;align=center;verticalAlign=middle;whiteSpace=wrap;rounded=0;" vertex="1" parent="1">
          <mxGeometry x="50.620000000000005" y="333.5" width="60" height="30" as="geometry" />
        </mxCell>
        <mxCell id="WfVGsAc3efYB-Gr4wjyI-5" value="Mongo Db" style="text;html=1;strokeColor=none;fillColor=none;align=center;verticalAlign=middle;whiteSpace=wrap;rounded=0;" vertex="1" parent="1">
          <mxGeometry x="230" y="335.83" width="60" height="30" as="geometry" />
        </mxCell>
        <mxCell id="WfVGsAc3efYB-Gr4wjyI-7" value="&lt;font style=&quot;font-size: 14px;&quot;&gt;GCP&lt;/font&gt;" style="text;html=1;strokeColor=none;fillColor=none;align=center;verticalAlign=middle;whiteSpace=wrap;rounded=0;" vertex="1" parent="1">
          <mxGeometry x="235" y="202.79000000000002" width="60" height="30" as="geometry" />
        </mxCell>
        <mxCell id="WfVGsAc3efYB-Gr4wjyI-8" value="&lt;font style=&quot;font-size: 14px;&quot;&gt;Azure&lt;/font&gt;" style="text;html=1;strokeColor=none;fillColor=none;align=center;verticalAlign=middle;whiteSpace=wrap;rounded=0;" vertex="1" parent="1">
          <mxGeometry x="757.5" y="204.01000000000002" width="60" height="30" as="geometry" />
        </mxCell>
        <mxCell id="WfVGsAc3efYB-Gr4wjyI-9" value="Github" style="text;html=1;strokeColor=none;fillColor=none;align=center;verticalAlign=middle;whiteSpace=wrap;rounded=0;" vertex="1" parent="1">
          <mxGeometry x="186.5" y="70" width="60" height="30" as="geometry" />
        </mxCell>
        <mxCell id="WfVGsAc3efYB-Gr4wjyI-10" value="Jenkins" style="text;html=1;strokeColor=none;fillColor=none;align=center;verticalAlign=middle;whiteSpace=wrap;rounded=0;" vertex="1" parent="1">
          <mxGeometry x="320.44" y="78" width="60" height="30" as="geometry" />
        </mxCell>
        <mxCell id="WfVGsAc3efYB-Gr4wjyI-11" value="Terraform" style="text;html=1;strokeColor=none;fillColor=none;align=center;verticalAlign=middle;whiteSpace=wrap;rounded=0;" vertex="1" parent="1">
          <mxGeometry x="394.63" y="300" width="60" height="30" as="geometry" />
        </mxCell>
        <mxCell id="WfVGsAc3efYB-Gr4wjyI-12" value="Secret Manager" style="text;html=1;strokeColor=none;fillColor=none;align=center;verticalAlign=middle;whiteSpace=wrap;rounded=0;" vertex="1" parent="1">
          <mxGeometry x="20" y="182.5" width="60" height="30" as="geometry" />
        </mxCell>
        <mxCell id="WfVGsAc3efYB-Gr4wjyI-13" value="" style="shape=image;verticalLabelPosition=bottom;labelBackgroundColor=default;verticalAlign=top;aspect=fixed;imageAspect=0;image=data:image/png,iVBORw0KGgoAAAANSUhEUgAABAAAAAJ6CAYAAAC2dDAeAAAABGdBTUEAALGPC/xhBQAAACBjSFJNAAB6JgAAgIQAAPoAAACA6AAAdTAAAOpgAAA6mAAAF3CculE8AAAABmJLR0QA/wD/AP+gvaeTAACAAElEQVR42uzdd4BcV3nw/+fcO7Mz24tW2qbd2V2tuuWiLlewTbWNARsbYzAQwDL1JSQkefMmRAkpJD8CwS+2JBvi4BgIpmPccJctW9Vyk2T17X1X22dmZ+49vz+c8GJbklV255575/v5630JaM4+59xzz3nuKSIAAAAAAAAAAAAAAAAAAAAAAAAAAAAAAAAAAAAAAAAAAAAAAAAAAAAAAAAAAAAAAAAAAAAAAAAAAAAAAASJIgQAgOPRG5eFx8LDJeHJRIljqRLbVSWukhLlqhxl6XxXrDzRbkRpVaSUskVEXNEFSlT42C8dd0LESv7+31cypLWrRUQsZY1oV48opUe0ZY24jh6xtR6edJ3hwnDliFq7M0WNAAAAkAAAAJzCpD4hR6tE0nVaW7WipEK5boUoqRRRM5WSSq2lQkRKRSTfoKLHRWRQKenWWrpFpFdEOpToXldJt3J0t5JQbySRalVfaY9T0wAAACQAACDwJu6sma10eI64ukm0blLKmqNFzxYtsdcm+mIFPAQ9InJYtBwRJYdF1Gv/b8s6HC093KGuE4dWAgAASAAAAHxBb1wWnlR98xwti5TIIqWtxVpkgYhuEpFcInRckyJyWCnZrbXarbW727Zld46euZ9tBgAAgAQAAMBTw9+bXRZxraWuVucpLeeJyDkiMldEwkRnyqREZL+I2i1Kv6Ic90XHtrbnr23pIjQAAIAEAABgyunvzy9MpBPLRavVSvRKreQ80RIjMp5pVyLbtajtIu62qArtUGsPDxMWAABAAgAAcEoStzfM18q9QETWiFKrRPQiEbGJjLG0iOwXke1Kq2eUqzdFPt+yl7AAAAASAACAN0z46xrFlsu1qAtFyyUiUkdUfK9Xi2wT0c9oVx7N623dpdaJS1gAAAAJAADIIvHvNsQk7L5DtHqHiL5URMqJSuD1K5FNIvpJEfeh6C3tBwgJAAAgAQAAAaPvrsifnMi93BH9TiX6HSJqLlHJ+rftQa3lQcuSByNjzpPqK+1xggIAAEgAAIAPjd3ZUGE7zruUWFdq0e8RkQKiguNIiJZntNKPalcezf9c605CAgAASAAAgMGSt8UWupa6Xiv9fvXatXzA6dgjIr9wLPXzgpubXyAcAACABAAAGCC+vr5eKfdqLepDInIBEcEUa9Za/UZZ7k+jN7duVko0IQEAACQAACBDErfXNWrbuk5pfZ0WOY+IIENalZKfu0p+lvuZludIBgAAABIAADANJm6bU2vZqQ/+95f+8+kv4XkyQNSPxUl/L/r59oOEAwAAkAAAgDOg767IT0zkXieiP8WkH6Y2UxH1jCh9d1Tsn6q1h4cJCQAAIAEAACdpfGNsqaX1Z0TUR0SkiIjAJxIi+tdK1N2RspaH1XXiEBIAAEACAADeQN/aVJSMTH5Ya3WTcJgffN+gpVMp9Z+uY9+W9/lDbQQEAACQAACQ9cZvr1tmWdbNIvojIlJARBAwjhZ50LL0dyKfaX2MgwMBAAAJAABZRd82syBp535Si7pZRM4iIsgS+7RSGyYd9wcln2s9SjgAAAAJAACBNf5/a6vtsP0lV/RaJVJCRJClJkT03coKfTt68+H9hAMAABIAABAYydsbznYt/XkRfZOIRIkIICIirhZ5wLL0d6I3tz5KOAAAIAEAAL4V31h3odbqz5XIFfRvwAlf/s9r0d+Jdrf+SK2TNBEBAIAEAAAYT9+7OCdxdPwGLforSsvZRAQ4JUeU0v8WkfT31NrOCcIBAAAJAAAwb+K/sTovrsOfU1r+WJRUExHgjPRoJf9fbm5ig7qpZ5xwAABAAgAAvJ/437s4J3l09BNaq3UiUkVEgCnVL1rdFrWsb6u1h4cJBwAAJAAAIPMT/43Lwknp+6TW6msiUkNEgGk1IFp9l0QAAAAkAAAgcxP/dRJKVMRuEiV/LSL1RATIcCJAybeiuYnvsDUAAAASAAAwXRN/K15Vd43S6u9FZB4RATzVr0V/M7es8Nvqut2ThAMAABIAAHDmE38tKr6h7kPKUutEy0IiAhhlnxb5y9y1Lb9USjThAACABAAAnJbxDbXLLbH+TUQuIBqAyfQ20daf5362+UliAQAACQAAOGkT62fXKGV/Q0RupF8CfJQGEHWfLe5fRG5p3UM0AAAgAQAAx588fGt2bjzP+pIS9X9EpJCIAL6U1lrdnmtZX+PGAAAASAAAwJskNtRdpUV9R0QaiAYQCANK9NcjZa3fVdeJQzgAACABACDLjW+MLbW0+jcRfRHRAAI5sHjeteSLeTe3PEs0AAAgAQAgC43d2VBhO+4/icjHRcQiIkCgaRH9A8e2/6LgM0d6CAcAACQAAGTDLECLSmys/4SI/qaIlBERIKsMK1F/EVnbvJFrAwEAIAEAIMDid8YaxFEbRfQ7iAaQ1TZbom/mtgAAAEgAAAgYvU6sZFXdp7VW/yoiBUQEgIiklKhvRSZDf6O+dDBJOAAAIAEAwOeStzec7VrOnSJqJdEA8Gb6gCi1NndtyxPEAgAAEgAA/Dikv6s+mki6XxNRfyoiYSIC4ARcLbIhNxz9C/WpfaOEAwAAEgAAfCK+se5C0epOEVlANACcwiikRUQ+yWoAAABIAAAwnL6rPhpPyD8rpb9IfwLgNLlKy7cjUfVX6pPNCcIBAAAJAACGSW6oW+SI+pESOYdoAJgCe1xX35T/udadhAIAABIAAAygtajkHXWf0Vp9W0TyiAiAKZRWov41omb8tVq7M0U4AAAgAQDAI+MbY1WW1neJqHcRDQDTaKsS52PRW9oPEAoAAKaORQgAnIzE+vp3WVqeZ/IPIANWabF3xtfHbiQUAABMHVYAADgh/a3ZufHc0Dc46A+ARyOV/4zmJj6rbuoZJxgAAJAAADBNxjfGllpafihc7wfAW7stS18fubl1N6EAAOD0sQUAwDHFN9TdZGl5hsk/AAMsdl21I7Gh7n8RCgAATh8rAAC8jr6rPppI6u+KyKeIBgAD/Tgajq5Vn9o3SigAACABAOA0TdxZM1s5oZ+JyCqiAcBg+y3RH4jc0rqHUAAAcPLYAgBARETid9RfopzQDib/AHxgnitqy8T62AcIBQAAJ48VAECW01pUcmPdl7Sob4pIiIgA8FMXpkT9S6S7+S/VOnEJBwAAJAAAHG/k/P35hclU4t+1yLVEA4CP3Z+IqI+WfrJ5iFAAAEACAMAbJO5onKdd5xcisphoAPA/fcCy5ANcFQgAwPFxBgCQlZP/2Hu06+xg8g8gONRc11XPJjbUv5tYAABAAgCAiMQ3xD6lXfm1iBQSDQABU6RF/zaxPvYFQgEAwJuxBQDIElqLSmyo/xtR+m+IBoDg93nq1twZzV9R14lDNAAAIAEAZM9A+NamSCIndZeI3EA0AGSRh6Lh6HXqU/tGCQUAACQAgMAb+W7NjHAo/EsRfRHRAJBttJKXJB26Mu/zh9qIBgCABACAwPrvk/4fEJE5RANAFqcB2izXvjLyuSMvEQsAQDbjEEAgoCY2xNZox3mGyT8AqFrXcjcn7qi7nFgAAEgAAAjW5H99/YeVyBOiZCbRAAARESnQrvpN4vba9xEKAAAJAACBkFhfv1Yp/UMRiRANAHidXG1Zv4hvjH2aUAAASAAA8LWJjbGvaqXX82wDwHHZouWOifV1f0YoAADZhkMAgaBM/jfU/bkS9Q0iAQAnR2t1a+4tzV9WSjTRAACQAADggwGsqOTG2L9okT8lGgBwqp2ofC86o+UWdZ04BAMAQAIAgNGT//iG+n9TSn+JaADAaY+G/iva1fIxtU7SBAMAQAIAgHmT/3vFTgzG7hSRTxINADjjIdG90e7mG0kCAABIAAAwa/K/cVk4qQd+qEV/iGgAwJQNin4WUeUfUWt3pogGAIAEAADvJ/931UfjSf1TJXIl0QAAkgAAAJAAAII4+d+4LBzX/b9g8g8A0+r+6GT4GvWlg0lCAQAIEu4KB/wy+V8noaT0/5jJPwBMuyvikfS9+t7FOYQCAEACAEBmJ/9aVKIytkFruYZoAMD0U1q/Lzk49l96nYSIBgCABACAzE3+N8RuE5FPEQ0AyGD/K/KBRGX99/U6xksAABIAADIgeUf9N0TJZ4kEAHiSBrgpXhm7lTgAAEgAAJhW8Q31f6u1/jMiAQDeUSKfj2+IfZ1IAAAC8E4DYKKJjfVfVlp/m0gAgBm06L/Iu6X1n4kEAIAEAIApk9gQ+5wW+S7PKACYlQNQSn0+urZ5PaEAAJAAAHDG4hvqPiqifiBs0QEAE7la9PV5t7T+jFAAAEgAADiDyX/DxSLu70QkQjQAwFgJUfoduWtbnyEUAAASAABOWfK22EJty2YtUko0AMB4g5ZSF0TWNr9KKAAAfsESY8AAIxury92Q/IbJPwD4Rpmr9YNjt9VXEgoAAAkAACdFf2t2bliH7xMtTUQDAHylPmTr+/VtMwsIBQCABACAE0/+14mVzLPvEZHVRAMAfNiPiyxNWHn36nUSIhoAABIAAI4rWVn3r1rkg0QCAHxMyXsSlbHbCQQAgAQAgGNKrK9fq0V9mUgAQCB8JrGh7ouEAQBgMm4BALyY/G+IvVeL/EZEbKIBAIHhKEuuit7c8iChAACQAAAgkxsaznHE3Swi+UQDAAJnUDnOqujn2w8SCgCAadgCAGTQ0O11pY64P2fyDwCBVaZt+z69sbGYUAAASAAAWUqvEytiqXtEZA7RAIBAW5DQzn/pe9nmBQAgAQBkpURl/d+IyHuJBABkhXcnBur+njAAAEzCGQBAJib/6+uu1Er9Wki6AUA20Vrp6/PWtv6UUAAASAAAWSC+vr5elN4hIjOIBgBknTHLkZWRz7fsJRQAAK/xNRKYRvpbs3OV0r9g8g8AWavAteVevbE6j1AAAEgAAAGWyLXWa5HziAQAZLWzEm74TsIAACABAATUxMb6L4tSHycSAABR8pH4htinCAQAwNvXEYCpn/yvr7tAKfWEiISJBgDgv8Vtsdbk3HLkRUIBACABAASA3thYnNDOCyJSTzQAAG8YeR2Mir1crT08TDAAAJnGFgBgiiVc53Ym/wCAY9LSlNTO9wgEAIAEAOBzExvrPiRKPkIkAADHzwHItfENdR8lEgCATGMLADBVk//b5tRadvpFLVJKNAAAb2FYtDo397PNzYQCAJAprAAApoBeJ5ay03cz+QcAnKRiUfoefa/YhAIAQAIA8JFEZewvReRtRAIAcAouSAzG/jdhAABkClsAgDM0fnvdMstSzwlX/gEATl1au+qivM81byEUAIDpxgoA4AzouyvyLUv9iMk/AOA0hZSlf6i/P7+QUAAASAAABkvEo7eKyDwiAQA4A42JVPxfCAMAYLqxBQA43cn/+rortVL3EQkAwBTQouSy3LUtTxAKAAAJAMCkUdqtTUWJnMlXRFQt0QAATJHmqDOxRH2+b4xQAACmA1sAgNMQz0n9E5N/AMAUq49b+f9AGAAA04UVAMApmri9frWy9GYhgQYAmHquuO7bcj/X9jShAABMNSYwwCnQ9y7OUZb+Ps8OAGDaxmaW9T39rdm5hAIAQAIA8FBiYOyvRGQRkQAATKN5yTz7bwkDAGCqsQUAOEnJ9bVnucraKSI5RAMAMM0c19Wr8j/XupNQAACmCisAgJOg14nlirWRyT8AIENsy1Ib9L1iEwoAAAkAIIOSlXVfFCXnEwkAQAYtTw7Wf4YwAACmClsAgLcQ39hYJ9rZLSIFRAMAkOGB2tGUDi0o/OyhXqIBADhTrAAA3mrwpZ3vMPkHAHhBi5SGVOqfiQQAYErmNoQAOL74+tilouQxIgEA8DQPoNWluZ9tfpJQAADOBCsAgOONtu4VW1vybSIBAPCYEqW/qzcuCxMKAAAJAGAaJAfrP6O0nE0kAAAGWBzX/V8kDACAM8EWAOAYjt5VXxJN6gMiUk40AACGGHVsa27BZ470EAoAwOkIEQLgzXIn9dc0k38AgFkKLcf9moh8nlC8Rt82syCpCmq0JRVa62pL6TItqliJFGvlloioYqWVrUXni5acN/7vlZJREZXWIlpEhrSWhFLugFJqwHXVgKXcAUerfrGkO+/mlm6lRBN1AH7GCgDgDRK3N8zXlvuyiLDXEgBgmrTlyNmRz7fszZY/eGL97BrLCi8WceeKyBxX60Ylao6INIpIXgaLkhSRFhHdLKJaREmzdvVB21Uv5/S1HFDrJE3zBEACAPCZ+IbYb0XkCiIBADDU/bm3tFwZtD9K3yv25EDtQldZq7TIUqVlsShZIiJlPih+Uons0Upe0a5+xbLl+UgiZ5v60sERmisAEgCAoRLr69+llX6ISAAAjB7AWfod0ZtbH/X1hP/uivzkeO6FWvTFomSNiCwXkcIAVZOjlexWWj8rIs8pcZ+L3tJ+gNYLgAQAYMJAZJ2EEpWxF0VkEdEAABj9zhJ5MbesZZm6ThxfvWer6y8QV18uIm8XkZWSfdvt2kXkYa30w5OOPFryudajtGYAJAAADyQ21n9Wa307kQAA+MSnc29p+b7JBRz+3uyyHMd+t4hcpbS8S4uUUm2/54jINlH6YVvbv8q55ciLhAQACQAgA/Rd9dFEUh8UkRqiAQDwia6oSjWptZ0Txk360/YHRPR1IupS4dapk7VftPzMsdVPC25ufoFwACABAEyTiY31X1Zaf5tIAAD8RIt8Ne+Wlm96Xo5vzc5N5FnXiFYfESWXCzfpnOkI/aCI/ESlnf+Ifr79IAEBQAIAmKpBy90V+YmJ6CERqSAaAACf6Y+Go43qU/tGvfjx8dvrlill3aSUvlFEZlAd0zBYV7JTRN8RyU3+UN3UM05EAJAAAM7AxPq6P1NK/TORAAD41F/n3tLy95n6MX3bzIJkKP9jWuvPi8hiwp8xwyL6x5Zrr4987shLhAMACQDgVAcx359fmEglDotIOdEAAPjyXSYylIyohtJPNg9N5+8k7mic5zru55XSHxeRYiLvaaU/qpR8O7K25UGlRBMQACQAgJMQ3xj7a9Hyd0QCAODzCeHXcz/b8rXp+KfH7qg/19b6K6LlIyJiE2yjRvIHldbfjeQlv8f2AAAkAIATOHpXfUkkqY8okRKiAQDwudGUSjUWre3sn6p/MLGh7h1a1F+IyKWE13i9WuT/y81LrCcRAOBELEKAbBVN6j9h8g8ACIjCHMn56lT8Q/GNdRfGN8Qe16J+x+TfN2Ypkf8vMRFtjq+vX6dvbSoiJACOhRUAyEoj362ZEQ6FDosIL0gAQFBMpFQqdrqrACbW112glPq6iLydUPperxb559zJ8G3qSweThAPA/2AFALJSTij8VSb/AICAyQu74S+d6v8osWH23MSG2C+VUs8w+Q+MWUrkXxM5qb0T6+uu05qPfgBeQ2eArKNvbSpK5KRahROMAQDBMxgNR+vVp/aNvtV/cej2utKoZf25Fv1lEYkQukCPfraJkj/JXdv6DLEAshsrAJB14pHUWib/AICAKounEzefcCq4TqzEhvpbIpY6qEX/OZP/bKBWilab4htiPxrfGKsiHkAW9waEANlEb1wWTui+QyKqlmgAAAKqOxpRDeqTzYk3/h/G7qg/13b17SKyhjBlrWEl+m8iZa3fVdeJQziA7MIKAGSVhO67nsk/ACDgKhMJ92N/+B/o22YWTGyI3Wq7egeT/6xXrEX9W2Iw9nRy4+wlhAPILqwAQHYlADbEdmmRc4kEACDY9IFoWetCdZ048Q11l4mo74lIPXHBG6RE9Dejkzl/y20BAAkAIFD+ewD0KJEAAGSJT4vSK0Srmxnz4S2mBC9brvpo5HNHXiIWAAkAICAJgNiDIvJuIgEAAPAmKdHqH6Mzmr/O2QAACQDA15Lra89ylfUSbR4AAOBE9CbR1sdzP9vcTCyA4OEQQGQFV6k/YfIPAADwVtTFovSLExvqriUWQACfcEKAoBu7s6HCdtxmEYkSDQAAgJOitVb/N9ea8adq7c4U4QCCgRUACDzbdb/I5B8AAOCUKKX0lxK679HxjbEqwgEE5MEmBAgyvXFZOKH7W0WkkmgAAACclm5R+kO5a1ufIRSAv7ECAIEW1/1XMfkHAAA4I5Wi1WPxjfUfJxQACQDAWErkM0QBAADgjOWI1v8xsb7+O3odcwjAx/MjIJgmbptTq+z0ERGxiQYAAMAUTSCU/DwiqZvU2s4JogH4C9k7BPflZDmfYvIPAAAwtbSWaxI69MTIxupyogGQAAC8fzGtE0uU/iSRAAAAmA5qZViHn564bU4tsQBIAACeSlbF3iMidUQCAABg2ixQdvqZxO0N8wkFQAIA8IyrNYf/AQAATL86bbmbxtfHziMUgPk4BBCBM74xVmVpaRWRENEAAADIiGGt1Lvy1jZvJRSAuVgBgCA26k8y+QcAAMioYqX1w+N31K4gFAAJACAjtBYlWj5FJAAAADKfBLBc6yG2AwAkAICMiN8ZWyMijUQCAADAE2VKyePjG2NLCQVAAgCY3gbt6g8RBQAAAO8okRLLlYe4HQAgAQBMG71OLC2KBAAAAID3WYCZ2nIfnbizZjbBAEgAAFMuUdlwoYjUEAkAAAAjzFZO+IGjd9WXEAqABAAwpbS41xEFAAAAo0ZoS6JJ/Qt9a1OEWAAkAICpebXcK7YSuYZIAAAAGOftiZzU97QWRSgAEgDAGUsMxC4RkUoiAQAAYKSPJu6I/W/CAJAAAKagJWuW/wMAAJhMy9cTG+quIhAACQDg9N8l94otWn2ASAAAAJg999Cifpi8o24xoQBIAACnJTlYd6mIzCISAAAAxit0XXXfyHdrZhAKgAQAcMq0Viz/BwAA8I+GcCj0Aw4FBEgAAKc2+b9XbBG5mkgAAAD4yhXxO2JfIQwACQDgpMUH6laLkplEAgAAwF+Uln+a2BBbQyQAEgDAyb04RK4kCgAAAL4UViL36I2NxYQCIAEAnEQGQJEAAAAA8K/GhHbvIAwACQDghOLfbYiJyFlEAgAAwM/0dfENdR8lDgAJAOC4lO1eRRQAAAACMbL7zvjGWBVxAEgAAMeklbybKAAAAARCmdLCVgCABABwjMn/xmVhEbmISAAAAASDErkyvr7uY0QCIAEAvE5CD64RkSIiAQAAEKAkgGIrAEACAHgT9x3EAAAAIFi0SKnlyjeJBEACAPhDJAAAAACCSMlH4utjlxIIYDoeL8Bnjt5VXxJN6n4RsYkGAABAIO2JqvJz1dqdKUIBTB1WAMB3cpPuRUz+AQAAAm1RXPq/TBgAEgDIeupiYgAAABDwEZ+Wr02sn11DJAASAMhiWjQJAAAAgOArUJb9d4QBmDqcAQB/Tf5vm1mQsPMGRSRMNAAAAALPsSx9TuTm1t2EAjhzrACAryRDBecz+QcAAMgatqOtfyQMAAkAZCGt3YuIAgAAQPZQWr8vvrHuQiIBkABA9jmfEAAAAGQZrb6pNduXARIAyJ5+f51YIrKcSAAAAGSdVckN9e8kDAAJAGSJyYraRSJSRCQAAACyj1buXxIFgAQAsoRrWauJAgAAQLZSF8dvr+U8KIAEALIjAyCrCAIAAEA2z14sVgEAJACQDbQlK4kCAABAVnv3+O11ywgDQAIAQZ7831UfVVoWEQkAAIAsn8BY1p8RBYAEAAIsnlBni0iISAAAAGQ7/cGJO2tmEweABAAC21D1eUQBAAAAIhJSTvgzhAEgAYCA0pZLAgAAAAD/Mzq8Rd/aFCEOAAkABLKPFxIAAAAA+B+z4jnpDxIGgAQAgjb3v1dsEXUWkQAAAMD/UKI/TxQAEgAImOTg7EYRySMSAAAA+AMXJDfWLyAMAAkABIiSENf/AQAA4E1crW8kCgAJAASpY1d6MVEAAADAmyj5mF7HnAYgAYDg0LKQIAAAAOAY48RYorr+IgIBkABAQCgRVgAAAADg2Fz9MYIAkABAAOh1YmmR+UQCAAAAx3GtvrUpQhgAEgDwufjMOTXCDQAAAAA4vuJkNHUpYQBIAMDnVCjdRBQAAABwIlrrq4kCQAIAfudqEgAAAAB4iwyAej+3AQAkAOBzSllziAIAAADeQkW8MraKMAAkAODrDAArAAAAAHAyExvFNgCABAB8TQsrAAAAAHASw0Z5L1EASADAx1yReqIAAACAk0gBnDV2Z0MFcQBIAMCPXfhtMwuUSAmRAAAAwElQlqPfRhgAEgDwoUnJqyUKAAAAOOkMgHLfThQAEgDwIR2ySAAAAADgVFIAlxEDgAQA/JgAcN3ZRAEAAAAnP4CUpvjGxjoCAZAAgO9ap2YFAAAAAE4tB+C65xMFgAQAfNd7W9UEAQAAAKc0wVF6BVEASADAb/N/cbnGBQAAAKc4hlQkAAASAPAbJYoEAAAAAE41BbBMr5MQcQBIAMBfSAAAAADgVOVNVtQuIAwACQD4y0xCAAAAgFPlKpttAAAJAPiFvm1mgYgUEAkAAACcKqX1YqIAkACATySs/HKiAAAAgNOhlSwkCgAJAPiEY0sJUQAAAMBp4gwAgAQA/MJ2SAAAAADgtNXrb83OJQwACQD4gGuRAAAAAMDpz3Mmo+G5hAEgAQB/NMxiogAAAIDT5ViacwAAEgDwAy1SShQAAABw+gNKN0YQABIA8AElupAoAAAA4AymOjXEACABAD9wdR5BAAAAwGlPdJSeTRQAEgDwAS0WCQAAAACcwXhSWAEAkACAHyilubYFAAAAZ4IEAEACAD7BCgAAAACciUp9r9iEASABAMMpEgAAAAA4M6GRkdlcLQ2QAIDptJYoUQAAAMCZiExaJUQBIAEA84UJAQAAAM5EOmQVEQWABABMp9ivBQAAgDNji7AFACABAPNpEgAAAAA4IyrtkAAASADAB901CQAAAACcEa0UCQDgD2dZhAAmim+IPSsia4gEAAAAzkCHiLwqWreLslpEu+3KVu1KdGtOIqdNfengCCFCNgkRAphJ2+SnAAAAcIZqRKRGlBIRLaKUaFdEi5JETkriG2KjWskRpfVe0eplLbLHcp2XIzPbj6jrxCF8CBpmWDBSfEPsaRG5kEgAAADAAwklskcr2a213m1p64WIZW1Raw8PExr4GSsAYCg9QX4KAAAAHolqkaWiZakSJVppSWhH4htih0XJZiX6GaVkc05n6161TlzCBb9ghgUjJTbEfq5FPkgkAAAAYLABLfKcUvKcFvVYbmnzDrYOgAQAcIriG+p/IKJvIhIAAADwU0JAlDwioh5y0vJwweebuwkJSAAAb2FiQ+xWJfJFIgEAAAAfO6y1+q1lu/dFSgo3qet2TxISkAAA3iC+IfZ1EfkrIgEAAIAg0CJDSsl9SuufRsoKHyYZABIAwH+bWF/3Z0qpfyYSAAAACKBBEfmlUta9ka4jj6t1kiYkIAGArDL+f2ur7Rz7au3qD4qStwm3VAAAACD4+kXUL0Trn0R7Wp7kVgGQAEBgxdfX1yvlXq1FfUhE1oiIRVQAAACQpTqUqHu0lg25n21uJhwgAQDfG7q9rjRqq4+IyCe1lmVEBAAAAHgdR4s8aLnunZHetgfYIgASAPAVvU6sZHXdpVqrm0TLNSKSR1QAAACAt9SlRN0tyrkzurbtEOEACQAYa+LOmtnKCa0VkU+IyGwiAgAAAJwWV4s8oLT619zPNj9JOEACAMYY3xhbaol8WbR8WETCRAQAAACYskncC1r0t6Nq5o/V2p0pIgISAMg4vU6sZGXdFVqrL4mSy4kIAAAAMK26RKs7ktr9TsnnWo8SDpAAwPRP/O+qjyaT7lqt1B+LlhgRAQAAADJqWInc4Sj5dv7ali7CARIAmPqJ/72Lc5JHRz+htfqaiNQQEQAAAMBTkyLqP1yl15EIAAkAMPEHAAAAgm9ca/V9N6T+seAzR3oIB0gA4NQn/usklKys/7QW/X+EE/0BAAAA042KyHeSrv4WZwSABABOWmJD7L1ayTdFy0KiAQAAAPiHFhlSor8ddeLfUp/vGyMiJACAY0punL3E1aF/FdHvIBoAAMBAjtjRXqso1muV1A9L2YKEKqpzJBTVklNqix3SVk5hSOyQSCg/R1RIlB0O6XQ8/fsBcTo+qZ1JkcnRtJPoFxUf1Hqiz5bxnrB79EChHmkp1fH+ahHJJdzweSagU0T9n2hP891qnbgEhAQAICIiY3c2VNiO/jsR/SkRsYkIAADwdNBq5/SrWUsP2bUXH7Vq1ogqihVKTuEMscLlIlKegSIkRLtdOjnaJ6Otw27vC47bvSPP7dlRqUc75jBegq+eJyU7tba+knvLkU1EgwQAspheJ1aysu7zWtTfi0gREQEAAB7M9iesmvNfsOe+f8iuWBqRwtlVYoXnikjY0BFUl0z0HXJ6nh9zjzyU5xx5eJGk4+VUJHyQCPi5OPrPop9rPUw0SAAgy4zdUX+u7bobRdRKogEAADI5g1aFs/faC29stee+L6ryq88Wpcp8/PckZXL0Zadjc7+7555Sp33zUhEdppphantVSn0nkgz9g/rSwRHCQQIAQX/j3l2Rn5yIrtMiXxaREBHBVLMb371L5VUl/Fbu9KHfzpd4X1kg62T2ha+okrmjppTH6dlZrvtempstz4TV+J5dVl6lcc9E+pX/WCmis2YZc2jhDVvFjhqxB1b3vVji9DyfbQftpqzZF223l35xxK5YWi9WaEFwB1tuu+7dtSf1woYCt+Wx5aLdHEYHMFCX1vrLeZ9tvZdQkABAQCU2xN6rRW4TkXqigemZ6YRS0U8fiItSvttSkn7l359Jb/67C4NYLZH33vWkqn3724wZGx89uDl57+UXZMtjEb35cK8oa5Zp5Ur+19sO6+HmxqyohJyC0egnXykwZSzk7LnnsdTTf3VZVrwWSppets//63Z79oULRNkNWfde1E5L+vCDr6af+/t5Mt6dfX8//OB+SVufz/3CkRZCEcA+mBBkJ/39+YXxjbHva5H7mfxjOtl1b9/tx8m/iIgde2ckqPXitD1t1N+mCmqyZq+sFS09auLkX0TErlrVnTV906xzW8SgDyFuy+PFgQ64suL2WZ98JPrxF57Nuf7RxXbtJe/Jysm/iIiyY6E5V74r+tEttZEbn33aqj5/G6MFGOYKCbm7JzbEvqLXsTqYBAB8L76h4eJEKvGiaPkjooFp72QWfGTYt2O0wpqFYoUCeUWO076pyqgChXPrxQo5WfFQVCxtM7bNV6+OZ80crGrlkEHFcd2ubU2BDHQodzB8wboHop850B2+4G/eIdGS8xl//r/oqILqi3Ku+tHKyMdf3G7PufIZEdGEBYbIVyL/mqyMbR2/vW4Z4SABAB/StzZFEhti/yLiPiEiLDlDRtg1a6p9PEUosKtW7Q9kf3D0UEy0Numgn4gqaWzNihdv5aohY8tWfnbW7EtWs5aak3ByJg/r1FhJoOJr5wyFL/mX+6Of2pO2z/rEe7P2a//JxitavCJ8+XcvjH78+a3WrPNeICIwZrwgstSy1NbEhrpv643VeUSEBAB8YnJDwzmJnPR2LfJV6h0Zk1/ZLaGor79qWfM/1BfQV7qSyeEjJpXIrlrZkw2PhV15nrmTkMKamVkzACqbX2DM0zjS1hWcmayVDK/6iwcin3p1zF5w3RUiapbg5EXLVud84JdLwtfc/5iKFPcSEJjy6tKivpzQ4ecn1jdwWxgJAJgusbH+s464W0X0EqKBTAotuvGA+PywUWv2hYHdl6sHXx0yat5QuSqRDc+FKm0y90yMULRBrFAyK+oht8yY1Ulu19bJQMS05oJnon+0e7d97i3vFWXN5i14+pMtu3zxZZGP75LQeV94WtgWAHPMV8rdHF9fv46zAUgAwMTB/ffnF8Y3xH6ktb5dRCJEBBkfwTS9z/d3Hqvc8gUqnBfICZHT/qxRL29r5lnZ0U/lFNcaXLqIKpt7JPh1UDAqyq40JgHQ8pivE40qp7A38qGHHo5c+cPzJZS7lLffVAXWmhVa+acXRT785CaVU3iUgMAQIVH6bxIV9c8mN9YvIBwkAGCI5MbZSxKpxHYRuYFowJveJZxWRXVBuNM6R9W9fV8gEwBtT5q1NDevKvjLz/Nm9ouyZphcRLtqdV/Qq8GwGwBct3vbHN/Gcu77n4h84sWkKlvwLsaV05QHKK6/JPKJF45aFcteJBowp2HqFa7Wzyc21H1Ra66WJwEAT8XX13/C1fYWEZlPNOBZ51J78R4RFYjl8/a8a4aDWEd6YG+DiBhz6rsKR2NihVOBfi4qlrYbP6arWjUpAWfUDQBu6oieHC31X2MOj0euuOdX4Uv/7RJRVq1gmhut3Zjz/p/PD51789MEAwbJ1aJuTWysf3h8Y6yKcJAAQKYH8/cuzolviN0hSt8lIpzSCU+FF35kMCh/i121Mphfpt1USFJjJi33DqvS+S2BfulWrRoxvr2XL44Gfi5l0A0AeqSt03fxK6o7EP3EiwfU7Avfz1gyo6KhVX95QfjSf/0doYBhs5B3WFp2xTfUXUYsSAAgQ0a+WzMjMTj2sIh8hmjAiAFi9fnByQSHC+ap3BkjQawn5+iBAaMmn1UrAr38XFWcZ/4yyfzKwH/FMekGALd7q69WvVi1F2+N3PBUkYTzzuVN500V2HOveWfkqh/9TjgcEGapEFGPJDbUf0PfKzbhIAGAaTS5oeGccDi0U0TeRjRgxCQnv6JHwrnzgtRXWo3v3R/EutIdW8xqO5XLA30CvV3caP62GCscU6HcsUD3USbdANDyRKFf4hY67wsP5bz37nNEVAVvOo/bcPX57wxf9ePHSALAtKapRf95YiD20Oj6OVwBSgIA0yGxMXaFI+4m0RIjGjBmkrPgBt9f//emge/cqwM5MdUdm8qMeinNPCvYy88jRX7YK22rGYuaA1sHZt0AoHXXFl8cABi+4G9/F1r5p+8UkcBvEfHNu7Z6zeXhd9z2KJGAeWkAuTyk0i8n7qi7nGCQAMCUjRhExTfUfU1ruU9EiogIjBqUzL06cEu/1MyzA3mntdv9fKOIGLMEWRVUBfeLQX5Vj4jyxWFvVs2agaBWg1E3ALipZjc5UmZ4yHTk3d//rX3Wx9/JuNHA9tx4xeWhFX/yOJGAgWZpVz0Y31j/F9wSQAIAZ/omXiehxMbYRhH1tyI8UDBtpmw7qjiA98JaOTFVVNcbuP7ESeZKOtFsUJzrxM4J5GoLu2p5u28e44qVjgSUqlplzH3qeqStw/R4hd+54WEVu+xKXm7mNunQ0i9eZMUu204oYKCQaP1PyY2xe/XdFfmEgwQATmewcNvMgkRF7DfCYX8wtVOZfeEev3zlPOUJXNPVhwPZr4w0m5TYCFnlC5sDOUqvWDHum7ZePj+wAzU16zzXlLK4XduNTnaFL/mX++yGd7+bN5vxwjnvujOm8qu7CAWMHGeIXJuciD4T39hYRzRIAOAUjK6fMyth5T8uSt5DNGDsxGHRjYOB/dvmXBnIw5aczm1Gfe21Klf1B7L9VCz1zzs3t7wmsAMfg24AcFofM3YLX2jpFx62F1zHl3+/UNasnGvu6xRRLsGAoUmAc0U72ybW111ANEgA4CTE74w1hFT6aVF6BdGA0ZOcmgsCu4dblTbNDeKuG93+pFEn06vKFalAtp/i+hL/FNausSJFgTwHwKAbALTu3Npg5OCw5oLnQiv+9CJhm6HP2vaMZaHz/+ZJIgGDVSilHo+vj/0RoSABgBMYv71umTiyRUTmEQ0YLbe8T8L584M7urLLrfLgnY7udG1rFBFjvhrZMxflBrDxaAnn+2npo5JZ57YGrhpMugFAO816crjcuIovrDmUc+U9TSKSx0vNf0JLPrFalTQ2EwmY3BOLku8nNsa+pe8Vm3CQAMAbTGyIrbEs9ZiIcJcmjGcv/PD+oPcr1txrOgL3R02OFYqbajOmPLmzKgMX48LZXaKUr25ssarXDAWujzLoBgA93NppXqWH4pFrHx4WUTN5o/lWXuSKH3UTBphOa/njxEDsPn3bzAKiQQIA/y2+vv5tSuR3IlJMNOAHoaYPBL5PsRveGQnki3i03ZzJiBWuVeH8iUC1m6oVnb4rc+XywJ15oapWDplSFrd3Z8K0+ETe+4MnJadgKW8znyuoXG3Nu3YrgYD5nbK8J2HnPTF2Z0MFwSABwOR/Y+ztovR9IkJWDD7pxG1HlTbOD/yfWVizQKxQ4A5Zcrt3mnQauaVmLAzU8nOrcuW47wpd3BS45LOatdSYAy9dww4AtGrf/qyqueCdvMyCIefiv58hytJEAj6w3Hbc5xJ3NLLVOUNChMA8iQ11V2ktPxWRCNGAbyY41WteFVGLg/+XqgKratWrbsfmBUH6q5z2TYX2/GvNaU9Vq/vd7h3BeT5mnu2/9220OHDXNRl0A4B2OrYYcwCgCuUN5bz7jkoRn+/H1e6ojg+0u+Pd4zLa4urhNluchKUn+l57/uywqGjZpChbqdzylFVYI1JYlyPR0kKVU1ApygrORxc72mSf9fFdzst3nccIBT7QoF3n6fENtVfk39K2g3CQAMgqE+tj12iRH4tImGjAV2ONxTf2Zc3fOv9DfUFLALgdm2MmlUdVLU/LrgAFuLiuzG9FVsqaqfJmdumJvqqgVIMxNwC4TqskjhrzzOW8966tYoXf5b/5fnpQD+w94hz8RdhtfrxBj7QWiuiFp9k6xCppOmrNXtOqZr89YVevrpRwbszP7T284s9KnJf/Q0RYCABfmGWJ9URiff210c82P0w4SABkhcSGuquY/MO3k+LZF83Knr/14qLA3VMXHygX7XSJso2Y7FllC/IDE1tluSpc4Muv6Vbl0nbn8MPBSAAYdAOAHmtvFxEjJpfWjEUvq6pVb/fPrF8n9MDu3akd3y51W59oFO1OUXJNizt0oNQdOlAqr9wtKRGxSucMWItvOmTPu65C+TEZEM5tsOdevcs58CtWAcAvCrTS98U31H0695bWuwnHNPX7hMCYyf87tKh7mfzDl6IzBiRcsCBr/t7csoUqnJcM3N810WvMTQAqtzwwX52lKNYhIr5MaFjVF4wGpRpMugHA7dphygGAOnzFPeMikuODmf+4c/iB7Ym7l0ny51cuc1seaxQ9vcexuEcPzUg/8zcrk/++KJb63S379Fj7C35r96E1f8Xnf/hNWET9x8TG+i8TChIAgRW/vfYiLepXIhIlGvCj0MLr9mVZf5Kjai99NWh/lNP7vDkn71uhGgkXjAVi4lm1osu3g4RZ5wXmuTbpBgCn9YlCI9rm3Pc9o3LLVps+89fd23ck7l5upR753ApJDHowVtLiHHlofvKHF56bevgz+yQ1dtA37T63/FxVNDt419ci6JTS+tsTG+r+nFCQAAicifUNK8WyfisieUQDvp3gzL0m674w2PM/OBK0v8ltezrXpJe/PWtJSyBetJUr474dgRXXlwZmNGnODQDa7XzWhAMA3fDF3ygyutKcZPvkg588kvz1h5ZLfMCI/slpfmR+4q5zmtJ77tkqImk/dEGhpV8+wEgFvuy3RX0jvqHua0SCBEBgTG5oOMdS7kMiUkQ04N/e2XJVSfCv/3tTAqByZeDOPHDaN9ca1bQqVx0NxIt21tn+3doVLmgQUYG49tKYGwC00yaJwZleFyO04MObJJR3jqn1pcfaX0r+54pyt/WJRvMK50j66b9alfztjc3ipo1f4WM3XTWbwQp8PND82/j62D8QBxIAvhe/M9bgiPuQFiklGvD1RLh61V5RVnnmB2B6XES8+7KaUzBXRcuCtQpgtK1aa3fQmLZVtTwdhLCqgtoZ/i28KlJFta2BqAdDbgDQox3tRjxfa/7S2I8PTtuTO5I/uuRsnRwxemuk7tjclPzxRWFxks1mv6gjTVbl8r2MWODfDlz+MrE+9k2tzTjHhQQATtnIxupyceQhEakkGvB9J7Lwxn5PBoitv9uie3Y87+Wfbs25Yn/gKjQ+YM5AtnR+oe/jqWxHwrl1vv4TKpd3+74eDLoBwO3Z6fmWEKtq9Q6VU7TUyMl/y2M7Ug98YrloxxdNS491lSd/eGGJTsUPGZ0DWPqFXkYs8DOt5E/id8RuJQlAAsB/jXdjdV5Yh+8TkXlEA4HoRGZfUu7F7zr77ytMH/mdp0urQ/Penwhafbp9rxhz6rsxd7afyd9Q2tguIrl+/hvsmvPH/V4PJt0A4LQ87vlWhPAl/2TkAZu649ntqYc+vdx3Y7t4X8nkT99RJNrtM/YZqFzFRyf4ntLyhfjG2HdJApAA8M8L4l6xkzp8j4isJhoIRAcSLT2qIoVeXP+XdlufnO82P+TpQVqqfElt0OpUd242Z7+6sqtUTvGwr5+RyhW+/3puzTzb99fTqipzzpPw/ADASHGvKm5YZVwlJQZfTT5w03IRf54pq0fbZ6buv2lQRCaNLGA4d57klg8wcoHv+3ORzyU31n2LSJAA8IXEQGyDFvkAkUBgOpB51+4VETvjP5wa2yvpsWI93DpT3LR3EywrJ6aK6gK1rNJp22TUV3dr1rm+3n9uVa32/SoRVTC73Pd/w6zzzDjIUDttEh/w9ADR0PKvvCCmrUrRTn/iZ++tFjft6696Tscz850Dv95q6mMQmnt18LatIStpUV+Ob4j9FZEgAWC0+PrY/xElnyYSCBJ7vjfX/zk9z/9+maUebvb0qji76epDQapTPXSwTrQ2Znmwql4x5OuX7MwlOb5vFOG8BlF2ytf1YMgNAHqsq83zfnvB9TWm1U/q6b/qkvHuQNyIlHrqq6u1oYcC2k1XB+JgVeC/fX1iY/2XCQMJACNNbIh9UJR8nUggWJRWpfM8OctCH7r/9ydDO61PenpSlD3nymBVq3YtmRw5bMyAtXK5r6+gUwVVMwPQKnJV6Zwjvq4HQ86TcHu9PQBQlc7dq0LRxUZ1OWOdLzl7f7wkMH2oMxlOPfbHRm5dUmUL6gQI1EhUfyu+McYHVhIAZhm7o/5cJXK3CIdVIGCdR/WKV0VZXkxu3HTz736feHCPPOjpwUaqtGlu0B5vPbjPmP3SUtLk36+CVigldjQQ50TYVav8u9XFpBsAmp/I9/L3Q+fd0mZY7aQnH/h4RdDej+6RB86RydHd5j3IObUqXDDBCAZBygGIlg0TG+pvIBQkAMyY/N9WX2m7+tcikk80EDT2wo94MiHQqcQBSRz9/Z5kt/eFBhE94t2rxy5X5YtbglS3TscztillUdGyGr/GUZXNbxORSCBGWNWrk77tqwy6AcDt2FzvaSzq323UZFsPvPqCPnogcAkAEZHUs38XN7BYlqo4p5kRDII2JFWif5DYGLuCUJAA8Paldld91Lb1L0SE5VYIZm9bd1mZJz88sLvz9Q+bo/R4r6dL1u25H2wPVAKgbdMsYwqjrFlWbvmgL5+RypU9gRkslJ8V9WvZVdXKITMGBk6Hjvd5txIhWtYl4fyzTKqbyaf/z0wJKGffz5aJm2oz7lmuuWBQgOAJay0/Gd9Qu5xQkADwTGJS3yEia4gEAtlxREuGJKdwoSeDqsP3h974n7nd2zw9tM5ueGckSPWr+19pEBFjTq9Xs85u82McVfXyZFDahMqv8u1XWjVrqWPEczXW7emNFvZrJ8Abs7pHEgOv6J6dseC+KbVyWh47bFqp7MoVWoBgyrfEui9+Z6yBUJAAyPw7bUPdF0XLx4gEAttxzP3gXhEJeZMAeKDxTf/ZoftLPJ1gFNYsECvkBKaC3XRYT44Zc+ibqlw97MvnZIZ/v5q/edaQUy92ji/3DptyA4Db+7yn8Qs1fcCoPiq9+0eB34vu7LzVvDNAiucUCRBcleLIA8Pfm11GKEgAZMzE7fWrtahvEgkEmT3vQ94MJN3UET3e/aY94bp901wR8fB6I1VgV686EKhKHj7cb0x7qzzPlyFUBVWzAtQiQtaMRb68CcCUGwCclsc9TUSo8oWzTZobO3t+sFACzh3Y0yhuyqjnRkUKmRgh6BbkpEO/0nfVRwkFCYBpN7p+zixl6Z+JSA7RQHApLTPmzfXil/XggWMuodWpiYhMjh70tDOdd11fkGrZ6dhizjLRUh/eBGDnJMXKCdQZMFb16gHfFdqkGwA6NnvXHsIFA2KF55hSLXqid4+e6C/MhjemHthr1hYmK1whymIbAIL+5F2USMoP9DrmuiQAprOZ3St2SKV/LCI1RAOB7jQqztuvlO3JfmCn+aHjP4N9L3r6xdqefVFxkOrZbXtyhjmTuGLfTaRV2cJW8WibzLT9TVWrUn4rsyk3AGjtdMlEb5V3/dMFB8Wg/f9u21MjkiWcQ7+1DStSjsqfNSBA8Gdn1yUrY98gDiQApk1ioO7vReRSIoGgsxff2OXZQOrgb457YFT6yMPeLvXKLVugwnmJoNSz7t3VIJ5uq/iDiaeyylTuTF+tsLCqVvQH7dm3yhb67kpbY24AGO/x9KpQq+7SUZPqxW1+tDRrEgDNj8w27lkubuoTIBtSACJfja+v/wSRIAEw9ZP/DXVXiVJ/TiSQFZ2GV9f/aadLDzfXH39A+fBcj0OTY8Uu2xeYl2Y6nidOstmcCfUyX121aFWtSgbt2Vd5M6p9V2ZDbgBwe3eNe9oeZ55t0moUx+14Zo5kCT3cXCsiY0YVqnD2uADZQun1ExvrVxEIEgBTZvz/1lZrUf8uBiwxBKZ/ilswoiIlnhzcpIeaD53w/z7eW6ydSU8niaG51wRqWasebjbmHntVuXLUT7GzZizMC96IIVyrcgqHfFVkQ24A0K1PeNoeVFGtMV/cdSreolPjEcka2tKTY60mlUjllqcEyB5R5epfjG+MVREKEgBn3qWvE8sKW3eLSDnRQDYIzbtmj4iEvfhtp+XRt1yO7g7u9zQBoCqXB+nUd3G7t6VNKYuqOM9XSVaVX1ERwC5AqfIlLb4qcG6ZEQO+dPsmL++71xLKN+ccjUT/YNa9PMc7zfqb82Y6AmQTJdWWlp/rW5siBIMEwBmJV9Z9VUQuIxLIFvb86zz7auAe+vVbDuR12xPeBiinYK6KzhgOSn27bZuMOdjQLm70zyGLdiQhVnh2EPsAq3rNUd8U9rUbALxPAGi3S8Z7vds+ESnuE6WMWQHgjrQkJcu4o11GfXFXuTO4BQDZaE0iJ30HYSABcNrGN9QuV6L+jkggi2g1Y4FH+zZ1v9u/9y33+DuHH/R60mVZje/dH5QKdzq2NIiIGQPFSFHML3GzZi5pEYNOXJ/SiUPVctcvZTXmBoDxXm8PACyMGXUgpT56MPu2TI6ZdYSJlVsqQJYOZW9KrI99gQQATr3p3DazwBL1IxHJIRrIms5i1jkHRNnefMUa7dgvot+yv9IDe2eLdj39Qhma//7gfN1KjRaLmzLkDmtVLPlV3f6YJK8M7BVbduk839zdbsoNAG7vrglP41DaaNSqJD10KOvGTnq41agrQV07yvgf2TuPU/Kt+O21F5EAwClJ2Hn/JqLmEglkE3vRR727/q/tyZO8Xk+LHu047Olgu3xJXZDqXY92dBrTBquWd/jixVq1IrgHbEVLa32TADDkBgDd9kSup3EomWPU9aQ6ORyWLKOT/Ub9zZaVw8HVyGZhsawfj/5700wSADi5yf+GuneIyB8RCWRdAqD+cs/2YDsHfnXSB6o5nc96O9i1cupUcaw7KPXu9u4yZvJgVa0c80PMrJIFeYHtCJRVKbllvb6oB0NuAHC8PQBQVH6lWds2JkezLwGQipu1JciySQAg29WEkqkf6HXZORcmAXAqHfjGxmIt8n3hyj9km3DBmERKF3nz4OlRt2fXvJP+rx9+YIbX4bKb3n8kMAmA1qcKTCmLNWupL95ZqmBmoK8asmYtbfNFPZhwA4B2e/VYd7WnZcg166IinRrPvu2T6YmQWQ9xmHEsoOQ98Yq6PyUBgBNKaPdWEVVLJJBt7Lnv2y0enXmh4717RTsn/cXI6dzSJCKefrVWjVcEZnDldmw25vA9VRQz/+SqUMGEqFBNoAcO1WtGjC+kKTcAxPs8TwZauaVGjfVUeiLrVgBIyrQEQIgEACAiSql/mLgjdj4JABx78r+h7ioRfRORQDYKLfjwpGcT0PbNp7bs20mGJDl00Mt42aVzmoKyUEjH+2aKdnqMKEw4v15EGX19lTXzrGbJVOWnxl9x9v7oqYy374plxjduU24AcHp3jXsfjDyjlp9rZWffHfSuw4QbMHSIq1z9XyPfrZmRTX80CYCTcPSu+hItaj2RQNaasWiOVz/tHvz1KX/1dbp3DHkaL2WXq/LFLUGpfj3W22pEQZQqkMLZXSbHyqpePZixehlpGXBaHivJ+B9Z0lBieptVVauOmlAOt8XbAwBfa5Qhs1YAhPKDe0gmAB9SteFQ6G6ts2eLNwmAkxCd1LeKSA2RQFZ2i+VLDior5NUe1rjT+ezCUx50H37I833r9vxr2oLSBtyBF8dNKYtdvdLomwDsymUZ+7rp9rzgSO+LGd+WpnKK6kXE6JUYatZ5Rhx857Zvmk0C4I0JgFwSAABM897kxrovkADAa7OPDXWXiZaPEQlkq9Cij3g24dLxo6+Kk4qe6v/OaX1sroh4OgGwY++IBqUNuG2bck0pi1WxYsLoYJVm7uR5p/O5fDfeXybazeyp/EqVqIJqoxNcRtwAoN0+Pdbl/blBhiUAJLcsyZsVgGm0qG8kbm+YnxVje6r7BA3hrvpoIumy9B9Zza5/Z5FnE8+uLae3jDdxNF+cxGGxo41elV0V1iwQK+SIm7b93gbc9s3GrICyKs4xOp4qb0bGVsvonh2v/VZisF1yy2dltB6qVnQ5B35dZ2w9GHADgH7tAEDv75nWrlGrNVRJYzzrxpOjrZXpPT/cZkx5+l7IFQBvlKct9wd6nVyo1kmaBECWSiT0X4pSc4kEspUK549L7oxFXv2+c+g3p518cPr39NgVSxs9jF6BVbX6VbfjmQW+H7yOtMzW2h1UyirzvDAFteYe1PPayfOVmakUPaTHumaLiDiDB0btmsxe9aYqV4/LgV+bXA+eJwDc3hfHjIiHM2nUoXuqpNGVLKMn+srTT/+fcgFgulWJqtj/Fmn5epD/SLYAHEdyY/0CUfJnRALZzGq6creIRDz6+ZTb9tRpL8XSzY96/qXYnv+hvsA0hsSgEYcaqpyCmCjLyAmENWtpxk6e16mx3/+W7tmZ8Xe5XXGusSsxTLkBQLc+YcQ2INdNGvW8WEUxPj4BMJeWvx7fGFtKAiDb6l2LcrW+zcOJD2CE0IIPJzz78dTYq5KaKDzd/7lz+KF6zycisy8qDkpbcPtfMeXu9zwpihl5EKBVvTJzJ88PN//+t9yuraWZ/ltVUZ2xKzFMuQEg3bbJjC0SqZRZWwCKYnwJB2CysCVyj/7W7MBulSEBcAyJO+pvEpFLiQSynZp5tmeTaKdrZ/+Z/O/1yOFZop1eTwOYW7ZAhfMSQWgLun1z2JSy2NUrjbwKUFUsy9hEy+3d9fuvum7PrnrJ9Kn84fwGUbaReyTNuAFA98tYhxFnZ1h60qwVM6HcBrEj3AQAwOBBjyxM5tl/RwIgW+r7+/MLRet/IhLIdtaMRYdF2Z59wXIP33/GmVc90trscRhzrNhlrwahPTgdz1Qa0zarVhp5E4BdOjeTNwD8v9UxqbECcdOdGf5z81VJfbOJ9WDEDQDxvsMiZtwp7aYnTLuyMWzNOucQb1kAZucA5CsTG+tXkQDIAsl08q9EpIpIINvZi27w8pov1215pOmMJ0mtT3r+hTI095rRQLwIB/fVi9bjRry4ys8JGxmkaFnG7nzXXTtf/3U5MdCZ8XqoXNlrYjWYcAOAY8oBgCKix7qVaXVkL/xwD29ZAKbPk5WWO/XGZeHA/WHU7R+MnzbWztFa/y8iAYhY9e8u9OzH04n9OnH0jPeJukceqvA8kJXLKwLRILRrSWrssBETvIIa4/YQW9GSIVFWhq7i0wM63vu6Sa7TtyfjqyKsmtXmXedmyA0AuvWpqDExGW017sBGu+6yMgEA8wc/S+Ju3x+TAAgwV+xvCQf/AaLC+eMqb6Z31//1vdw9Jc90z85GEW+/WqucgiYVnTEchHbhDLxqxOFqEs6tFytk1NVmMuu81oz9VnKkVd6wvFz37sz4yerWjCXGvS9NuQHAad9UY0pM9Ehr1LR6kkjxIsmb2S8AYPqYWKm/Sdxe1xikv4kEwH+Lb6i7TGn9PiIBiKjG9+wREc8Gjfrwb6dmuZWbVhLvP+h1P2s1XbE/CO1Cdz5ryjsjooob20yKjVW9OmNJHj10aOhNTb1zS8ZP5VcFNbNMa6Nm3ACgB/RIa50xQRlrKxDz2OHlf7Kbty0AH8jTltxOAiBg9L1ii6hbiQTwmvCC6z1d2us0P9wwZf9W11bP9+CHmq6eDERf2b7JmKX3dvXKbpNiY1cszdhBa07PrjfXTd/LMRHJ7KqIUKRB7LBRt1wYcQNAfMCYAwBFRJyRjlIxkD3/mgYRpQUAjKfeNbGh/gYSAAGSGIx9QkQWEQngfwbR59Z79uNu6rAe666essHvoQdKPI/nzCW1QWgXTt9LjSKSNKKNVq4ya+JZ2lSUsUek87k3/ZZ2krnamWzP8J8dtsoWHDFqUGPADQBO70tmHfwZH5gpIuZdR2qF6+z5127jjQvAF2Nj0d8eur2uNAh/S9YnAPS3ZueKyDqaNfA/E5l5zWKFPVu+qgf3TenSbt321FzJ9JfRN/W0OXWqKOb/U6+dVI5OjRsx4bNmnmXW/vOc4owleXTPC8e+bWC8J+OrIlTVKqP2cZtwA4Bue9KstqmdkKQTLSZ2KeELv14mynIFAMxXkWOpr5MACIB4nv15EZlNmwZeYy+6sdXL33eOPDSlS2d1ajwiqTHP75y2577/cCAayHBznxHlyKuaaUxMcmcOiLIyswdfu7060X/MmyXcwd0Z37pjVa4yZ3uLITcAOO1PVZv22OqxDjMP3AtF54bO/vSzvHkB+IESWZtcX3sWCQAfO3pXfYkS+QuaM/AH47HG9+Z5Ong++NvYlP+bfS97Pvi1G69QQWgfTudzRuzZVeFoTKxwyogXacV5mTuQcHL4uL/ldm7L+Jdnq3xRnilt04wbAPRRPdxab9pz6w68auw5JKFVfzFPoqXcCADAF8NkV1nfIQHgY9Gk+2ciMoO2DPx+UhUXD6//E+106ZHmKU8AuM2/y/E8tqVNTQadC3b6sWx7ypT7u8OqbF6rCQWxqlePZG56eei4v+V2bc/4qghVUFlpTP9lwA0AOj5wSEQb96C7XdvMveJYWbMiV//sVd7AAHzi0sSGuqtIAPjQ+MZYlYj6X7Rh4A86hNh7douIZ1/09NDhaVmqr4887P39rcoqVzMXN/u9jejunQ3i9ZkK/9NeK1f2mlAOu+K8jE34nO4dx/0tPbg3JiKZ/dKr7JiEco049M6EGwDcvt0jJj63buezVWIwVTLnQvvcz27iLQzAF2MhkX/V9y7O8Wv5szYBoLT6cy8nOoCRHcKiGya8/H2n+dFpmVi6Y51l4qY7PZ8ozru2w/cvvfREvnaSRhwoZlUvN+NGguLG4oxN5Lq2HP+33HRYpxKZXhVh2TOXmHEwpAE3AOi2x4380q6PHqgX7XaLwcKr/nylVX3BLt7EAHwwk5wbPzr2RRIAPjJ2W32lEn0zjRd4wwS14rw6L3/fOXTftB2epY8eaPM6vqGGd0YC0VBG2rqMeIHNOCtqRDwiRZm7AaD3hRP/1nhn5ldFVK85akI1mHADgNO2qdrQp1bp4WbTDyKN5lz5n1WquL6ZtzEA41MAWv56dP2cWSQAfCJk66+KSC5NF/gDxY2tYoXrvSuA7tcDe+dM28C89QnvD6/Lr1ogVsjxe1Nxu7eljXj5FlTNMqBOe0VUZu4F1m6XTgyVn7Bu+l/K+MGIoaoV3rcHI24A0EN6eOrPMJm6PvDxtJhOWZWR6x8Lq+LGFgEAw0fOtkp/jQSAD4yunzNLi9xCmwXeMIhffGOzp0Pn0bYDInra+iT3yIMGfJlTBVb1mv2+TwC0byoy4w2WUyd2jqfbAOzKZe0Z+7HE4Fv+lu7alvlVEaXzCr1uCibcAKDjg4emsw874wTA/l+ZujrhDd2kXZNz3cOWKq4/IgBgcncl8pn4dxtifit31iUAwpbzJ8Lef+DNA+jGK7y9/q/lqWmdyLn9u+tEu0Oex3neNb6/7kp3PNcgIiZcBxiyZiz09Euhqlw5lrG4Hz3wloftOd3bM34qv8otr/F8EFa10vNn2x3YPWz0czuwe45op0t8QFnh2sj1jxdYsy9+nrczAIPlSNj13SqArEoAjGysLtdaf462CrxxVhpJqPzKRV4WwT306+ldzq1d0ePdnu+BtWZfXOz35uImh0tEO+0mlMWqXOlpQsWuWJqx96jTteMtf0sfPVQrIuMZnq3VqJxiT+tBzVrq+dYa3fqk4SdCa+V0bDngm45GWTNzrrh7UWjpFx7nJQ3A3K5Vbkrc0TiPBIChwm74SyJSQEsF3jCJaXiXp9f/idYjbs8L0955uh2b456PaXPLFqhwXsL377uxTiNuNFBVKyc9LUBRrDRTP+V2by1564pxLUmNt2a8HiqXtnpZDSbcAOC0PVVl+nPr7Lpths+6mmhoxZ9eGrnukaclVDAsAGCekNbO35IAMHGwurE6T5R8ljYKHKMjWHDDmKcFiPe+KjodmvYJ1KEHTRj85qjY5fv83mbcnp1GXMFnz1zk4YGuSqtIQaZuANC698WT2meoR9sGM96HVK/xdHLm+Q0AWg/rocMNxj+3nc8tEp1uF59RpXMvin5y14BdvYotAQAMnGjKdcnbG84mAWCYpOR8XETKaaHAMSZRVcu8vf6v7ZmMLFl2up5rEpFJr+MdnnfNiO8TAO1Pm3GWSu6sSq9+WhXN7hJRmTkQUTsdenL0pFYbuL0vZfy0d1Wx1Ls2YMINAJNDRh8A+AcNSTntTx/yZadjhRvDV/3k7PD7fvKIChUcFQAwqIdybP11EgAmve7WiaW1+8e0TeAYA/fihjaxcjz9cuUc+k1ZRn4oHQ/J5MhBz4NesawiAAmAOiMKYoVrVU6eJ1s7VMWyjB2opuP9nSddN11b8jNeDaVNnp1tYcQNAP2vDPnl2U1t/vocEfHrdaQhu2rVO3L+6MUJ+6xPPCkiLm9xAEaMp7W+anxD7XISAIaIV8beL6Lm0jSBYwyeF93o9VVLcbfz2fkZSzZ07/T8y5HKKWiycsuH/Nxu9HhvhWi314T3mCpb5MlNAHb16sxtnTm6/6R/y+nanvHr3lSkOCYe3QyhqlZ5/kw7bU/l+ObhHT48W4+07PD1QFvZNeEL1r0t+qk9L9v173yWNzkAE7omW6w/JwFgSm2IfIU2CRxbaM4VUU8LkDy6V5xUxsrgHnnIhKXrlprz3gO+bzzxvhYTimFVrxrw5HfLzw5l6recrh32Sf+XR9urRHSGt5moGZJX0elFPahZ53n+FdhpfbLKT49u+pmv5UsQhPLOCb/rjjWRG5992pp19ou80QF4SYt8ILFhtvEfnQOfAJjYWL9KRC6gSQLHYIeTkle52NOBc8dzGT08zG15tEkMuMPearp60u/Nx+l9adyEcqhZy9Oe/HBxXVmmfkp3PncKtw1oJZNjGT+V365a7snhcp7fAKD1iD56qMFXz27bU2fJ5NjugLzJlCqovijnA785O/LRLVut6jW7eLkD8GpkrcX+KgkAr98KWj5HWwSO0wHE3rFHlPL0S5Bz8L6iTP6ejg8UipP0/Mu1Xb6k1u/tR7dvihrRjssXZn5Vh7K0CuXHMvRrrtP/yilNMPXwkYwvi7eq1niSEPL8BoDJ4YP+OADw9VKbv5aUYFEqv3JVzlU/Pjdy0/bn7DlXPiP+PesAgH/dNL4xZvSqsEAnAEa+WzNDRF9HOwSOMwldeIPXp9Gn3Lan5mf6R52BV7u9D35OnSqOdfu5/Tjtz9QYMerPK8/4i1YVxdpFqcwkHlynXVIThadUN30vZH5ZfMW5dsZ/04AbAJy+V3x5q4ez/xdL9URvEK/VUyp35prw5d+9MPqZAy3hi/7hMRWKDvHGB5AhEVvUl0kAeCQUDv2RiERph8Bx5qBVK2d7WoDJsVclPZHx5bu69VEj+j676QNH/Nx+9HDzbBHt/XVcKlQj4YKxTP6kVbUiYzcAyETfKe+tdzueK8p4ey6uL834b5pwA0D7ppBfn+HJhz5dKkH+Sm6FG+1FN14W+aO96fD7f3mfNeMsDgwEMP3vBa1vOXpXfQkJgEwHfp1YSstamiBwnDlT0ewOsSNzvCyD072z35PfPfxQzIQ6sOdcofzdirTS8aMmHASo7FlLMloOq3Jlxq4edAb3TpxyzXTvzHxyL1zQIKIyOplUVSuHvG58TttTvr3WU/e91KB7X3gu+C88VW5XnHdVzrW/XRP95Ms7Qsu++IgKRYYEAKZHUSTpGjsPDWwCIFlR/w4RmUP7A44z+Vxw42Gvy+Ae/q0nJ/LrowcrRDsDXv/9qmROk8cfL8+8Dgd2D5tQDlWZ4avgZi4JZ6y9dm875S/MeqJ3pmg30228UArrMnr4oJq11Nuv11qP6qMHGv38DKce+vRi0W5flrz6lOQULg8t/5N3RD61T4Wvffgxu/5dz4ioSQGAqexslPqsvldsE8sW2ASAq9zP0vSAEyQAmq7y+t5qVzf/zqOrUrTokVbvl98rq1yVn+XvbQAdm41Y/qwql2V0ImgX1s3I2IPSse30fmtyuC3T9RCqWdmVyd/z+gYAPTl8SLRr+/kZduP9panHvtwuBtyOkmHF9oz5l4XftfHC6M2H+iNX3vOIVb6QqwQBTNVQM5YcrHsvCYAMGV0/Z5YS9V5aHnC8Jz+UUoU1Cz3tF1PxA25yuMyr33fbnzHii489/5pOPzclp/3pSiOadNmCzE0Ele1IOLcuUyHWg3vqT+t/OHgw44fTqerz4xn9Pa9vABjcc1QCwDn0m/Ocru3B3wpw3IZkVauaC9+Rc82D50Q/s/9g+NJ/e1TlVTQzWABwRmNdrYz8IB3IBIAtzo0iEqbZAcd58Osu3S2iirwsg9v/sqcn4DtHHphlRH8Ve2fE1y+3gVfrRWTc63Ko3LLqjP1WaWO7iORm5kFJtep0/LSu6tQ9mT/g3So/O3Mriwy4ASDd/FRIAiL9wE1LxUkekWxn5TTZc99/eeRjW2sjN+3cGVr6xU0Syh0RADjlAYO8K7Gx1rgt6cHcAqD0x2lxwAkmnYs+4vm+bX3kAU+TdG7X9kbROu51HFRh1QKxQv49hVs7tp4cNWA7hV2lcooz0q7tyhWZS15N9HaffhvfUpL59lwzM2P9mAE3ALjtm6okIHQ6Hp381ftDInpYICJiq9wZy0Ir/uTi6Kf2upEPP/6E3XT1JhGVIjQATnqura215hUqYJLra89SIufQ3oATPPiVq72+v107hx7w9uAsN21JcvCg97WhCqyq1Qd83aAG9w2aUAw165yM7HlXVasydwNA/+7T/63eXXUZr4RQtEGsUDJD9eD18vsxfXR/fZDeDW7/3trUQze3igiH4r1eiSpufHv4su9cHL35UE/4ih89rMoWPk9YAJyET+uN1XkmFShwCQCtrE/SzoATTTdnd6lw1NvlSM7kET3R6/necadzmxHLOu35H/L1CdxO5xYjrjKwqldmZEJozTgrY9s2dNe2014p4yaGSkQ7md5qE1Glc5sz0pfNOs/1dLyRHD4k2gnMFoDfP88tjyxJb/82k9vjNjxrtj37/HdFPvTg0sgf7dkTvugfHlPR8k4CA+CY7wqR0oTkfIgEwHQFeJ2EtMiNNDXgBJPNhR8+KB4vm9WD+9pNiIV7+IEiE8ph1V5U4uc25bY9OdOItl25PCMTQlWUuWXubve28jP6BxKDHRlvz1WrMpLQ8voGABl8dVACKv38d1Y7hx9+ljfmW/QF4bxF9qIbL4t8fMeMyI3PPW0v/ugTYueMERkAr3+Za6M+UAcqAZCsrL9cRCpoZcAJJkneX/8n6cMPGtH3uO1PNomI5/vvVbRsvgrnJ3z7Xut7sUFMWDJc0jT9CR0rnBY7WpupR8V97ZDF0+YM7Mv4ZMSqXp2ZLQAe3wCQbnsqcF///1DqkbXnO0ceyt6bAU5NRBVUXRS+8O/fHv30vmTkA79+xKq5YJuIuIQGgCi5KP7dhhgJgGmglf4QLQw48eRFFdUt9LoY7uH7jegEdXI0V1ITJpx6naNil+3zbbtyUhFJxT2Po4qWTfvZFqpsXquIZGYLgDvZLM7kGd02oHt2ZvyOemvGoum/IcGAGwDctqcqJeBSv7tljbP3J0/z8jylXmKGmnXOO3Ku/OHK6M0HDoUvv/VBlVfZTFyA7B6BS0h/hATAVA/kNy4Li5araV/A8dl1F3t+/Z9op1OPtNSaEhOn7xUj9t/b867x9TVTeuiw93FU1iwrt3xal2XblSt6MxbTsa4z/i23c2tZxquhoGraV+IZcAPAmB7Y15AN743Upj+/yHn1J2wHOK2HITzXnvO+90Q+tqUm+rGtm0OLP/qEKDtJYIBs7A/0x0gATLGkHrhMRGbQuoDjCy36qNenZoseOnTYpJi4Lb/LMaEcVsUyX29fcrq3mLHUddY503q+hKpcmbHBu9u/54y3hei+F2OS6WXIVjim7MjotNaD1zcATI4eEp0O9BaA1yUBnvrz81PP/u0uEYkLTkdY8iouCF3492+PfmZ/b/jyWx+UaFkXYQGyiJaF47fXLSMBMJUxZfk/8NYqV1d7PlFsfsSoPZG6+WEjvuKpnIK5Vm75kF+bltu2qdSIl1rlqmmNoVW+KIM3AGw549/SqfF80U6mDwIMqfLFLdP6vHh8A4AzsOeoZBnn5bvOm/ztDR2inV7BGTReu9ae8773RD/+fGHk2gcftWYseomgANnBtuSjJACmapDE8n/greVX9qhw7lzPB5EH76sxKSzuSFuZaMeELzFKNbz3gG8TAN07GsWAA6/syvOm9wcysLz9989K946puW1gojfj7duqWTMwrf++xzcA6PZnAneN8kk95x3PNSV/fLElk6P7BGfcm6gZCy/PufaBsyIfefppq3zJK4QECDYt6ga9TjxfPRaIF1hS971NWP4PnFBo4Q0HxOPr/0S7A3pwX6NxHfLRQ20mlMOad/WkbxtYajxf3Mlmz8tR3FQ8fdmF8KSyI5k6v2JSD+6bksMydf+eiUxXg6palZ7Wf9/jGwCc1iez9sYhPdpRnvjPFY1Ox+YtIqJ5u555168Kay/Kuea+RZEPP/mUNWPhHkICBFZFsrLu7SQApoAr1hW0J+At5i5zr7a9LoMebdsvopVpsXHanjBiW4JVvqTO1xOD4bZur8ugosXTNkFXZYtaRDKUuU8nm8VNT8l2A6dre8bPubBK503fF3rvbwCY0IN7GyWbpRPh1G9vXJ165At72BIwhYmA4vpLcq59cH7k+seeVEWxw4QECB5XlOer1gORAFBKkwAATviQ2I4qii3wvNNrfdLI04+dww9WmVFNObWquL7br83M7d6e8j6IVpnkzeyflhdm1Yr+TP0Zeqxjym5VcLq2lGe8GvJmTtt5I17fAKAnRw+Jmw7zYhFxDv92cfI/V+bqocMvEI2pa+KqZM7bIjc8VRV59/ceUqHICCEBAjQkF3m/1t6uyPV9AiBxR+M80dJEcwJOMJqovWi3iPL8kDb34K+NXDar+16OiWgjBll20/uP+HYy0P5UkQnlsCqWTstNAFbVyoxt0XD7X5my39IDe2Iiks5oJSh7tuQUTsuVjJ7fADC4b0Dw/9pXfKAw+ZNLz009/Ve7xWU1wBTKVbHL3x35oz1HQ4s/+oSw3QIIipqJ9XVLSQCcySDJcfn6D7zVg77wxkHPC6H1iNP74jwzR7CO6PFeI5Zb2nOuUL5taJ3P1ZswSLWqVk1LMseasSiasXdb59apu23AmYyIO9ma4WpQ1qxzpuU3Pb8BoG1TVh4A+JZx2XPP4uQPzi5yWp98TjKdcAoyZcdCF/7926M3bduiCirbCAgQgHG58nYbgO9fYkrJe2hGwFs86DXnV3o+x57o2SfasU2Nkdvx3IQJ5VAlc5q8PqvxtGOYGCoVN93peQwrzpueAObNythz5PZsnzWlz99oZ8a/zFrVa4am5d/1+AYAt/3JmYJjt7PJ8WjqwU+sSf78im5JDHCq/VTKnbUmcuNz+aGzP/UkwQB83ldaQgLgtIN328wCEX0xzQg4wWQob1afCufP93xy2P7MuNGT1yP3l5pRYVa5Kj/Lt9sA9FhXu9dlsIsbp/4mADuSUHbO7Az9CQl99FBsStt3/56Mn79hV62Yli/1Ht8AEHf797Dt8K36gf7dsxM/WHbW5O9ueVlSY/uJyJS1/rLQmr9+W+SGp561omVsRQH8+iRrOTtxe51nh8n6OgGQDOddJCIRmhFwgkH4wuv3iQGflJ2Dvzb6qk63Y3OTiKRMKEtowYc6/Nre3N4X4p4XIlIUm+p/0ipf3CIimVnBkk4cEe1M6SFzuntbxt+VqqRp6s+E8PgGAA4APMX+4MhDSxJ3nT0v9ezf7RJ3kuXrU/VsFcXOz7lp+4RVufRlogH4lCVXkQA4rTexehutB3iLBMDcD5qw7H7C7doy3+Q46dREWCZHDxnxTohdnuvX9ua0P5VvwPC4WPKreqb0X6xenbGvbXq0bcp/y+3aNivj1RApmfJrLb2+AUCO7u8XnGKDdsV5+d/PS3x/UU36+e/sEGeyg6BMRadk1+Zc/YvG0NmfeopgAP7jinUZCYDTeadolwQAcOIBgqOK672feMcHXhUnlWN6uJzeXYNGVFtB1XyxQo4vX2jtm+tMKIddtXxKJxlW1YqMrQ5x+16e8tsG3KMH6kQks9sAlDVL5c6c0mstvb4BwGl7hgMAT7sRpq309m8vT3x/QU3q8T/eqxODbA04c/mhNX99cfiKHz0syubgRcBPQ3TRF+t7xZOPdL59kelbm4pE1FKaD3CCB7zm/L0iqszziXXnFl/cY+weeciQL++qwK5Zs8+XjW68q0K06/lVYFbVytEp/ffKFuRl7P3WvXXq26GbCkk60ZLxllxx3pQu+/b6BgC37QkOADzjBu6Kc+CXC5M/WDov9fDafXq8+yWCcmaPhT37/HdFPvz4VrFCScIB+EZx/Gj9chIApyCZk7pQREK0HeD47MU3GrFc1T10X5Ef4uU2P2LM4V7W3Gv9e8BTfKDV8/jNPG9Ks+oqgzcAOF3bp2WPux5tz3h/YFefP8WJGE9vAEi4/a/M4c0yhW29+eH5yXtWn538+RW9bvumXVq7Y0TlNPuootgFkQ9vel7scJxoAD55bkXeTgLglCKmLqHZAG/xgFdfWGFAMVJu26b5foiXnugr1E7SiIOqrNqLSnw7qO970fNBvCqun7L4qXD+hCi7JkNFn9DDzbXT8Q+7/VO/teAt23HleVM6zvD0BoDU2EFx0zmCqe97+3fPmrz/pvOS31+Yk976z9tkcvQgUTmN56Owek3kxudeUqFcEimALzo/uZQEwKnEy9UX0mqAE4jOGFA5Bd5PvCdHX9XpiXzfxG3wgBEHVKlo2XwVzk/4sem5bU9HPS9EOL9BROkpqYuZS1oy9b7UqfFm0e607Al0Op/L+HOoShpKpuwf8/oGgMEDHAA43ZxkTvqF9SsTdy1pmrzvw81O986tot0hAnMKz1xu+arIR57ey3YAwBcz2gv0rU0Zv6XHlwkAvU5CouQ8Gg1wfKEF179qwjPudO3w1VJ2p+VRU/rFHKvu8ld9mQDoeKba+1GwypfC2V1T8qKsWpW5wyFH26Ztkul2ba/MeD2EChtF1JTs2/f6BgCnYzMHAGayH+ncUp/69TWrEnfOLUo98tmXdf/ubSKaL9snI7d8ReSa+7aKiCYYgNHyEtH0ahIAJ2GiIrZERHJpM8AJBsvzPqhMKId76Lf5foqbe+ShOlPKEpr/wVE/tj09dLhWRA95/gxUreickn+ncnnGTtd2el+cvtsfRlpqRGQ8o5WgVJEU1rRPyT/l8Q0AuvVxDgD0JPCO5Rx+cEny51esTHxvQW7q8T/eq/tf2S5as9f9RM9L2cKLw5d++3EiARjexbkuCYCTK7ReTnMBTvTmt1xV0jjPhPm02/LoPD+Fzh3cVynaNWLVgqpcXuHPBqiVJIeaPX9XVK6cmsluaeYOntNdW6fvtgHtWpIay/hNAFbVyqlJxFR4egNA0ul7qZGXi8ecpO0c+OXC5M+vXJH8j7NVeus/7dRjHTtFJEVwjvHMzP3ApaFzbt5MJACT57XWMhIAJzcsXklzAU404F69V5RV7nlB0vH9enK42GeTV9Gj7c1GFCWcP9fKLR/y5Ti9f++w58/BzLOn5KYYlTcjY/vO3a4d07p9Qg+3Dma6Huya832XiHmT1PhBcdMRgTk99eRoNP3CxmXJH16wLPGDc53U1n98QY93vywse39d9xVa/ZfnqrL5BwgFYOyoM+Mftv15BoCSFTQX4AQD7kU39hnxrPa92OPLyWv7M5OGFEVZc67w5cBNd272/prWorqyM/43MnnwnNZjerRtWm8bcPtecDJdDdbMs8NT8jB4eAMABwAaLjEUdV6449zkPauXTP7w/BHn5Tu368TAXgIjIiL5kff/Ii1WaJJQAEZqGP33poxuMfNdAkDf2hRRIotpK8AJEgC1lxixV9U5/IAvr8xyDj9gzF5fe+77fTloc1o3eb59QeUUxERZZ7Rs3Jp5bqtk6uC59PgRET2t72Wnc0vGv6KrgtlnvhrJ4xsAnM5neLH4hDvWWZx69h9WJH+wbGHyx5f0OHv/6xmdirdkdVDC+QvDl/1fGjFg6iOaTC8lAXACkyFnvoiEaCrAcR7qaOmg5BQsMKAo2jn0YJMfY6i7tzWKiBlX8M1YXOfLGA7srReRCY+LkSdFsTO61tGqztzBc3q49ej0t+3nazJeC+G8BlH2Ge3R9voGALf1yXKB//qhkZaK1Ka/uDD57wtjyV9f0+G0PLpF3HR3NsbCbnzPxXb1+S/RKgAD+6oMbwPwXQLAUXoRzQQ4wUM9/0OviojteUHcySM63ufPU7OdSUsnBg+ZUBRl59Sq4nr/DVh1OqQnx454/jxUrTij2KnK5Rk7eM7t3TXty/P1WHuliM70afq5qnRO8xnVQ9XKIQ+b0aTb9+Ic3i4+H2B376xJPfTp1Yk7myqTv772kNP+9HOinb4sCkEo9O47I2e6KgrANIz1lJAAOHGANMv/gROw511jxAFIun9vh5/j6HbvGDamTpvef8SXQRza7/ltCnblyjNahWCXzs3Yknm3c2tmfis50pbperAqV/We0bt/1lLHs0aUGj8oTirK2yVIyYAdc1L3f2xN4s55Myfv/2izbv7dFnES7UH/u1U4f37o3M9yKwBgWp+k5CwSACfqvERYAQAc9wGxXFU614hr95wjD1t+DqV7+MECU8piz7lC+TGGTseznpfbmnXuGW0Z05HS2Rlrc93bqzPxO3r4cMaTW1bN6jPaUmOVeXcDgDN0iAMAAzvqdsRtf6Y++fDNqxPfWzg7ed/1rU7Hc1tFu0NB/ZNDK77SpEJ541Q+YFJfJA363sUZOzfLf4cAkgAAjv9AV6zYJ8oyYtl9+vB99X6OpdP6+DwRMWKppCqZ0+Th9ufTn9C2Pu35vmlVUHPaZbCiJUPKsmdl5uWmh/V4V0YSAE7ProyvErLKzzqjK/Q8vQGgfTPXymXJCFx3bq1L/faGVYnvLyhKbfrfL8t4z0sStGsFlV0VuuQb26hvwCj2ZN9Yxraa+SoBoDcuC4tIE20EOE7vsfjGXiMK4qbbZaStxtfBTA5HJRVvNmPAZpWrmUt8tw3A7dvVICIpTwsRzq0XK3Ray8fVrPNaM/Z+S41l7JA73bWlKONNuKDq9G+F8PgGALf1iRm8XbKMM2k5e3+8JHHPqrOTP3tPt9O1fZtonQjKn2c3XXWOCuVNUNGASQ+mytgKXl8lABJW/2zhBgDg+H1H3dvLTCiHHjoUiCuXnIE9vaaUJTT/Wv+dqeBMRnUq7nXiIqJKGk5rb6+qWj2UsVIOH8nYwXxO1/OZv1nCyqkXO+e0lh17fAPApNv3Ah8espge2FuV+s2HVib/c4Wjm3+3JRiJAFVmr/jydmoXMGjIJHouCYBjSasYzQM4zsMcLRmSnMKFRnRiLY8E4pRh3fI7YxKOVuzyXF8GcbjZ8ySKXbXytG4CsCszdy2v27src89Mor9MtJvp08/D1oxFp5UYVJUrhjxrPKmJQ+JMcgAgRMf785MP37x68kcXJnTvrm1iyBax0xU66xN13AgAmEOJsALgOKUlAQAcr+OY+8G9YsgKGefgfbODEFP38MMNxtRvQdX8013K7mkMu7d6XmZVuer0vtgVzynOWJw6nyvMaFASRzN+4rlVvfK0DtOzK5d51ob08OFeAf7wWR3rKEn+8gMrJ++7oVknRw/49g+xchrsuR/cQY0ChtAkAI4TGJcEAHAcoXnXuoY8p/16cH99IAZ6I80zxE33mJICsGvW7PNdDNufKvF8nDtzyWmdrKuiJZm7AaDn+YyemaGHDo1kvAVXrj6t8yBU6fx8r9qOwwGAON4z2/lcY/IH58519tyzVUQmfTluWPa/aN+AKZRk7KOTvxIAii0AwHEeDq1mLDBin6oebT0golVQIqtHWlpNKYs1/0MDfouf07Ftjni9VDav6tRvxojOGBBlZejwNz2gx3szesid070j4+9/e8aivNP6H+aWVXvVdNy2J8oFOO6j60jq6b9alfz5VR06FT/ku5FDUe05EikcpSIBI1RonZnzbny2AkDV0jaAYwysK5fuE2VVmFAWp+XxVJBi67Q9acyye3v2RSW+C2B6vECcSU+TKCocjYkVPqV2aVcta8vYqy053JbpmLidW0ozXhF5M059Iu/tDQAp3bNrjgBv9Qz3v9ww+Z/La/RI+y6fFT0aWnzTS9QgYITI8Pq6jIzz/HUNoOhZtA3gGA/yoo92m1IW99B9FUGKrXv4wUpzXg2l81VOQdx3g+Oxji6PixBWZfNOaZKtqlZlbon80cPDGW/Xvc/HJNP3m1vhWgnlndLf6uUNADoVP6ydpD8P34QH7WU8mvyvS851jjyy2U/lthd9LIfaA8yQa2fmY56vrtRTosu8uwkIMDgBYMj1fyLiWPXv7rFi7wjOwVlWSIlInZiRMM2x6i57wTn463P9FEK3e8ekXezteYpW5cpep39340kPiivOy9jLxunblfl9uJNjhaKdTlF2JpfXW3bFOc1Ox3PnnPR738sbAIaP9IjIfN4wOPksgKNSv/vMBXLpvz1nz33/Gl+MrfMrz5GcgnGZHMunAgGPx0tKKkTkVRIAr++m2IsHvGlKWDCqIiULDSmNHTp37cVUyjTOoOZ+cMw5+Gtfldlpe6rQnv8hb+NWvSLpvHLXyb9tMnkDQMezxV7ERMf7O1VeRUb316uq1Uel47mT/+9XeHcDgNPJAYA4PanHv7zGsnO2qsb3rvLDKMKuu/Rl5+BvllFzgLe042ZkBYBvtgDob83OFRGW4gFvnHHPvWa3iISJRJbUd9Vy/22F6nzO8wNcrRmLI6f0P4gUZezMGbfnBU+uzXQH9o5n+jdV5YpTOhDSLvPuBgDd8kSpAKcp+cjnVuneXc/5oaxW0/vHqDHAgGfxtRUAJAD+R7xQz6BZAG8Wmn9dmihkkXD+XCu3fMhPRXbjAzNEO51elkEVVJ184iS/qldEZWbyp90+SQzM9CImuvv5jK8CtMrmFZ7S/8C7GwDSbu+uJgHOJAnw6+tWSHLoZdPLaVetKKO2AO9psTKy2t03CQA7lUPnBLx5WqNV+QIGqVlW6VbTlft9V+qJ7jZPf9/KqRM7J3lS75vKZe0Ze9knjnoWF7d7S8bfqypadvKrHby8ASCdOKTT8TwBzughS4WSP3tPlWi33+hy5hQuUOH8cSoM8HiAJzojq919kwBwlERpFsAbOopZ5xwQZVcSiexiN13tu6sWne4XvL69IGTNWNhyUs9V5cqMLYd1hw6PeBUQ3ftKTETcjP6osqokWnpSh4RaM89pFa9uABg53ENPgylpS2Nd5aln/7bZ8GKGVeWKw9QW4C1XMjPf9U0CQOl0hGYBvGFGs+ijnUQh+6jys+p891Lr2OT511SrcuVJfYVTFedm7N2ou3d4drWNTk/kiZvK+AoEq2LpSf2mVbXyqFexcdqf5QBATF17euUHy/VI23aTy2hVrxympgCPx3eiMjLf9U0CQCzFPaXAGx+Luss4pCorKz5cq4rru32VAGjbXOt1GVTVysmTCm9xQ8aeK921tdjLmOjxnoy3I6v6/JNa9WBXencDgNv6FH0rptTkb2+oE5G4qeWzK5a51BLg9UCFLQCvjwcJAOD1cgpGVW7pIgKRneymDxzxU3n1WHuVaLfPyzJYMxaexCoEJSqnIGPJCt33kqeJEXdgb8YnJHbFeSf33i/17AYAR/fsnEMvgyl91kfbK5z2zTuMHWcXNxZQS4DXHQUrAN7wNlZsAQD+QGju+7n+L5sTAHOuUL4rdGKg1dMBbn7FW16vo4pmd4qoooy8512n200MenrDje7alvHkuiqZU3JS/0WPbgDQ6cRhnZ7IF2Cqx7JPfGWxiEwYWbjcshpqCPB6/s8ZAK8fMGg3RLMA/mACOP+6FFHIXqqkscmj89FO/8XW/8qopwWwwrUqJ++EX7xVxbKujNVh8mi713XidG2dlfEfjRTVi8iJ99h7eQPAyJFuAaaBO9FT5nRt22nmS8WuUKHcJLUEeDrfJQHw+oiIolkAf2DGIpaoZvVbwipXM5f4ahuA0/a01yu5LFW26ISrEOyqVRm7AUAPHhjzuk70wJ6YiExmuPGWqoKqEyY/7FnntohHGS6n4zn2QmPapJ/7B3Nv7smvGKCGgOCzCAHgw7lf+dkHlRWqJhLZLTT/2g5fJQDaN1V5/uxUrTzxAHfmORlbbeb07PT+Heymw+IkM38TQNXKE95goipXDHkVEt3GAYCYxvbV9+JcScf3GTm2KJw9RA0BJAAAmDjxW/yRDqIAK3Z5rp/Kq48eionWI57GrGLFCbfO2MV1ZRmbe3c+Z8REU4919mZ8olG5evyE9eDdDQCO072D1VWYVun9PzVym4kqrBundoAsmEcQAsB/7Ng7iogCVH7VArFCjrhp2ycpACWTw0ckUnKOZ89O+cK842YAlKUllB/LVDDc3pfqTKgVt++VSbu4IbP1UHGunT5R2/bqBgAneURS401+7xusWUtekFDBpCnlcbu2rhDtspXzf5rZK3fHQotuMu+dUlTLGQAACQAAxgnnj0vuDK7/g4hS+VbN+Xvdtk0L/VJkPfjqkKpa7V0Bcsurjj/4jXWIUrMzEwinU1KjRpy6rbu3RKXpqgxPNOpOfPuBRzcAOMPN3SLi+wRA+Mqf5qpw9FxTypP4/qK0pCcYc/7PM3f0YL1op02UXWtSuVR+taZ2gOBjCwDgM3bTVa+ICNdi4rX2MP/afj+V12l/1ttJgBWqkZyCYy5zVZXLM7YsV0/0dxpTJ53bKzL+o+H8BlHHWQTg4Q0AunNLml4FGXnu+l5qNq5QkTwSAAAJAADGPbQLrp8kCvh9AmD2RSW+GvS2PTnL4yIoq/zslmPGsmpVxva/ukdfNWavrR46VCsi8Qz/bL4qrj92PXh4A4Db+jgHACIzbe3II8ZtibCsXLZpACQAABg34Stf0kgU8HuR0vkqpyDul+Lqgb0NHkw2X58BqFpx9Jj/h5lLwhmLQ9dOc85t0I4t6XhLxgcgVSt7jlk/3t0A4LpdHACIDOnYXG5cmUJREgAACQAAJlHliw+JFaohEvgDOVbdZft8U1o3FZLU2BFPx7iVy4+5zNsqnD0jY2Ho3lJmUrXokdaM3/9tVa9KHLOfq/DmBgDtJI9IeryALgWZ4AzsbhSRhFHdsxVhXgCQAABgktDCG9qJAt7Ukc+7ZtRXA9+jBwY8LUDZgjdP8pTtqnB+pk7ld93eV2Im1Ynb91LG975b5eccc8WFXebRDQAjLV1B6ROUEtew8rC3/E0PXTpHUvFmo94l4SjzAoAEAACT2A3vLiQKeFO7qFxW4afy6o4t3k5GjnHCvCptbBOR3MwEwGmX9IRRX5rdrq15Ga+Hgupjnwfh1Q0AXVudoPQJ2k0b9bdolZOipz5GXBKDQ2aVSLEFACABAMCY13I4f1xyyxcTCbxJOH+ulVs+5Jfi6o5N3i5/V3aVyike/sP/yK5ckcEbAHq7TasTt2tH5k/dD0UaxAq9/jwID28AcJsfLwnM+0Jco24zUHaYw2uPZaI7YVZHkGKlBkACAIAxD+ucK3YL1//hOONr1XTVAb8U1ul+fo6IePpFUM06p+11//+qlRkbiLv9e8dNqxM90lIjWmd6K0mOVbbgdYcPengDgOv2bG8ISoegnZRZqxlCURIAx2p0o22uWQVKu9QKQAIAgCnjp/nXJYgCjts+mq72zwDbSUYlnWj29OVXvfJ1NwFYM5bkZGyM3b09bF6laCWpcQ9uAljV94f/f89uAHAnm2VyrCg4M8u0YQmAXBIAx3rqhppto5qNy04NgAQAAGOoWefUEwUct32UL67zU3n1SHOvl79vVy5/3ZcuVViTsSu5dNfWGUbWyXBzxiffqmrl5OvrxaMbAEbaOgPVH7hpo7YASDgvSS99DMkhoxIA4kyyAgAgAWDSyIQTZJHFk7uy+UfECtcRCRy/Nw/XquL6br8U1+nc5u0XypKmoj+IXVpC0Uw9X44e2Bszsk56ns/44N8qP+t1By+qUm9uAHA7twTq06dOTxi1AkDlV4/RSR+jnlLjZiUAksOMtQGvZ7wkAF5XULLHyFqhxR9tJQp4K3bTB4745g3X/mSxpxOSaFnN798vpXNbJVPna7ipVp2O55lYJ273tozfTKDyZ73+wD+vbgBoeaw0UJ1Bos+oFQBWcV2cHvoYTEsAJAa5BQDwdvafke2+/lkBYAkvD2Qtq/7dBUQBb5kAmHOFbwZvTte2RhEP7ypX1iwrt3xQRERVrejL2Mt9vKfH2IFHz46azHdu4ToVjo6IiJc3AGi3e0dDkPoCd7TbrC+5hbVsLj9Ww0uNG3UeiE4M2NQK4B2VoQRAyDedpBYOQEN2dgahvAmVN9Oo6/+cPf/5lNu+pTDb6yZ8+XdmiRWabUxbKWlseu0AdR+s4pwcKxQ31SJW2Lvl8LPOaZeWx8qsylWZuwFgYI+xyWw91l0hogdEVCbPKLBV+ZIW3bV9iTXznFYRyXxf56aaZXIkUAkAPd5p1AceVVAjOEZcVMiswxrjAyFqBfD2KSQB8IfvZ0fiFkcWIgtZc96zW0RWmDR1S2/5xgqdGs/L9roJDd7ytCpfYkwCQJRVbs1actjtfanRF5OU0fZOVdzgWQLAqlw15LY8JtbMRRm7XlN3bcsxulKSw+0SKcnoIYVW1ZpBt2u7WFWvv5khY3Xy2gGAgUoAyGiHUe3MKo6FBW8WKTJqZYQeac2nUgBPsQXgdQPtECsAkKUJgPnXm/XFMHl0D5P/1ziHHjSuD7Xnf8g3p5m73Ts9PdvFrjxPRERUftWsjLWZ7u0zTa4TffTgcKZ/U1Utd0REVIU3NwC43VsDtzzdHW03q4/Oq5wheHPbj5YYdVaDO9JSSq0AHvYJoiZIAPzhoCTNGQDITnbFeUadGO60bRqiVl6TPvDLOaaVyYpdnuuX+Dntm7zdRlLcVCx2eFLsSKZuAEjrgb1G3+bh9OzK+DkS9owF+SIidpk3NwA4LU8UBa1v0qOtZUYNasO5daJsrph7o4Ias5JPY50kagAv+27NCoDXv6AdzQoAZB1V0ujtHuljPYv7fsYA4X+Md1WKm2o2qs3kVS4UK+z4IXxux2ZP27aKFteqsoWtkqntcO5kiziTUaPrpGtL5m9niM54bRuNNzcAaOna6ostM6f0R4201YgYtXIyokoaO3hpvJ49Y4E2qdXo1EQOtQJ4yCIB8Dp5KX2UVoGsGxws+miLWaNKPeZ2bllIzfxBSAb2thlVIKXyrJo1+3wRvPhAuWiny7tYWWU5V/0kY18l9VhXr/F10vN8bebrwa5WhbWtntwA4KZa3eRwSfA6JtcWJ9lu1Li2amWX4PWKYuYkBFPj3VQI4PEQzpWMzHd9kwBQX2mPa5EhmgaySWjOFWbt45zo3iNuilOC/4Bz8LfGXZtkz792wDcBnOj1NIGiwrnzMjbX7N9t/Eo2N3G0VLST6asKVeTDj4u8doVFZufJI23B/So90d9vVAJgzhWs5Hyj3IpZphRFj3czxga8fgcrycg5Tr46V1+JdNI0kDXsSELyKhaZVKR0yyOcxfHGBMDh3xh3DoA9+6IS38Sv9/mJbGkruntbxBfljA9mflJshT05G8Ht3j4Z2L5p+JBR/bU985xZgv83po0U96lQjjHvD3fwwCS1AnieASABcAwsH0PWsBretVtEjFoB4L7602pq5g2TpbHuCnEmm40qVKR0oYoU+CJZ47Y9nZstbcXp3OaLCZB79MBo1tRJAA8A/H3f1PeSWWO8cP5ciRSN8Nb47wRA7SUHTRqH676X2P8PeN0vuCojc11/JQAUKwCQPeyFN4ybNZp0+9y+V5qomWOExrRzAERCVu1lr/piAta+uTZLmsmkPrq/zhftuWeHnS2PrnRvbQjsH9e1zbQr3Wy78b2vCl4LxrxrjHrHOx2bK6gVwNtuO+raGTmLw19bALQiAYDsGRxULDNqsqCHDu8X0YqaOcbA6ZB55wBYcz847ovgjbZVa+0OBv6tnk60iJv2xRc23bWtJCseXDfV5iaOBvbec6dzyzwRSZpUptCST6cFr73ja8436faJhB7YU0utAF6+fKVffelgRvpsn20BcNkCgKygihvaxM6pN2ySq6mZ48Tm8H3GnQNgVS33z9ec+EBz4BvJWEefb9pzzwsNIhL4512Ptgf7WjpnMiqpsQNGvdtKm85R4fxxyXLWzCW7xQobkwDQyZEj4qYtAeDdc2hlbqu7rx52V6t2mgeygb3oxiPGjSUP/LKRmjlOpz3WXSHupFF1psL5TSpv5rAv+va+VwK/59wd2J30TWFTY/nipgN/Z7vTtSMZ9L9R9+/uN6xI+db8617K+nf88j8x6oOWO/gqV20DXo/bXMnYe9dXCQBb3H00D2TF4GDOFWYdjOammvVICwcAnnigbdo5AMqac+V+X8Suc3M48O2jc2vUV+Ud7wv8ijvd9nhB0P9Gp+VR465tDZ/3ucA/7yfsmO3IuF13yTlGveIPPxgRAB4P2iRjZ6T4KgGQM6Nov4iwfwwBn/3nJFVepVHX/+n+l1upmBNLH7zPuEFtqOlqX1zr5LRtCnxyyenc5qsDttzBV4N+PaPWnVsCv6rJaX7UvH3deTOXWbPOzdrDAO3zbtkqomYa9bwfeYADfgGvX0oie0gAHIO6bvekiBykiSDQg4P6d+4WpfKNGkQe+FWYmnmLAdTB+5rEsH3Tqvysel+89IYO1onWYwFuHgk9fKTOV+25Z3uwn3nttLmJo2WBH1AOH4kZuJ1Dhd/2zYGsfFFYoWTovC/EjCqTk2zW4z3FvMUBj/trRQLg+G+NDGZHAE/GBws+bNp+aNc99MB8auYtOu5430ztJM06u8EK1aji+m7zg+daMjlyOLCNIxVvEZ0O+ao9d26ZEejnNegHAP7h39r7gnEfTlRp00pV0nhEskx4xZ8+LVbYqENjdc/z3LAFGCAZViQAjttRkQBAwNlVK8xaspka3+fG+8uombfm9r1i3KTCbvqALwbZenBfYA+h0l3iVhMAACHhSURBVGPtfb5ry/27YyLiBPZZ7d6RyJZ+Kb37B/kGFiscuerHPdn0flChgqP2OTcvNq1cqZfvLuHtDXg+we0s/WTzEAmA4/agspdWgsAOEIpmd4odMWpfqtO5rZeaOcn++/D9xn3ltedc4Yt+3ul4xg7sZLPvpZTvCu0ko+JMtgW2TloeL8qWfsk5/ODZorV5N4LkVay2F1z/XLbUQ+jqHz8vyqoy7K014rY+uoC3N+D1BEDtzuTP+S4B4CjFCgAElr3oo4eMGygf/EUBNXNy0ofumyumnQNQ0jhXlPldvdO2aVZgJ5udW/P8WG490dMd1DpxOrfUZ03H5KZz9GiLkWOn8EX/OFvChcNBrwJ7zlWb7fIllxr3HAzu3yduyhIA3r5vdWY/cPvuoc8vyd8jInGaCoIo1HRVjmFFmnRbHl9IzZykib5ycZJm7WVXVpmaucT4/fW6/5UGEQnksmy3Z0elL8vd/0owl8m76XZJDAT6jIM3Su+91zWyYJZdG7n2/ldElA5q7FVBVUv4su80iogy7lF4aWNUABgwVJPnSQCcKEDX7Z4UUTtoKggcOzwpedVm7Q9MHt2jU+N5VM4pTGT7XjLuHIDQ/GvNP+TJTYf15FgQDwWb0MPNtb5sy13bA3k3uB7raM+2fsnZffc5pt60oYrqLghf8s+PBXJQb0dGI9c9Omze0n8R0e6Ac+A3iwWA932FOM+QAHjrTmszTQWBm//HLtstShm13N5p2zREzZxizA7db9oqDrFil+f6InjDh/sD1yBS482iXV++a52urYHcluH27sy+VYSpsQLd//IuY99/C657mz3/+mcCFXNlJ3Ouf/R5CeefbeTz3bF5v7hplv8D3uuNrm3L6BZgXz74SsmztBUEjbXgIyPGDZT3/bScmjk16UO/Ne8cgLzKhWKFjT/R3enYErhlwHq0ddC3ZR/cHxORZNDqxGl5MmsOAHxdDmDz35ic0AmF3/bPK+2FN24KyuQ/ev0jz6rC2kuMfVdt/ec63tiAAd2FSMY/bPsyATCp0s+ZNsAGzvhhrFxZY9boX485nVs5HfhUxftn6FTCrMMclcqzatbsMz10btuTgduX7fa+lPZv4VMhSSdaA1cnnc/GsrFrcnt2zdepMZNvUsoJX/wPq+yFN/g6CaBCkZHojZu3SXHj200tox7vfkn3v1IjALzvmyXzH7Z9mQAoWtvZLyL7aDIIClVY06nC0TlGDRDGOveImwpRO6fRmfe/bNyee3v+dQOmx0337moQkXSg2kLntnw/l1+PdvQF6uHUTodM9Gftyibn5btM7wci4Yv/6aLwe37whCjbf31BYe3+yMdfOCL5lReZXMz0ln+0BYAZLBIApzBjYhsAgsNeeMMhMeyEYLflEW7bON05xqHfmHcOQM0FpcbHLR3PEyfZHKgEQPf2Kl+Xv/+lVKCezbGutmzum5wXNpwnok2/dk/ZdZe8PfKxLTtU7owuv8Q2tOC6x6Mf2TRDQrnnGF3QybFDzsH7OPwPMEMyNxHeSQLgpEcl6mnaDAKTAGi62rgJY3rfz1keeLrd0+EH5oqIUdduqWjpAhUpMD6po4ebe4Iz29TjerTN18+R27U1UNeEuT07szqxqVPj+c6Rh17wQ1lV7szVkZt2RMMX/cNjouxJY8uZV9kc+fBTj4Uu+Ze3iyjjtzGltvz9BLtoAWN6kG3qSwczftaObxMAjisPCT0YgsAKpVTB7IVmjRLdPt3/yhwq5zQnGfGBGZI27BwAkZCqvdz8cwC6twVmC4BOjTeLaOXrtty9oypQz2brEwWS5ZxNf3mOaD3qk8Fxqb3oxsuif7T7QGjOVU+LSYnVUN5g+G3/8kDko8+VqOLYZWLYKr5jz/7HDjp7f7KEtzRgjAc9mXr4NVoFn2/uFpGdtBv4fv5fe8keUcqoU6n10YP7/T5x8TyGfS8ZeA7AB40f9Lttm4oDM9kcaRn0fTseOjxbRMYDUycdm+uzvW9yE0dLnOaHnvdVoUPRxaHL/+9F0c/sfzW84k9/p0I5nt2aoyJFneF3fPf+6Kd2O/b8694rSpX4JYypJ7+a5tsZYNAcwFX3kwA49W74AZoO/M5e/NEh08qUPvxbRghnyDn0a+OWTlsVyyqNj1vHlgYJygi1Z5fj+79Bu5aeHAvGTQDa6dQTfTPpnURST351uWi313+j5ZxF9tIvvDPyqX2T4Wsffiy04MNPqFBk+t+hVmjYXvSRRyMfeeaJyCdeKrEbr7xCRPmqLenhll3O4Qe52Qcw56lsi3zuyEte/LKvT/jWSh5QWr5GA4KvEwBVa4xbYusc+FUjNXNm3EMPzJUL/8EVgxKtKpzfpPJmDuuJPnO/sqdGi8VNtYoV9v0d1W731mAsNx9pHZTyRf7/O8a6W0Wkmt5JRCbH8tMv3PZC6LwvzvLnH6DK7RnzL5NLviGhS74xKvG+zU7PrhHd/Ltouu3JmEz0N8iZLMlX9rBVuWKvPf+Dg1bt24pU3qxFInK5j2s8OfnQJ2fT8AGj3O/VD/s6AZDb1bw9URnrFZFZtCH4Un5lj4Sic82a/U82y0hrPZVzhpO/xNEynYrvV+HceSaNmu05V+5Lv3zXSpNjp0c7OlVxfQASAM8H4iBNt/+ltB2ABIDT83yCnun/SW//tzWhsz65V8IFC33+pxRK7swL7Pp3itS/87WBrdY9Op3oUZPDQ3q8M+6OtrsyMahFpy13otcW1xFlhZREitMqUuhKTrGSolrLLooVSKRolqhQnYisDkxd7/mvl/TQ4RW0esCgAZmIZyvZfZ0AUOvEjW9QD4nom2hG8KPQwhsOiEiFUZOvgVdaRYQEwFTof7FLqlablAAQu+nqVPrlu8yecPbuStjFfm+CekSPdVQGoRm7HVvz7QUf9v/f0f5kPp3SHzZRx0red2Mo8sFfp0QkHKyRtapQ4dwKCeeKyq8Ue9bS/9cHZls1J0cPpjf/1XIaPGCUeESlH/Pqxy2/R09r937aEPzKnnu1cUk4Z/8vc6iZKYrlAfPOAVDlZzUYP1Frfcr/S+cnx5rFD6eCn0x99OwIxkqG9mfqBK8fQ/W9OFe3Pv4ckQhqBetE6v7r88RNc6gvYJYn1NrOCRIApyk3P3m/iIzRjuA7VjitimKmLb1004cenEflTFEwjzw0T0y6tkpExApVq+L6LpPj5nT6/6R2PXR4ODBziNG2KhHt779HO916vKdC8CbJ3332fD05tp9IBE96xzf3uH17OPcCMI1S93o6FPR9/G7qGRctv6ElwXfz/9kX7hFRRh3GpifH9kmiv4zamaIEQOJoqaTiB0wrl930gWajAzfRVy7a6fF13ffucgPVmH1+E4B+7QBAHIuTDE3+6gNR0XqcYASH7ntpV/r525YSCcA4iahYvyIBcKZJAFvuoS3Bb+xFNxp3R7jbs6OHmpnisXXPLuNias+90vjloHqs19cTNqdjS2GgJhNDh4f8XH639wUmtyeq36MH6tLbv/kKkQiI5NFXk7+5fgmBAIycuf5GrfV2lWAgEgCRzpZHRISJC/yVAKi5wLgDwpx9PyuiZqZ44nH4NxHjXj1FDfNEWdrouA286OsJm+57PlBXbvl9RYPb/gQHAL6F9K7bVjkdz2wmEv6mncmO5L3vrJZ0PEQ0AAOn/67zQ6/LEIwVAOskrUXupUnBN202v6JXQrnzDSvWpG59YgG1M8WDscMPzhcRx6wGaJWpmUuOGD1ha9uU6+NaH9TjvYG6ntbpfK7Y1+VveyZGb/TWUg98Yo0e73mBSPh29j84+Yv32Xqij2Q+YKbBSHnRQyQApmy0qH5Em4Jf2Auu3y+GnRCu44N7dGo8j9qZ4q4pOVyiU+PmnQMw/0OdRsetY7N/v6AnhwO339zt8fGKBu32yng3BwCeVEWnrcmfvG2+To7sJhi+a+cjyd9cF9eDr1YSDMDYB/Vedd3uSRIAUyT3s81bRclBGhZ8kQCY+wHjriJ2OzYNUTPTNXky8ByAusuMTvbo4ZYaET3gx/p2jh4cCVwjnugrF+0O+LPsvc30Qqfw7KXiuamfXFojTvII0fDN5H84+etrh3X3zhqCAZg8INRGfLAOTAJAKdEichctC+Y3VttRxfWmLf8X59V7y6mcaervD/3GuOXsKr9ygVg5aaPHtPEBf35J731BB7Ed68RQmx/L7XTvnBCcWp8V7y9J/viiQnESfFgxvrLSfZO/vDque56vJRiA0fZHP9v2DAmAKZZ2Q98TkSTtCyazay7cI6IMu2pPj7hd29n/P10TkMMPGXgOgMqzZ59v9N3fbv8eX35Jd7q2FAexHbtD/lzZ4LQ/xdam03krjPeWT/7ownIxcAsT/ruOUhPNkz9+e9jte5ll/4DhlOjb//uDNQmAqVT42UO9IvJTmhhMZi26wbjr/2S0c6+4KU4Mni6TI8WSGjdusm3Nu9boJd2645mwLyfKPS8E8kuc7t6pfFnutmf4Mnq6bXmivyRxz/lVEu9/iWgY1q6Hjrw4ec+qKnesrYRoAMYbj0esHxgz/gtch+iq22hjMDoBUHOhcaeDp5sfZuXMdPdNPc/3mlYme/aFRg8cnfan/fdVS7t9Eu+fEcjJYNfWEj/Whx7vrKIHOgOTwwWJe1Yv1r27thAMMx7F9L6f7kj+5NJz9ORohHAAPqD0PaWfbB4iATBN8j7XvEVEdtDSYGYDLe9XOQXm7f/f/3MODppm6YO/Nm8ZcqRkoYoUxo2duw3uqxetx30130wcbQ/srKPn+ToR8dX5BpoDAKdqymknf/mB1emXvr9VRCYJiGf10DX54CeOpJ/86nKfPYpAVrPEvc2s8gSRZhUAzBRacP0+45477fbo/j2N1M70cpofNu8cAJGQVXfZq+b25a4lqbHDvhqfDx0aDWwjnhwpFu10+6o++l4Yo/eZOunnvr4q+asPtYs72UY0Mtwd9r+8M3n30lK39ck5RAPw08MrT0XWtr9MAmCaRaPyXyIyQIuDaey5HzRuD60eOnhQRCtqZ5olR4t0aszAcwA+aPQEyRl49aiv3vM+3Sd/0uKDHb5KALQ+yQGAU93Ge7Y3Jn6wrPy/twTwGXraO8Fk2+TDNx9M/vyqZTo5EiUggM/6TEsb92E6kAkA9cnmhGjZSJODWQ3TclRxg3nL/w/9lgFcpiYj3TvMOwegcoXR++x157O+ek+5Ab0B4Pf9xeCrvtqS4bY/zQGA02FyNDf5yw+sTj38mVdZDTBtvd+4s/+n2xN3nV3tNv+uiXgAfhz7S0uuzPwVCYAMSUfC/yYi47Q8GPOwVa1+VZRl3OFgzoFfsPw/U5ORg/flG1eoUG6Typ05ZOwQuH1Tua8que+lukC34e4d/rktRLv9erSjmp5nGt8fzY8sTN51TqVz4JfPiWjGXFM0hNVdW7Yn/3OlTj3x1RXiJG1CAvh0/q/lX9TanSkSABlS+EcH+5SwCgDmsM+6sc+80fzkET3SzgA5Y4Plh+eLSNq095PddNV+Y2PW91KjiPjjlgrtdLuJoyVBbsO6a2uZb8o60ddMr5OBOKfj4dTjf7wmec/qtNOzc6uYd9aJXySdrq07Jn/8ttHkbz68Qk/0FRASwNe6IhH17yYWzApy1B0l3xSRBO0PRjxsNRcbd/2f0/sSSzczaXKsUFJj+0wrlmp6X9rYmDmpHJ0aP+KLiZDP9sef1t/Y+1KdiLh+KKvbywGAGW0b4z3FqV9dsyr5k0sH9WuJAG4LOKnAOUedIw9tS96zejL1m+uXuyPNpQQFCMCjLfJN9clmI+ehgU4A5K9t6dIi36cJwnPR8kGVU7jAuM7p4K9yqJwMz2c7t/ebVia7/Kx6o4M23Nznh7p1jx4I/IRTpyfyxU35ItGh257kwDQv4j50eGbyV9esmvzRBeNO86NbRLuDROUYcYoPvJra8o8vJb6/qDj1u1tW6vHuQqICBGb235eblzB2JboV9PgrZf+LkIWGx0Lzr33VwOfNcQ/dP5/ayfAk8eBvzDsHwApVq+L6LmNj1vWcLw6q1D07rWxow3q8t8sP5Ux3PMMBgF4+t6MdpamHP7068f0Fxannvr5LEgO7JdtvDXASbc7+X2yb/K9LjybvXrbAefGOs8VJWrQWIGAs+Td1U4+x56JkxdVf8fWxO0XJp2mN8KwfmHXOfmvWUqOuptSp0ZCz72crqJ0Md7qhvAl7wfUvGjdZOvLQHBnvmmVkzAoqe+z69xw2fmx/5IE5erxnVtDbsF257FVVfrbR1zNq7Spn9w9W0+MY9i4srB2yz/nMPqvp6hIVKc6GBLSW5MhBp/nBIfeVu+ud/t0zaQVA0B96GcpVdr1ae3iYBICHErfXNWpL7RURljsDAAAYkAywFlx70G680lLFDU2irKIA/FlpnRg6LL07h9IH7y90256YoxNHGXsC2UTpdblrW//W6CJmS11MrK//jlL6S7RKAAAAk7IBIfn/27v3IL3Ogo7jv+fsZvfdTVpyaSmUdpMWsNiOI6V/OICDDHLzUnW0DaNAay3p7rbATBFERYboeAFRcNTSpKWgrcUWdNRBvGArzmjFEQLi0NJC2+y+Sdv0Fpo2ye5m9z2Pf9BRUClJmsvuvp/PTP/szHu+78lMnl/Oni3POq87MPaqBwdO//5SVp/5nDRDz17kn7pNb+6Buv+hR9pdX5hrt39qbbvzX8+o83v92j7oX7s6vf3PL1c8vKjfCdQ3A8DjW089abCu+FpJVrs3AQAWsc66uYFTzt1RTjn3sfLMF/UG1jx3NJ3VJ6UZOinJimN2yG8XdmdhZk/dd/+e3iNf6dWHvtDJQ196Zu/RO09Jb873BPzPwbrU8c5495pF/zn76UvZv2XsnSXlvW5PAICl+DfsJmXk5LnyjA0PlRPXP15WPXuujKxbaEZOqu3wmtJ0Vg+kGUxKacqKVYPf8tbBhdk27fxCevOlnd+3kNTSzO1pUxfS7tvVtI/vHMreHSvbx+97RmYeWl1nHl2R2moOHIzbO2unv7dsTM8AsIjUj27ozB6od6ZmvXsUAACAI3Co/pHOxPTfLIXP2le/eqRcMjWbWn/FLQoAAMAR8JmlcvjvuwEgSTrj3RtLyTb3KQAAAE9D27b1HUvpA/fdAFBKam3L25NU9ysAAACHp16/8vLukvrH5aYfv6aRyal/SnKjGxYAAIDDsHuhrnjnUvvQTb9+W/Nl/sokj7hvAQAAOES/cMLkPQ8ZAJaIE8fvf6SU+i73LQAAAIfgXzrj0x9Zih+86edvbfiB7oeT3Ob+BQAA4CAsDKR5cylL851yfT0AlM1pm9pOJJl3HwMAAPDU6vuHJrZ/aal++qbfv77hyR1fLqV80I0MAADAt1Uy3Rmd+42lfAmNbzEZHpn5tST3KAEAAMD/o5a2jJeLHtxnAFjiykUP7qvJG5P01AAAAOBbTv/J1Z3Jqb9f6tdhAHjS6MT0Z5P620oAAADwTe4Z6e1/53K4EAPAN+mUk9+T5PNKAAAAkGShtuUN5YqH9xoAlpkyvm2+Sb04yawaAAAAfX9K/M3Ry6f+bblcjQHgfxme6N5Rk3crAQAA0MdH/+QLnbLu15fTNRkA/h8ju6Y/kOSflAAAAOhLs6W2F5fxbfMGgGWubE6bMnBxkkfVAAAA6LMzYcqVw5M7vrzcrssA8G2MjN/bTerr4lcDAgAA9NPp/6bOxNSW5XhpBoCnGgEmurcm+S0lAAAA+sJdncHOZcv14gwA30Fn1/R7kvppJQAAAJa1fU3qT5ZL73rCANCnyua0C3XFG5PcpwYAAMAyVevk8ET3juV8iQaAg3DC5D0P1bZckGReDQAAgOV2+M/VI5PdG5b7ZRoADtLo5VP/Vkt+SQkAAIBl5fOd+RVX9sOFFt/1oZnZsv6aJJuUAAAAWPIeqL3B7xu94p4d/XCxngA4RJ1y0hVJPqMEAADAkjZTa/MT/XL4NwAchjK+bX5+YeHClNytBgAAwJJUa8olo5Pb/72fLtoAcBhOfPN9jzYp59fkMTUAAACWmvKu0Ympm/vuqn3xh2926xmvrrX9VJJBNQAAAJbEMfj6kYmpi/vxyj0B8DR0xrd/utRcqQQAAMCScFvnwOBl/XrxngA4Ama3rH9/Td6uBAAAwKI9/X5lPvMvO3H8/kcMABy2WlNmt6y/JiVvUgMAAGDR2ZmF5vtH3rx9up8j+BGAI6CU1M666YmS/JkaAAAAi8ojTSmv6vfDvwHgSI4AG9MbXrvq9Un9tBoAAACLwuNtW187PD51pxQGgCM8Atx+oLNi5IIkn1cDAADguDpQUi9YeXl3mxQGgKMzAlx61xPzZf6HUvIVNQAAAI6LXk19fWei+w9SGACOqm+8VXLgtUm2qwEAAHBsD/9J/bnRia53tBkAjo2R8Xu7tTf4Aym5Ww0AAIBjd/gfmeheL8X/5dcAHmV7r9rwrIHB+o+p+W41AAAAjuLhv9ZLRia7N0hhADi+I8BAvTXJ2WoAAAAcjcN/Lh6ZnL5RCgPA8R8Brj3jlIFee2uSc9QAAAA4gof/kotGxqc/JsVT8w6AY2TVpu0PLtTBVyT5shoAAABHxHxNNjr8HxxPABxje68945TBXvu3NTlXDQAAgMM2U1Jf15noflIKA8CiVa86edXswMifJ+XVagAAABzimSp5rLTtj41cvuOf1Th4fgTgOChXPLy3s/aE81NykxoAAACH5IHBNC93+D+Ms6gEx0+tKXNb1r+/lvy8GgAAAN/RnSkDrxkZv7crxaHzBMBxVEpqZ3L67TX1F5NURQAAAL6NWj63MLTiZQ7/T+MMKsHiMLN1w8Wp9cNJBtUAAAD45sN/bukMdX6yXHrXE2IcPk8ALBIj41N/XJIfT/K4GgAAAP99+L+605z0ww7/T58nABaZ2S2nPb9m4JNJzlIDAADoYws19VdGJ7rvk8IAsGzt+fBpa4cWBj6e5AfVAAAA+tDupG4cmejeKsWR40cAFqFnvGnn7s6u6dfWWn5fDQAAoM98tbTNSxz+jzxPACxys1vHLqu1/GGSFWoAAADL3N/NDpefXnPJ1GNSGAD60szV61+RkpuTnKQGAACwDNVSyvuH10z9ctmYnhwGgL62/9rnnFZ6gzcleakaAADAMvJ4LfVNo+PdT0hxdHkHwBIxuum+nZ1d0y9PLb+apFUEAABY6kryhVLaFzn8H7PeLDWzW8bOryl/lGStGgAAwBI9jd7Q2dcbL2/bOSOGAYCnsP+q555eBhZuTvJiNQAAgCXkiVrLZaOTUzdJYQDgINWPnzM0s3vv75TkLWoAAACL/gyTfKlJ78LOxM6vqWEA4DDMXr3hNTX1Iyk5VQ0AAGBxnv3LtZ1y4Moyfv9+OQwAPA1f/+iG1Z3ZelVKfkYNAABgEZ06p5NcMjI+/RkxDAAcQfu3jl3Y1LK1JmvUAAAAju+Bs3xitm3HV1/e/boaBgCOgpmtZ46l9j6a5BVqAAAAx1zNwzUZH52c/gsxDAAc7T9vNWXumrFNtZYPJhlVBAAAOEaH/79tF9o3rXzLjvvFMABwDM1uPf25tQ5cndRXqQEAABxFDyb1F0YmutdLYQDgONq/dezC0parUnKyGgAAwBFUU/In85l/24nj9z8ihwGAReCxD42tGW6a9yZ1k+8eAAA4Amf/ryWZHJno3qqFAYBFaGbLGS9L2q1JXqAGAABwGOZLygeGDwy+p7z17jk5DAAsYvUDp43Mrhx4V2rekWRIEQAA4CB9prTNZOfy7XdJYQBgCZnZeuZY0vv11LxRDQAA4Cl0k/ruznj3hlJS5TAAsFSHgKs3vLyU+sGavFANAADgm+xNLb/b6eS95ZKpWTkMACwDdXOa2WeNvSEp70vyLEUAAKCvtSm5sdc071i1afuDchgAWI5DwPWnrJzdN/KOlPrOJB1FAACg7/zjQJq3DU1s/5IUBgD6wMzVGzYk7eaU8oYkA4oAAMCyPyB+MSXv7oxPf0oNAwD9OARcu/6M9MovJvVSQwAAACxLdyT1fZ1d3T8pm9PKYQCgz81tGTu7ptlcUy9w7wAAwLIwVUr9reE13evKxvTkMADAtw4BW0/7nloH320IAACAJatbSv2N4Qe6HymbsyCHAQCe0v4t61+c5JdL8iPuJQAAWBInwLtLW35neN3Kj5aNtx8QxAAAh2T2qtOe1zaDbymlXha/NQAAABbjwe+LNfX3Oru6H/Mv/gYAeNr2XnvGKQMLdbKU+taarFEEAACOu9tK6vs6E91PSoEBgCOuXnfWCXPzMz9Xk59PyumKAADAMTWfkpuatv3t4ckdX5YDAwBHfwj4+DlDs48+8bqkTKTkJYoAAMBR9UCS6+rAwtbRTfftlAMDAMfF3NYNL6g1P5vUy/x4AAAAHMFDXcm2Wuvvd8rJf1rGt80rggGARaFed9YJcwszP51aJmpyriIAAHBY9iTl5qb2/sBj/hgAWPT2b1n/4pIykdSfSrJSEQAA+I4+m1qu6cws3FzetnNGDgwALCn1A6eNzKxsfjS1XFSS1yRZoQoAAPz3qW261HJTsnBdZ2Ln1wTBAMCysOfDp60d7jUX1FouSvIS9ygAAH1qd1L+LKW9oXNZ97ZSUiXBAMCyNXvNmd9V2/b1KfVnUvM8RQAAWOaeSMlflrbcOLxu6payMT1JMADQf2PAh8bOTJPza8qFSV6cpFEFAIAlr+bhNPm7Uusnhg8Mfbq89e45UTAAwJOe+MjzTh48cOCHasqFJXlVkmFVAABYQu6ttfx1adpPeLwfAwAcpHrdWSfMzM+8pqQ5P7W+MiWnqgIAwCIzk5rbasrfNLX9q87l3XslwQAAT9Psh8bOzEBemdq8sqa+Isk6VQAAOMZ6peQ/Usstadpbhlc0/1IumZqVBQMAHLtB4NVJnqEKAABHwb1JuaWW9pa5oeYf1lwy9ZgkGADgOKmbM3jg1LGz2jbn1dqc1zT1pbXm3HihIAAAh2ZPaj6XlNtKabcdKAufPXH8/kdkwQAAi3kUuOrkVbODIy8sNefVUs5LzUuTnKkMAABPmi8l/9m23zjsN022DW3q3uHFfRgAYBl47ENja1YkZzZNzilpzm5TzynJ2YYBAIBl7UCSu0vK7bXmjtq0tw+U3DG0untn2ZiePBgAoI88/ofPWbeiac4uZeDslPYFbXJGkzJWk7F42SAAwFIwm6Sbmm6adGutX22SO1LqHcMP7NheNqeVCAMA8JTq1lNHD9TBDTXNWEo7Vms5PSXrU3NqSdbVZG2+8d8qtQAAjrj5JLtTsjs1u0vyUJvSTclU2rqjDrTdWga7qzZtf1AqDADAsRkKPn7O0L6H961dMdCubUvWll5dW8vA2tLUlW2tq5Kk1GaklHSSpE1dVVJWPPm/ry7+zAIAy/XvSWn3Jc2BbxxS6p6ktDVtW5M9Tx5d5ptS97ZtHislj7a17G56ze7OyNDuculdTygIAAAAAAAAAAAAAAAAAAAAAAAAAAAAAAAAAAAAAAAAAAAAAAAAAAAAAAAAAAAAAAAAAAAAAAAAAAAAAAAAAAAAAAAAAAAAAAAAAAAAAAAAAAAAAAAAAAAAAAAAAAAAAAAAAAAAAAAAAAAAAAB94b8AhhJ1Vyn4sxEAAAAldEVYdGRhdGU6Y3JlYXRlADIwMjItMDMtMDNUMjI6NTE6MDkrMDA6MDAibW5gAAAAJXRFWHRkYXRlOm1vZGlmeQAyMDIyLTAzLTAzVDIyOjUxOjA5KzAwOjAwUzDW3AAAAABJRU5ErkJggg==;" vertex="1" parent="1">
          <mxGeometry x="224" y="457.04" width="73" height="45.2" as="geometry" />
        </mxCell>
      </root>
    </mxGraphModel>
  </diagram>
</mxfile>
